{"glyphs":{"0":{"ha":1042,"x_min":110,"x_max":978,"o":"m 640 981 q 891 885 804 981 q 978 613 978 789 q 915 288 978 428 q 732 70 851 147 q 449 -7 613 -7 q 197 88 283 -7 q 110 360 110 183 q 173 686 110 546 q 356 903 236 826 q 640 981 475 981 m 614 833 q 378 709 457 833 q 300 363 300 585 q 475 139 300 139 q 708 264 629 139 q 788 611 788 389 q 614 833 788 833 z "},"1":{"ha":589,"x_min":133,"x_max":553,"o":"m 163 972 l 553 972 l 364 0 l 178 0 l 336 808 l 133 808 l 163 972 z "},"2":{"ha":874,"x_min":11,"x_max":835,"o":"m 832 742 q 757 587 821 668 q 585 413 693 506 l 288 163 l 760 163 l 731 0 l 11 0 l 35 135 l 475 513 q 583 618 540 567 q 632 708 625 669 q 633 728 633 715 q 598 794 633 771 q 499 818 563 818 q 356 786 435 818 q 201 697 276 754 l 154 840 q 355 944 253 907 q 554 981 457 981 q 758 926 682 981 q 835 781 835 872 q 832 742 835 756 z "},"3":{"ha":878,"x_min":3,"x_max":869,"o":"m 847 857 l 496 572 l 544 567 q 727 497 661 556 q 793 346 793 439 q 735 165 793 246 q 575 38 678 85 q 342 -8 472 -8 q 152 22 243 -8 q 3 101 61 51 l 103 246 q 217 172 151 197 q 357 146 283 146 q 540 195 472 146 q 608 325 608 244 q 558 417 608 385 q 417 449 508 449 l 268 449 l 289 561 l 600 814 l 192 814 l 219 972 l 869 972 l 847 857 z "},"4":{"ha":890,"x_min":33,"x_max":840,"o":"m 840 389 l 811 229 l 671 229 l 626 0 l 453 0 l 497 229 l 33 229 l 58 367 l 494 972 l 672 972 l 261 389 l 528 389 l 572 614 l 746 614 l 701 389 l 840 389 z "},"5":{"ha":908,"x_min":24,"x_max":896,"o":"m 413 810 l 374 617 l 501 617 q 733 548 649 617 q 817 367 817 479 q 759 174 817 260 q 599 40 701 89 q 367 -8 496 -8 q 182 23 275 -8 q 24 107 89 54 l 124 253 q 241 177 175 204 q 378 150 307 150 q 548 201 483 150 q 613 335 613 251 q 567 425 613 393 q 429 457 521 457 q 297 453 379 457 q 168 446 215 450 l 269 972 l 896 972 l 865 810 l 413 810 z "},"6":{"ha":935,"x_min":104,"x_max":924,"o":"m 426 -8 q 188 88 272 -8 q 104 353 104 183 q 174 674 104 531 q 367 899 243 817 q 643 981 490 981 q 794 960 718 981 q 924 906 871 940 l 826 767 q 736 813 789 796 q 628 829 683 829 q 412 742 496 829 q 303 503 328 654 q 424 599 353 567 q 585 632 496 632 q 776 565 707 632 q 844 383 844 497 q 790 179 844 268 q 641 41 736 90 q 426 -8 546 -8 m 447 149 q 607 206 544 149 q 669 356 669 263 q 631 453 669 418 q 522 489 592 489 q 403 460 456 489 q 320 383 350 431 q 290 281 290 335 q 330 187 290 225 q 447 149 369 149 z "},"7":{"ha":864,"x_min":125,"x_max":932,"o":"m 182 972 l 932 972 l 907 833 l 344 0 l 147 0 l 692 810 l 319 810 l 292 672 l 125 672 l 182 972 z "},"8":{"ha":925,"x_min":63,"x_max":865,"o":"m 579 981 q 790 924 714 981 q 865 767 865 867 q 815 621 865 686 q 683 519 765 556 q 788 438 750 492 q 825 314 825 383 q 770 145 825 218 q 616 32 715 72 q 389 -8 517 -8 q 149 55 236 -8 q 63 226 63 118 q 130 404 63 326 q 308 519 197 482 q 228 593 257 546 q 200 697 200 640 q 248 845 200 781 q 382 945 296 910 q 579 981 468 981 m 557 847 q 410 806 464 847 q 356 690 356 764 q 394 611 356 639 q 503 583 432 583 q 650 625 597 583 q 703 739 703 667 q 665 819 703 792 q 557 847 628 847 m 475 439 q 305 391 368 439 q 242 263 242 343 q 287 170 242 203 q 415 138 332 138 q 588 185 525 138 q 650 315 650 233 q 605 406 650 374 q 475 439 560 439 z "},"9":{"ha":929,"x_min":54,"x_max":872,"o":"m 151 206 q 242 160 189 176 q 350 144 294 144 q 564 231 481 144 q 674 469 647 318 q 552 374 624 407 q 393 340 481 340 q 203 408 271 340 q 135 590 135 475 q 188 793 135 704 q 337 931 242 882 q 551 981 432 981 q 788 885 704 981 q 872 619 872 789 q 802 299 872 443 q 609 74 732 156 q 333 -8 486 -8 q 183 13 260 -8 q 54 68 107 33 l 151 206 m 531 824 q 372 767 435 824 q 310 617 310 710 q 348 520 310 556 q 456 485 386 485 q 608 536 546 485 q 682 663 669 588 q 685 693 685 682 q 647 786 685 749 q 531 824 608 824 z "},"\u0000":{"ha":0,"x_min":0,"x_max":0,"o":""},"\r":{"ha":340,"x_min":0,"x_max":0,"o":""}," ":{"ha":340,"x_min":0,"x_max":0,"o":""},"A":{"ha":1058,"x_min":31,"x_max":1004,"o":"m 646 982 q 910 898 815 982 q 1004 667 1004 814 q 994 568 1004 617 l 885 0 l 699 0 l 747 251 l 267 251 l 218 0 l 31 0 l 140 568 q 234 788 164 694 q 410 931 304 881 q 646 982 515 982 m 808 568 q 815 632 815 606 q 764 766 815 718 q 617 814 713 814 q 427 748 504 814 q 328 568 350 682 l 297 410 l 778 410 l 808 568 z "},"Á":{"ha":1058,"x_min":31,"x_max":1004,"o":"m 646 982 q 910 898 815 982 q 1004 667 1004 814 q 994 568 1004 617 l 885 0 l 699 0 l 747 251 l 267 251 l 218 0 l 31 0 l 140 568 q 234 788 164 694 q 410 931 304 881 q 646 982 515 982 m 808 568 q 815 632 815 606 q 764 766 815 718 q 617 814 713 814 q 427 748 504 814 q 328 568 350 682 l 297 410 l 778 410 l 808 568 m 718 1264 l 892 1193 l 714 1050 l 574 1064 l 718 1264 z "},"Ă":{"ha":1058,"x_min":31,"x_max":1004,"o":"m 646 982 q 910 898 815 982 q 1004 667 1004 814 q 994 568 1004 617 l 885 0 l 699 0 l 747 251 l 267 251 l 218 0 l 31 0 l 140 568 q 234 788 164 694 q 410 931 304 881 q 646 982 515 982 m 808 568 q 815 632 815 606 q 764 766 815 718 q 617 814 713 814 q 427 748 504 814 q 328 568 350 682 l 297 410 l 778 410 l 808 568 m 619 1256 q 618 1238 618 1250 q 637 1186 618 1206 q 686 1167 656 1167 q 749 1192 721 1167 q 789 1256 778 1217 l 908 1256 q 820 1106 888 1163 q 665 1050 753 1050 q 542 1094 588 1050 q 497 1215 497 1139 q 500 1256 497 1242 l 619 1256 z "},"Ắ":{"ha":1058,"x_min":31,"x_max":1004,"o":"m 646 982 q 910 898 815 982 q 1004 667 1004 814 q 994 568 1004 617 l 885 0 l 699 0 l 747 251 l 267 251 l 218 0 l 31 0 l 140 568 q 234 788 164 694 q 410 931 304 881 q 646 982 515 982 m 808 568 q 815 632 815 606 q 764 766 815 718 q 617 814 713 814 q 427 748 504 814 q 328 568 350 682 l 297 410 l 778 410 l 808 568 z "},"Ặ":{"ha":1058,"x_min":31,"x_max":1004,"o":"m 646 982 q 910 898 815 982 q 1004 667 1004 814 q 994 568 1004 617 l 885 0 l 699 0 l 747 251 l 267 251 l 218 0 l 31 0 l 140 568 q 234 788 164 694 q 410 931 304 881 q 646 982 515 982 m 808 568 q 815 632 815 606 q 764 766 815 718 q 617 814 713 814 q 427 748 504 814 q 328 568 350 682 l 297 410 l 778 410 l 808 568 m 436 -97 q 497 -122 474 -97 q 521 -186 521 -147 q 483 -276 521 -239 q 396 -312 446 -312 q 335 -287 358 -312 q 311 -224 311 -262 q 349 -134 311 -171 q 436 -97 386 -97 m 583 1256 q 582 1238 582 1250 q 601 1186 582 1206 q 650 1167 619 1167 q 713 1192 685 1167 q 753 1256 742 1217 l 872 1256 q 784 1106 851 1163 q 629 1050 717 1050 q 506 1094 551 1050 q 461 1215 461 1139 q 464 1256 461 1242 l 583 1256 z "},"Ằ":{"ha":1058,"x_min":31,"x_max":1004,"o":"m 646 982 q 910 898 815 982 q 1004 667 1004 814 q 994 568 1004 617 l 885 0 l 699 0 l 747 251 l 267 251 l 218 0 l 31 0 l 140 568 q 234 788 164 694 q 410 931 304 881 q 646 982 515 982 m 808 568 q 815 632 815 606 q 764 766 815 718 q 617 814 713 814 q 427 748 504 814 q 328 568 350 682 l 297 410 l 778 410 l 808 568 z "},"Ẳ":{"ha":1058,"x_min":31,"x_max":1004,"o":"m 646 982 q 910 898 815 982 q 1004 667 1004 814 q 994 568 1004 617 l 885 0 l 699 0 l 747 251 l 267 251 l 218 0 l 31 0 l 140 568 q 234 788 164 694 q 410 931 304 881 q 646 982 515 982 m 808 568 q 815 632 815 606 q 764 766 815 718 q 617 814 713 814 q 427 748 504 814 q 328 568 350 682 l 297 410 l 778 410 l 808 568 z "},"Ẵ":{"ha":1058,"x_min":31,"x_max":1004,"o":"m 646 982 q 910 898 815 982 q 1004 667 1004 814 q 994 568 1004 617 l 885 0 l 699 0 l 747 251 l 267 251 l 218 0 l 31 0 l 140 568 q 234 788 164 694 q 410 931 304 881 q 646 982 515 982 m 808 568 q 815 632 815 606 q 764 766 815 718 q 617 814 713 814 q 427 748 504 814 q 328 568 350 682 l 297 410 l 778 410 l 808 568 z "},"Â":{"ha":1058,"x_min":31,"x_max":1004,"o":"m 646 982 q 910 898 815 982 q 1004 667 1004 814 q 994 568 1004 617 l 885 0 l 699 0 l 747 251 l 267 251 l 218 0 l 31 0 l 140 568 q 234 788 164 694 q 410 931 304 881 q 646 982 515 982 m 808 568 q 815 632 815 606 q 764 766 815 718 q 617 814 713 814 q 427 748 504 814 q 328 568 350 682 l 297 410 l 778 410 l 808 568 m 903 1057 l 742 1057 l 682 1144 l 590 1057 l 429 1057 l 617 1257 l 792 1257 l 903 1057 z "},"Ấ":{"ha":1058,"x_min":31,"x_max":1004,"o":"m 646 982 q 910 898 815 982 q 1004 667 1004 814 q 994 568 1004 617 l 885 0 l 699 0 l 747 251 l 267 251 l 218 0 l 31 0 l 140 568 q 234 788 164 694 q 410 931 304 881 q 646 982 515 982 m 808 568 q 815 632 815 606 q 764 766 815 718 q 617 814 713 814 q 427 748 504 814 q 328 568 350 682 l 297 410 l 778 410 l 808 568 z "},"Ậ":{"ha":1058,"x_min":31,"x_max":1004,"o":"m 646 982 q 910 898 815 982 q 1004 667 1004 814 q 994 568 1004 617 l 885 0 l 699 0 l 747 251 l 267 251 l 218 0 l 31 0 l 140 568 q 234 788 164 694 q 410 931 304 881 q 646 982 515 982 m 808 568 q 815 632 815 606 q 764 766 815 718 q 617 814 713 814 q 427 748 504 814 q 328 568 350 682 l 297 410 l 778 410 l 808 568 m 436 -97 q 497 -122 474 -97 q 521 -186 521 -147 q 483 -276 521 -239 q 396 -312 446 -312 q 335 -287 358 -312 q 311 -224 311 -262 q 349 -134 311 -171 q 436 -97 386 -97 m 867 1057 l 706 1057 l 646 1144 l 554 1057 l 393 1057 l 581 1257 l 756 1257 l 867 1057 z "},"Ầ":{"ha":1058,"x_min":31,"x_max":1004,"o":"m 646 982 q 910 898 815 982 q 1004 667 1004 814 q 994 568 1004 617 l 885 0 l 699 0 l 747 251 l 267 251 l 218 0 l 31 0 l 140 568 q 234 788 164 694 q 410 931 304 881 q 646 982 515 982 m 808 568 q 815 632 815 606 q 764 766 815 718 q 617 814 713 814 q 427 748 504 814 q 328 568 350 682 l 297 410 l 778 410 l 808 568 z "},"Ẩ":{"ha":1058,"x_min":31,"x_max":1004,"o":"m 646 982 q 910 898 815 982 q 1004 667 1004 814 q 994 568 1004 617 l 885 0 l 699 0 l 747 251 l 267 251 l 218 0 l 31 0 l 140 568 q 234 788 164 694 q 410 931 304 881 q 646 982 515 982 m 808 568 q 815 632 815 606 q 764 766 815 718 q 617 814 713 814 q 427 748 504 814 q 328 568 350 682 l 297 410 l 778 410 l 808 568 z "},"Ẫ":{"ha":1058,"x_min":31,"x_max":1004,"o":"m 646 982 q 910 898 815 982 q 1004 667 1004 814 q 994 568 1004 617 l 885 0 l 699 0 l 747 251 l 267 251 l 218 0 l 31 0 l 140 568 q 234 788 164 694 q 410 931 304 881 q 646 982 515 982 m 808 568 q 815 632 815 606 q 764 766 815 718 q 617 814 713 814 q 427 748 504 814 q 328 568 350 682 l 297 410 l 778 410 l 808 568 z "},"Ȁ":{"ha":1058,"x_min":31,"x_max":1004,"o":"m 646 982 q 910 898 815 982 q 1004 667 1004 814 q 994 568 1004 617 l 885 0 l 699 0 l 747 251 l 267 251 l 218 0 l 31 0 l 140 568 q 234 788 164 694 q 410 931 304 881 q 646 982 515 982 m 808 568 q 815 632 815 606 q 764 766 815 718 q 617 814 713 814 q 427 748 504 814 q 328 568 350 682 l 297 410 l 778 410 l 808 568 m 556 1271 l 625 1061 l 492 1049 l 394 1207 l 556 1271 m 796 1271 l 865 1061 l 732 1049 l 635 1207 l 796 1271 z "},"Ä":{"ha":1058,"x_min":31,"x_max":1004,"o":"m 646 982 q 910 898 815 982 q 1004 667 1004 814 q 994 568 1004 617 l 885 0 l 699 0 l 747 251 l 267 251 l 218 0 l 31 0 l 140 568 q 234 788 164 694 q 410 931 304 881 q 646 982 515 982 m 808 568 q 815 632 815 606 q 764 766 815 718 q 617 814 713 814 q 427 748 504 814 q 328 568 350 682 l 297 410 l 778 410 l 808 568 m 574 1238 q 626 1216 607 1238 q 646 1161 646 1194 q 614 1084 646 1117 q 539 1051 582 1051 q 485 1074 506 1051 q 464 1129 464 1096 q 496 1206 464 1175 q 574 1238 528 1238 m 825 1238 q 878 1216 858 1238 q 899 1161 899 1194 q 867 1084 899 1117 q 790 1051 835 1051 q 737 1074 757 1051 q 717 1129 717 1096 q 749 1206 717 1175 q 825 1238 781 1238 z "},"Ạ":{"ha":1058,"x_min":31,"x_max":1004,"o":"m 646 982 q 910 898 815 982 q 1004 667 1004 814 q 994 568 1004 617 l 885 0 l 699 0 l 747 251 l 267 251 l 218 0 l 31 0 l 140 568 q 234 788 164 694 q 410 931 304 881 q 646 982 515 982 m 808 568 q 815 632 815 606 q 764 766 815 718 q 617 814 713 814 q 427 748 504 814 q 328 568 350 682 l 297 410 l 778 410 l 808 568 m 436 -97 q 497 -122 474 -97 q 521 -186 521 -147 q 483 -276 521 -239 q 396 -312 446 -312 q 335 -287 358 -312 q 311 -224 311 -262 q 349 -134 311 -171 q 436 -97 386 -97 z "},"À":{"ha":1058,"x_min":31,"x_max":1004,"o":"m 646 982 q 910 898 815 982 q 1004 667 1004 814 q 994 568 1004 617 l 885 0 l 699 0 l 747 251 l 267 251 l 218 0 l 31 0 l 140 568 q 234 788 164 694 q 410 931 304 881 q 646 982 515 982 m 808 568 q 815 632 815 606 q 764 766 815 718 q 617 814 713 814 q 427 748 504 814 q 328 568 350 682 l 297 410 l 778 410 l 808 568 m 632 1264 l 772 1064 l 631 1050 l 457 1193 l 632 1264 z "},"Ả":{"ha":1058,"x_min":31,"x_max":1004,"o":"m 646 982 q 910 898 815 982 q 1004 667 1004 814 q 994 568 1004 617 l 885 0 l 699 0 l 747 251 l 267 251 l 218 0 l 31 0 l 140 568 q 234 788 164 694 q 410 931 304 881 q 646 982 515 982 m 808 568 q 815 632 815 606 q 764 766 815 718 q 617 814 713 814 q 427 748 504 814 q 328 568 350 682 l 297 410 l 778 410 l 808 568 m 721 1332 q 809 1306 775 1332 q 843 1233 843 1281 q 802 1132 843 1185 q 696 1031 761 1079 l 611 1071 q 671 1134 649 1101 q 693 1188 693 1167 q 684 1210 693 1201 q 660 1218 675 1218 q 607 1200 638 1218 l 569 1288 q 721 1332 643 1332 z "},"Ȃ":{"ha":1058,"x_min":31,"x_max":1004,"o":"m 646 982 q 910 898 815 982 q 1004 667 1004 814 q 994 568 1004 617 l 885 0 l 699 0 l 747 251 l 267 251 l 218 0 l 31 0 l 140 568 q 234 788 164 694 q 410 931 304 881 q 646 982 515 982 m 808 568 q 815 632 815 606 q 764 766 815 718 q 617 814 713 814 q 427 748 504 814 q 328 568 350 682 l 297 410 l 778 410 l 808 568 m 749 1057 q 750 1075 750 1063 q 731 1126 750 1107 q 682 1146 713 1146 q 619 1121 647 1146 q 579 1057 590 1096 l 460 1057 q 548 1206 481 1150 q 703 1263 615 1263 q 826 1218 781 1263 q 871 1097 871 1174 q 868 1057 871 1071 l 749 1057 z "},"Ā":{"ha":1058,"x_min":31,"x_max":1004,"o":"m 646 982 q 910 898 815 982 q 1004 667 1004 814 q 994 568 1004 617 l 885 0 l 699 0 l 747 251 l 267 251 l 218 0 l 31 0 l 140 568 q 234 788 164 694 q 410 931 304 881 q 646 982 515 982 m 808 568 q 815 632 815 606 q 764 766 815 718 q 617 814 713 814 q 427 748 504 814 q 328 568 350 682 l 297 410 l 778 410 l 808 568 m 475 1178 l 897 1178 l 876 1063 l 454 1063 l 475 1178 z "},"Ą":{"ha":1058,"x_min":31,"x_max":1004,"o":"m 646 982 q 910 898 815 982 q 1004 667 1004 814 q 994 568 1004 617 l 885 0 l 872 0 q 758 -85 792 -51 q 725 -153 725 -119 q 756 -182 725 -182 q 801 -171 781 -182 l 818 -282 q 689 -310 747 -310 q 598 -281 632 -310 q 564 -203 564 -253 q 596 -97 564 -150 q 700 8 628 -43 l 747 251 l 267 251 l 218 0 l 31 0 l 140 568 q 234 788 164 694 q 410 931 304 881 q 646 982 515 982 m 778 410 l 808 568 q 815 632 815 606 q 764 766 815 718 q 617 814 713 814 q 427 748 504 814 q 328 568 350 682 l 297 410 l 778 410 z "},"Å":{"ha":1058,"x_min":31,"x_max":1004,"o":"m 646 982 q 910 898 815 982 q 1004 667 1004 814 q 994 568 1004 617 l 885 0 l 699 0 l 747 251 l 267 251 l 218 0 l 31 0 l 140 568 q 234 788 164 694 q 410 931 304 881 q 646 982 515 982 m 808 568 q 815 632 815 606 q 764 766 815 718 q 617 814 713 814 q 427 748 504 814 q 328 568 350 682 l 297 410 l 778 410 l 808 568 m 706 1343 q 806 1303 767 1343 q 844 1204 844 1264 q 820 1118 844 1158 q 756 1054 796 1078 q 669 1031 715 1031 q 570 1069 610 1031 q 531 1167 531 1108 q 555 1253 531 1213 q 620 1319 579 1294 q 706 1343 661 1343 m 696 1251 q 643 1230 665 1251 q 621 1178 621 1208 q 637 1138 621 1154 q 679 1121 653 1121 q 732 1143 708 1121 q 756 1194 756 1165 q 739 1235 756 1218 q 696 1251 722 1251 z "},"Ǻ":{"ha":1058,"x_min":31,"x_max":1004,"o":"m 646 982 q 910 898 815 982 q 1004 667 1004 814 q 994 568 1004 617 l 885 0 l 699 0 l 747 251 l 267 251 l 218 0 l 31 0 l 140 568 q 234 788 164 694 q 410 931 304 881 q 646 982 515 982 m 808 568 q 815 632 815 606 q 764 766 815 718 q 617 814 713 814 q 427 748 504 814 q 328 568 350 682 l 297 410 l 778 410 l 808 568 m 699 1344 q 799 1305 760 1344 q 838 1206 838 1265 q 813 1119 838 1160 q 749 1056 789 1079 q 663 1032 708 1032 q 563 1071 603 1032 q 524 1168 524 1110 q 548 1255 524 1214 q 613 1320 572 1296 q 699 1344 654 1344 m 689 1253 q 636 1231 658 1253 q 614 1179 614 1210 q 630 1139 614 1156 q 672 1122 646 1122 q 725 1144 701 1122 q 749 1196 749 1167 q 732 1236 749 1219 q 689 1253 715 1253 m 785 1576 l 929 1483 l 731 1375 l 607 1411 l 785 1576 z "},"Ã":{"ha":1058,"x_min":31,"x_max":1004,"o":"m 646 982 q 910 898 815 982 q 1004 667 1004 814 q 994 568 1004 617 l 885 0 l 699 0 l 747 251 l 267 251 l 218 0 l 31 0 l 140 568 q 234 788 164 694 q 410 931 304 881 q 646 982 515 982 m 808 568 q 815 632 815 606 q 764 766 815 718 q 617 814 713 814 q 427 748 504 814 q 328 568 350 682 l 297 410 l 778 410 l 808 568 m 931 1246 q 774 1051 896 1051 q 720 1061 743 1051 q 658 1093 697 1071 q 603 1118 621 1118 q 569 1102 581 1118 q 551 1056 558 1086 l 436 1056 q 594 1251 471 1251 q 651 1240 625 1251 q 708 1210 678 1229 q 767 1185 749 1185 q 815 1246 806 1185 l 931 1246 z "},"Æ":{"ha":1479,"x_min":-75,"x_max":1514,"o":"m 1483 810 l 957 810 l 906 569 l 1379 569 l 1349 407 l 875 407 l 824 163 l 1367 163 l 1336 0 l 608 0 l 654 228 l 296 228 l 122 0 l -75 0 l 681 972 l 1514 972 l 1483 810 m 406 374 l 683 374 l 772 819 l 744 819 l 406 374 z "},"Ǽ":{"ha":1479,"x_min":-75,"x_max":1514,"o":"m 1483 810 l 957 810 l 906 569 l 1379 569 l 1349 407 l 875 407 l 824 163 l 1367 163 l 1336 0 l 608 0 l 654 228 l 296 228 l 122 0 l -75 0 l 681 972 l 1514 972 l 1483 810 m 406 374 l 683 374 l 772 819 l 744 819 l 406 374 m 1067 1264 l 1240 1193 l 1063 1050 l 922 1064 l 1067 1264 z "},"B":{"ha":986,"x_min":46,"x_max":963,"o":"m 744 514 q 865 447 822 500 q 908 315 908 393 q 856 149 908 219 q 709 39 804 78 q 489 0 614 0 l 46 0 l 240 972 l 672 972 q 886 918 810 972 q 963 768 963 864 q 903 607 963 676 q 744 514 843 538 m 583 575 q 715 614 665 575 q 764 717 764 653 q 730 787 764 763 q 632 811 696 811 l 393 811 l 346 575 l 583 575 m 499 161 q 659 201 600 161 q 718 313 718 242 q 675 390 718 363 q 553 418 632 418 l 315 418 l 264 161 l 499 161 z "},"C":{"ha":1004,"x_min":69,"x_max":996,"o":"m 636 985 q 835 943 740 985 q 996 828 931 901 l 874 692 q 760 785 826 751 q 624 818 694 818 q 443 770 526 818 q 310 640 360 722 q 261 461 261 558 q 299 309 261 378 q 405 201 338 240 q 556 161 472 161 q 698 192 625 161 q 831 276 771 222 l 929 154 q 738 31 844 76 q 529 -14 632 -14 q 292 47 397 -14 q 128 211 188 107 q 69 444 69 315 q 147 717 69 593 q 353 913 224 840 q 636 985 483 985 z "},"Ć":{"ha":1004,"x_min":69,"x_max":996,"o":"m 636 985 q 835 943 740 985 q 996 828 931 901 l 874 692 q 760 785 826 751 q 624 818 694 818 q 443 770 526 818 q 310 640 360 722 q 261 461 261 558 q 299 309 261 378 q 405 201 338 240 q 556 161 472 161 q 698 192 625 161 q 831 276 771 222 l 929 154 q 738 31 844 76 q 529 -14 632 -14 q 292 47 397 -14 q 128 211 188 107 q 69 444 69 315 q 147 717 69 593 q 353 913 224 840 q 636 985 483 985 m 668 1264 l 842 1193 l 664 1050 l 524 1064 l 668 1264 z "},"Č":{"ha":1004,"x_min":69,"x_max":996,"o":"m 636 985 q 835 943 740 985 q 996 828 931 901 l 874 692 q 760 785 826 751 q 624 818 694 818 q 443 770 526 818 q 310 640 360 722 q 261 461 261 558 q 299 309 261 378 q 405 201 338 240 q 556 161 472 161 q 698 192 625 161 q 831 276 771 222 l 929 154 q 738 31 844 76 q 529 -14 632 -14 q 292 47 397 -14 q 128 211 188 107 q 69 444 69 315 q 147 717 69 593 q 353 913 224 840 q 636 985 483 985 m 728 1257 l 889 1257 l 701 1057 l 526 1057 l 415 1257 l 576 1257 l 636 1169 l 728 1257 z "},"Ç":{"ha":1004,"x_min":69,"x_max":996,"o":"m 929 154 q 756 39 853 83 q 565 -12 660 -6 l 532 -71 q 603 -106 581 -81 q 625 -167 625 -132 q 569 -274 625 -237 q 431 -311 514 -311 q 293 -282 358 -311 l 349 -178 q 424 -193 389 -193 q 469 -183 451 -193 q 486 -157 486 -172 q 469 -135 486 -144 q 422 -126 451 -126 l 382 -126 l 443 -7 q 249 74 333 11 q 117 234 164 138 q 69 444 69 331 q 147 717 69 593 q 353 913 224 840 q 636 985 483 985 q 835 943 740 985 q 996 828 931 901 l 874 692 q 760 785 826 751 q 624 818 694 818 q 443 770 526 818 q 310 640 360 722 q 261 461 261 558 q 299 309 261 378 q 405 201 338 240 q 556 161 472 161 q 698 192 625 161 q 831 276 771 222 l 929 154 z "},"Ḉ":{"ha":1004,"x_min":69,"x_max":996,"o":"m 918 1193 l 740 1050 l 600 1064 l 744 1264 l 918 1193 m 929 154 q 756 39 853 83 q 565 -12 660 -6 l 532 -71 q 603 -106 581 -81 q 625 -167 625 -132 q 569 -274 625 -237 q 431 -311 514 -311 q 293 -282 358 -311 l 349 -178 q 424 -193 389 -193 q 469 -183 451 -193 q 486 -157 486 -172 q 469 -135 486 -144 q 422 -126 451 -126 l 382 -126 l 443 -7 q 249 74 333 11 q 117 234 164 138 q 69 444 69 331 q 147 717 69 593 q 353 913 224 840 q 636 985 483 985 q 835 943 740 985 q 996 828 931 901 l 874 692 q 760 785 826 751 q 624 818 694 818 q 443 770 526 818 q 310 640 360 722 q 261 461 261 558 q 299 309 261 378 q 405 201 338 240 q 556 161 472 161 q 698 192 625 161 q 831 276 771 222 l 929 154 z "},"Ĉ":{"ha":1004,"x_min":69,"x_max":996,"o":"m 636 985 q 835 943 740 985 q 996 828 931 901 l 874 692 q 760 785 826 751 q 624 818 694 818 q 443 770 526 818 q 310 640 360 722 q 261 461 261 558 q 299 309 261 378 q 405 201 338 240 q 556 161 472 161 q 698 192 625 161 q 831 276 771 222 l 929 154 q 738 31 844 76 q 529 -14 632 -14 q 292 47 397 -14 q 128 211 188 107 q 69 444 69 315 q 147 717 69 593 q 353 913 224 840 q 636 985 483 985 m 853 1057 l 692 1057 l 632 1144 l 540 1057 l 379 1057 l 567 1257 l 742 1257 l 853 1057 z "},"Ċ":{"ha":1004,"x_min":69,"x_max":996,"o":"m 636 985 q 835 943 740 985 q 996 828 931 901 l 874 692 q 760 785 826 751 q 624 818 694 818 q 443 770 526 818 q 310 640 360 722 q 261 461 261 558 q 299 309 261 378 q 405 201 338 240 q 556 161 472 161 q 698 192 625 161 q 831 276 771 222 l 929 154 q 738 31 844 76 q 529 -14 632 -14 q 292 47 397 -14 q 128 211 188 107 q 69 444 69 315 q 147 717 69 593 q 353 913 224 840 q 636 985 483 985 m 654 1267 q 715 1242 692 1267 q 739 1178 739 1217 q 701 1088 739 1125 q 614 1051 664 1051 q 553 1076 576 1051 q 529 1140 529 1101 q 567 1230 529 1193 q 654 1267 604 1267 z "},"D":{"ha":1076,"x_min":47,"x_max":1060,"o":"m 621 972 q 852 920 753 972 q 1006 774 951 868 q 1060 560 1060 681 q 981 275 1060 403 q 766 74 901 147 q 468 0 631 0 l 47 0 l 240 972 l 621 972 m 868 536 q 833 677 868 615 q 737 774 799 739 q 594 808 675 808 l 394 808 l 265 164 l 503 164 q 684 213 600 164 q 818 346 768 261 q 868 536 868 431 z "},"Ǆ":{"ha":2021,"x_min":47,"x_max":2051,"o":"m 621 972 q 852 920 753 972 q 1006 774 951 868 q 1060 560 1060 681 q 981 275 1060 403 q 766 74 901 147 q 468 0 631 0 l 47 0 l 240 972 l 621 972 m 868 536 q 833 677 868 615 q 737 774 799 739 q 594 808 675 808 l 394 808 l 265 164 l 503 164 q 684 213 600 164 q 818 346 768 261 q 868 536 868 431 m 2051 972 l 2031 842 l 1738 550 l 1883 550 l 1857 408 l 1594 408 l 1349 164 l 1924 164 l 1899 0 l 1067 0 l 1088 131 l 1379 419 l 1229 419 l 1256 561 l 1521 561 l 1771 808 l 1219 808 l 1244 972 l 2051 972 m 1785 1257 l 1946 1257 l 1758 1057 l 1583 1057 l 1472 1257 l 1633 1257 l 1693 1169 l 1785 1257 z "},"Ð":{"ha":1076,"x_min":33,"x_max":1060,"o":"m 621 972 q 852 920 753 972 q 1006 774 951 868 q 1060 560 1060 681 q 981 275 1060 403 q 766 74 901 147 q 468 0 631 0 l 47 0 l 133 436 l 33 436 l 53 538 l 154 538 l 240 972 l 621 972 m 868 536 q 833 677 868 615 q 737 774 799 739 q 594 808 675 808 l 394 808 l 340 538 l 572 538 l 553 436 l 319 436 l 265 164 l 503 164 q 684 213 600 164 q 818 346 768 261 q 868 536 868 431 z "},"Ď":{"ha":1076,"x_min":47,"x_max":1060,"o":"m 621 972 q 852 920 753 972 q 1006 774 951 868 q 1060 560 1060 681 q 981 275 1060 403 q 766 74 901 147 q 468 0 631 0 l 47 0 l 240 972 l 621 972 m 868 536 q 833 677 868 615 q 737 774 799 739 q 594 808 675 808 l 394 808 l 265 164 l 503 164 q 684 213 600 164 q 818 346 768 261 q 868 536 868 431 m 733 1257 l 894 1257 l 707 1057 l 532 1057 l 421 1257 l 582 1257 l 642 1169 l 733 1257 z "},"Đ":{"ha":1076,"x_min":33,"x_max":1060,"o":"m 621 972 q 852 920 753 972 q 1006 774 951 868 q 1060 560 1060 681 q 981 275 1060 403 q 766 74 901 147 q 468 0 631 0 l 47 0 l 133 436 l 33 436 l 53 538 l 154 538 l 240 972 l 621 972 m 868 536 q 833 677 868 615 q 737 774 799 739 q 594 808 675 808 l 394 808 l 340 538 l 572 538 l 553 436 l 319 436 l 265 164 l 503 164 q 684 213 600 164 q 818 346 768 261 q 868 536 868 431 z "},"Ḍ":{"ha":1076,"x_min":47,"x_max":1060,"o":"m 621 972 q 852 920 753 972 q 1006 774 951 868 q 1060 560 1060 681 q 981 275 1060 403 q 766 74 901 147 q 468 0 631 0 l 47 0 l 240 972 l 621 972 m 868 536 q 833 677 868 615 q 737 774 799 739 q 594 808 675 808 l 394 808 l 265 164 l 503 164 q 684 213 600 164 q 818 346 768 261 q 868 536 868 431 m 417 -97 q 478 -122 454 -97 q 501 -186 501 -147 q 464 -276 501 -239 q 376 -312 426 -312 q 315 -287 339 -312 q 292 -224 292 -262 q 329 -134 292 -171 q 417 -97 367 -97 z "},"Ḏ":{"ha":1076,"x_min":47,"x_max":1060,"o":"m 621 972 q 852 920 753 972 q 1006 774 951 868 q 1060 560 1060 681 q 981 275 1060 403 q 766 74 901 147 q 468 0 631 0 l 47 0 l 240 972 l 621 972 m 868 536 q 833 677 868 615 q 737 774 799 739 q 594 808 675 808 l 394 808 l 265 164 l 503 164 q 684 213 600 164 q 818 346 768 261 q 868 536 868 431 m 232 -111 l 594 -111 l 572 -225 l 210 -225 l 232 -111 z "},"ǅ":{"ha":1829,"x_min":47,"x_max":1843,"o":"m 621 972 q 852 920 753 972 q 1006 774 951 868 q 1060 560 1060 681 q 981 275 1060 403 q 766 74 901 147 q 468 0 631 0 l 47 0 l 240 972 l 621 972 m 868 536 q 833 677 868 615 q 737 774 799 739 q 594 808 675 808 l 394 808 l 265 164 l 503 164 q 684 213 600 164 q 818 346 768 261 q 868 536 868 431 m 1843 742 l 1822 621 l 1621 432 l 1725 432 l 1700 306 l 1486 306 l 1317 147 l 1735 147 l 1707 -1 l 1063 0 l 1085 119 l 1292 315 l 1175 315 l 1200 443 l 1428 443 l 1588 594 l 1196 596 l 1224 743 l 1843 742 m 1663 1051 l 1824 1051 l 1636 851 l 1461 851 l 1350 1051 l 1511 1051 l 1571 964 l 1663 1051 z "},"E":{"ha":883,"x_min":33,"x_max":901,"o":"m 599 988 q 767 969 683 988 q 901 922 851 951 l 814 776 q 706 813 768 799 q 583 826 643 826 q 463 807 517 826 q 379 755 410 788 q 349 682 349 722 q 393 610 349 636 q 508 583 438 583 l 728 583 l 699 425 l 481 425 q 303 383 375 425 q 232 274 232 342 q 287 183 232 218 q 432 149 342 149 q 586 169 501 149 q 731 221 671 190 l 775 75 q 593 10 700 35 q 385 -14 486 -14 q 206 16 286 -14 q 79 101 125 46 q 33 228 33 156 q 113 409 33 329 q 315 515 193 489 q 213 584 250 535 q 176 699 176 633 q 178 721 176 714 q 244 860 188 800 q 392 954 300 921 q 599 988 483 988 z "},"É":{"ha":883,"x_min":33,"x_max":901,"o":"m 599 988 q 767 969 683 988 q 901 922 851 951 l 814 776 q 706 813 768 799 q 583 826 643 826 q 463 807 517 826 q 379 755 410 788 q 349 682 349 722 q 393 610 349 636 q 508 583 438 583 l 728 583 l 699 425 l 481 425 q 303 383 375 425 q 232 274 232 342 q 287 183 232 218 q 432 149 342 149 q 586 169 501 149 q 731 221 671 190 l 775 75 q 593 10 700 35 q 385 -14 486 -14 q 206 16 286 -14 q 79 101 125 46 q 33 228 33 156 q 113 409 33 329 q 315 515 193 489 q 213 584 250 535 q 176 699 176 633 q 178 721 176 714 q 244 860 188 800 q 392 954 300 921 q 599 988 483 988 m 664 1267 l 838 1196 l 660 1053 l 519 1067 l 664 1267 z "},"Ĕ":{"ha":883,"x_min":33,"x_max":901,"o":"m 599 988 q 767 969 683 988 q 901 922 851 951 l 814 776 q 706 813 768 799 q 583 826 643 826 q 463 807 517 826 q 379 755 410 788 q 349 682 349 722 q 393 610 349 636 q 508 583 438 583 l 728 583 l 699 425 l 481 425 q 303 383 375 425 q 232 274 232 342 q 287 183 232 218 q 432 149 342 149 q 586 169 501 149 q 731 221 671 190 l 775 75 q 593 10 700 35 q 385 -14 486 -14 q 206 16 286 -14 q 79 101 125 46 q 33 228 33 156 q 113 409 33 329 q 315 515 193 489 q 213 584 250 535 q 176 699 176 633 q 178 721 176 714 q 244 860 188 800 q 392 954 300 921 q 599 988 483 988 m 565 1258 q 564 1240 564 1253 q 583 1189 564 1208 q 632 1169 601 1169 q 695 1194 667 1169 q 735 1258 724 1219 l 854 1258 q 766 1109 833 1165 q 611 1053 699 1053 q 488 1097 533 1053 q 443 1218 443 1142 q 446 1258 443 1244 l 565 1258 z "},"Ě":{"ha":883,"x_min":33,"x_max":901,"o":"m 599 988 q 767 969 683 988 q 901 922 851 951 l 814 776 q 706 813 768 799 q 583 826 643 826 q 463 807 517 826 q 379 755 410 788 q 349 682 349 722 q 393 610 349 636 q 508 583 438 583 l 728 583 l 699 425 l 481 425 q 303 383 375 425 q 232 274 232 342 q 287 183 232 218 q 432 149 342 149 q 586 169 501 149 q 731 221 671 190 l 775 75 q 593 10 700 35 q 385 -14 486 -14 q 206 16 286 -14 q 79 101 125 46 q 33 228 33 156 q 113 409 33 329 q 315 515 193 489 q 213 584 250 535 q 176 699 176 633 q 178 721 176 714 q 244 860 188 800 q 392 954 300 921 q 599 988 483 988 m 724 1260 l 885 1260 l 697 1060 l 522 1060 l 411 1260 l 572 1260 l 632 1172 l 724 1260 z "},"Ḝ":{"ha":883,"x_min":33,"x_max":901,"o":"m 576 1050 q 453 1094 499 1050 q 408 1215 408 1139 q 411 1256 408 1242 l 531 1256 q 529 1238 529 1250 q 548 1186 529 1206 q 597 1167 567 1167 q 660 1192 632 1167 q 700 1256 689 1217 l 819 1256 q 731 1106 799 1163 q 576 1050 664 1050 m 583 826 q 463 807 517 826 q 379 755 410 788 q 349 682 349 722 q 393 610 349 636 q 508 583 438 583 l 728 583 l 699 425 l 481 425 q 303 383 375 425 q 232 274 232 342 q 287 183 232 218 q 432 149 342 149 q 586 169 501 149 q 731 221 671 190 l 775 75 q 625 19 711 42 q 450 -11 539 -4 l 417 -71 q 488 -106 465 -81 q 510 -167 510 -132 q 454 -274 510 -237 q 315 -311 399 -311 q 178 -282 243 -311 l 233 -178 q 308 -193 274 -193 q 353 -183 336 -193 q 371 -157 371 -172 q 353 -135 371 -144 q 307 -126 336 -126 l 267 -126 l 326 -11 q 115 66 196 1 q 33 228 33 131 q 113 409 33 329 q 315 515 193 489 q 213 584 250 535 q 176 699 176 633 q 178 721 176 714 q 244 860 188 800 q 392 954 300 921 q 599 988 483 988 q 767 969 683 988 q 901 922 851 951 l 814 776 q 706 813 768 799 q 583 826 643 826 z "},"Ê":{"ha":883,"x_min":33,"x_max":901,"o":"m 599 988 q 767 969 683 988 q 901 922 851 951 l 814 776 q 706 813 768 799 q 583 826 643 826 q 463 807 517 826 q 379 755 410 788 q 349 682 349 722 q 393 610 349 636 q 508 583 438 583 l 728 583 l 699 425 l 481 425 q 303 383 375 425 q 232 274 232 342 q 287 183 232 218 q 432 149 342 149 q 586 169 501 149 q 731 221 671 190 l 775 75 q 593 10 700 35 q 385 -14 486 -14 q 206 16 286 -14 q 79 101 125 46 q 33 228 33 156 q 113 409 33 329 q 315 515 193 489 q 213 584 250 535 q 176 699 176 633 q 178 721 176 714 q 244 860 188 800 q 392 954 300 921 q 599 988 483 988 m 849 1060 l 688 1060 l 628 1147 l 536 1060 l 375 1060 l 563 1260 l 738 1260 l 849 1060 z "},"Ế":{"ha":883,"x_min":33,"x_max":901,"o":"m 599 988 q 767 969 683 988 q 901 922 851 951 l 814 776 q 706 813 768 799 q 583 826 643 826 q 463 807 517 826 q 379 755 410 788 q 349 682 349 722 q 393 610 349 636 q 508 583 438 583 l 728 583 l 699 425 l 481 425 q 303 383 375 425 q 232 274 232 342 q 287 183 232 218 q 432 149 342 149 q 586 169 501 149 q 731 221 671 190 l 775 75 q 593 10 700 35 q 385 -14 486 -14 q 206 16 286 -14 q 79 101 125 46 q 33 228 33 156 q 113 409 33 329 q 315 515 193 489 q 213 584 250 535 q 176 699 176 633 q 178 721 176 714 q 244 860 188 800 q 392 954 300 921 q 599 988 483 988 m 878 1047 l 701 1047 l 629 1121 l 529 1047 l 350 1047 l 529 1197 l 751 1197 l 878 1047 m 715 1439 l 860 1346 l 661 1238 l 538 1274 l 715 1439 z "},"Ệ":{"ha":883,"x_min":33,"x_max":901,"o":"m 599 988 q 767 969 683 988 q 901 922 851 951 l 814 776 q 706 813 768 799 q 583 826 643 826 q 463 807 517 826 q 379 755 410 788 q 349 682 349 722 q 393 610 349 636 q 508 583 438 583 l 728 583 l 699 425 l 481 425 q 303 383 375 425 q 232 274 232 342 q 287 183 232 218 q 432 149 342 149 q 586 169 501 149 q 731 221 671 190 l 775 75 q 593 10 700 35 q 385 -14 486 -14 q 206 16 286 -14 q 79 101 125 46 q 33 228 33 156 q 113 409 33 329 q 315 515 193 489 q 213 584 250 535 q 176 699 176 633 q 178 721 176 714 q 244 860 188 800 q 392 954 300 921 q 599 988 483 988 m 375 -97 q 436 -122 413 -97 q 460 -186 460 -147 q 422 -276 460 -239 q 335 -312 385 -312 q 274 -287 297 -312 q 250 -224 250 -262 q 288 -134 250 -171 q 375 -97 325 -97 m 806 1057 l 644 1057 l 585 1144 l 493 1057 l 332 1057 l 519 1257 l 694 1257 l 806 1057 z "},"Ề":{"ha":883,"x_min":33,"x_max":901,"o":"m 599 988 q 767 969 683 988 q 901 922 851 951 l 814 776 q 706 813 768 799 q 583 826 643 826 q 463 807 517 826 q 379 755 410 788 q 349 682 349 722 q 393 610 349 636 q 508 583 438 583 l 728 583 l 699 425 l 481 425 q 303 383 375 425 q 232 274 232 342 q 287 183 232 218 q 432 149 342 149 q 586 169 501 149 q 731 221 671 190 l 775 75 q 593 10 700 35 q 385 -14 486 -14 q 206 16 286 -14 q 79 101 125 46 q 33 228 33 156 q 113 409 33 329 q 315 515 193 489 q 213 584 250 535 q 176 699 176 633 q 178 721 176 714 q 244 860 188 800 q 392 954 300 921 q 599 988 483 988 m 874 1047 l 697 1047 l 625 1121 l 525 1047 l 346 1047 l 525 1197 l 747 1197 l 874 1047 m 568 1439 l 747 1274 l 624 1238 l 424 1346 l 568 1439 z "},"Ể":{"ha":883,"x_min":33,"x_max":901,"o":"m 599 988 q 767 969 683 988 q 901 922 851 951 l 814 776 q 706 813 768 799 q 583 826 643 826 q 463 807 517 826 q 379 755 410 788 q 349 682 349 722 q 393 610 349 636 q 508 583 438 583 l 728 583 l 699 425 l 481 425 q 303 383 375 425 q 232 274 232 342 q 287 183 232 218 q 432 149 342 149 q 586 169 501 149 q 731 221 671 190 l 775 75 q 593 10 700 35 q 385 -14 486 -14 q 206 16 286 -14 q 79 101 125 46 q 33 228 33 156 q 113 409 33 329 q 315 515 193 489 q 213 584 250 535 q 176 699 176 633 q 178 721 176 714 q 244 860 188 800 q 392 954 300 921 q 599 988 483 988 m 850 1049 l 674 1049 l 601 1122 l 501 1049 l 322 1049 l 501 1199 l 724 1199 l 850 1049 m 656 1469 q 735 1447 706 1469 q 764 1389 764 1424 q 639 1236 764 1317 l 561 1271 q 609 1310 592 1290 q 626 1346 626 1331 q 599 1367 626 1367 q 554 1354 574 1367 l 518 1428 q 656 1469 586 1469 z "},"Ễ":{"ha":883,"x_min":33,"x_max":922,"o":"m 599 988 q 767 969 683 988 q 901 922 851 951 l 814 776 q 706 813 768 799 q 583 826 643 826 q 463 807 517 826 q 379 755 410 788 q 349 682 349 722 q 393 610 349 636 q 508 583 438 583 l 728 583 l 699 425 l 481 425 q 303 383 375 425 q 232 274 232 342 q 287 183 232 218 q 432 149 342 149 q 586 169 501 149 q 731 221 671 190 l 775 75 q 593 10 700 35 q 385 -14 486 -14 q 206 16 286 -14 q 79 101 125 46 q 33 228 33 156 q 113 409 33 329 q 315 515 193 489 q 213 584 250 535 q 176 699 176 633 q 178 721 176 714 q 244 860 188 800 q 392 954 300 921 q 599 988 483 988 m 894 1049 l 718 1049 l 646 1122 l 546 1049 l 367 1049 l 546 1199 l 768 1199 l 894 1049 m 922 1418 q 871 1294 908 1339 q 771 1250 833 1250 q 712 1260 739 1250 q 650 1289 685 1271 q 617 1306 633 1299 q 588 1313 600 1313 q 551 1298 563 1313 q 533 1254 539 1283 l 438 1254 q 589 1424 468 1424 q 649 1413 621 1424 q 708 1385 676 1403 q 727 1375 713 1382 q 752 1365 742 1368 q 772 1361 763 1361 q 808 1376 796 1361 q 825 1418 819 1390 l 922 1418 z "},"Ȅ":{"ha":883,"x_min":33,"x_max":901,"o":"m 599 988 q 767 969 683 988 q 901 922 851 951 l 814 776 q 706 813 768 799 q 583 826 643 826 q 463 807 517 826 q 379 755 410 788 q 349 682 349 722 q 393 610 349 636 q 508 583 438 583 l 728 583 l 699 425 l 481 425 q 303 383 375 425 q 232 274 232 342 q 287 183 232 218 q 432 149 342 149 q 586 169 501 149 q 731 221 671 190 l 775 75 q 593 10 700 35 q 385 -14 486 -14 q 206 16 286 -14 q 79 101 125 46 q 33 228 33 156 q 113 409 33 329 q 315 515 193 489 q 213 584 250 535 q 176 699 176 633 q 178 721 176 714 q 244 860 188 800 q 392 954 300 921 q 599 988 483 988 m 501 1274 l 571 1064 l 438 1051 l 340 1210 l 501 1274 m 742 1274 l 811 1064 l 678 1051 l 581 1210 l 742 1274 z "},"Ë":{"ha":883,"x_min":33,"x_max":901,"o":"m 599 988 q 767 969 683 988 q 901 922 851 951 l 814 776 q 706 813 768 799 q 583 826 643 826 q 463 807 517 826 q 379 755 410 788 q 349 682 349 722 q 393 610 349 636 q 508 583 438 583 l 728 583 l 699 425 l 481 425 q 303 383 375 425 q 232 274 232 342 q 287 183 232 218 q 432 149 342 149 q 586 169 501 149 q 731 221 671 190 l 775 75 q 593 10 700 35 q 385 -14 486 -14 q 206 16 286 -14 q 79 101 125 46 q 33 228 33 156 q 113 409 33 329 q 315 515 193 489 q 213 584 250 535 q 176 699 176 633 q 178 721 176 714 q 244 860 188 800 q 392 954 300 921 q 599 988 483 988 m 519 1240 q 572 1219 553 1240 q 592 1164 592 1197 q 560 1087 592 1119 q 485 1054 528 1054 q 431 1076 451 1054 q 410 1132 410 1099 q 442 1209 410 1178 q 519 1240 474 1240 m 771 1240 q 824 1219 804 1240 q 844 1164 844 1197 q 813 1087 844 1119 q 736 1054 781 1054 q 683 1076 703 1054 q 663 1132 663 1099 q 694 1209 663 1178 q 771 1240 726 1240 z "},"Ė":{"ha":883,"x_min":33,"x_max":901,"o":"m 599 988 q 767 969 683 988 q 901 922 851 951 l 814 776 q 706 813 768 799 q 583 826 643 826 q 463 807 517 826 q 379 755 410 788 q 349 682 349 722 q 393 610 349 636 q 508 583 438 583 l 728 583 l 699 425 l 481 425 q 303 383 375 425 q 232 274 232 342 q 287 183 232 218 q 432 149 342 149 q 586 169 501 149 q 731 221 671 190 l 775 75 q 593 10 700 35 q 385 -14 486 -14 q 206 16 286 -14 q 79 101 125 46 q 33 228 33 156 q 113 409 33 329 q 315 515 193 489 q 213 584 250 535 q 176 699 176 633 q 178 721 176 714 q 244 860 188 800 q 392 954 300 921 q 599 988 483 988 m 650 1269 q 711 1244 688 1269 q 735 1181 735 1219 q 697 1091 735 1128 q 610 1054 660 1054 q 549 1079 572 1054 q 525 1143 525 1104 q 563 1233 525 1196 q 650 1269 600 1269 z "},"Ẹ":{"ha":883,"x_min":33,"x_max":901,"o":"m 599 988 q 767 969 683 988 q 901 922 851 951 l 814 776 q 706 813 768 799 q 583 826 643 826 q 463 807 517 826 q 379 755 410 788 q 349 682 349 722 q 393 610 349 636 q 508 583 438 583 l 728 583 l 699 425 l 481 425 q 303 383 375 425 q 232 274 232 342 q 287 183 232 218 q 432 149 342 149 q 586 169 501 149 q 731 221 671 190 l 775 75 q 593 10 700 35 q 385 -14 486 -14 q 206 16 286 -14 q 79 101 125 46 q 33 228 33 156 q 113 409 33 329 q 315 515 193 489 q 213 584 250 535 q 176 699 176 633 q 178 721 176 714 q 244 860 188 800 q 392 954 300 921 q 599 988 483 988 m 375 -97 q 436 -122 413 -97 q 460 -186 460 -147 q 422 -276 460 -239 q 335 -312 385 -312 q 274 -287 297 -312 q 250 -224 250 -262 q 288 -134 250 -171 q 375 -97 325 -97 z "},"È":{"ha":883,"x_min":33,"x_max":901,"o":"m 599 988 q 767 969 683 988 q 901 922 851 951 l 814 776 q 706 813 768 799 q 583 826 643 826 q 463 807 517 826 q 379 755 410 788 q 349 682 349 722 q 393 610 349 636 q 508 583 438 583 l 728 583 l 699 425 l 481 425 q 303 383 375 425 q 232 274 232 342 q 287 183 232 218 q 432 149 342 149 q 586 169 501 149 q 731 221 671 190 l 775 75 q 593 10 700 35 q 385 -14 486 -14 q 206 16 286 -14 q 79 101 125 46 q 33 228 33 156 q 113 409 33 329 q 315 515 193 489 q 213 584 250 535 q 176 699 176 633 q 178 721 176 714 q 244 860 188 800 q 392 954 300 921 q 599 988 483 988 m 578 1267 l 718 1067 l 576 1053 l 403 1196 l 578 1267 z "},"Ẻ":{"ha":883,"x_min":33,"x_max":901,"o":"m 599 988 q 767 969 683 988 q 901 922 851 951 l 814 776 q 706 813 768 799 q 583 826 643 826 q 463 807 517 826 q 379 755 410 788 q 349 682 349 722 q 393 610 349 636 q 508 583 438 583 l 728 583 l 699 425 l 481 425 q 303 383 375 425 q 232 274 232 342 q 287 183 232 218 q 432 149 342 149 q 586 169 501 149 q 731 221 671 190 l 775 75 q 593 10 700 35 q 385 -14 486 -14 q 206 16 286 -14 q 79 101 125 46 q 33 228 33 156 q 113 409 33 329 q 315 515 193 489 q 213 584 250 535 q 176 699 176 633 q 178 721 176 714 q 244 860 188 800 q 392 954 300 921 q 599 988 483 988 m 667 1335 q 755 1309 721 1335 q 789 1236 789 1283 q 748 1135 789 1188 q 642 1033 707 1082 l 557 1074 q 617 1137 594 1104 q 639 1190 639 1169 q 630 1213 639 1204 q 606 1221 621 1221 q 553 1203 583 1221 l 515 1290 q 667 1335 589 1335 z "},"Ȇ":{"ha":883,"x_min":33,"x_max":901,"o":"m 599 988 q 767 969 683 988 q 901 922 851 951 l 814 776 q 706 813 768 799 q 583 826 643 826 q 463 807 517 826 q 379 755 410 788 q 349 682 349 722 q 393 610 349 636 q 508 583 438 583 l 728 583 l 699 425 l 481 425 q 303 383 375 425 q 232 274 232 342 q 287 183 232 218 q 432 149 342 149 q 586 169 501 149 q 731 221 671 190 l 775 75 q 593 10 700 35 q 385 -14 486 -14 q 206 16 286 -14 q 79 101 125 46 q 33 228 33 156 q 113 409 33 329 q 315 515 193 489 q 213 584 250 535 q 176 699 176 633 q 178 721 176 714 q 244 860 188 800 q 392 954 300 921 q 599 988 483 988 m 694 1060 q 696 1078 696 1065 q 677 1129 696 1110 q 628 1149 658 1149 q 565 1124 593 1149 q 525 1060 536 1099 l 406 1060 q 494 1209 426 1153 q 649 1265 561 1265 q 772 1221 726 1265 q 817 1100 817 1176 q 814 1060 817 1074 l 694 1060 z "},"Ē":{"ha":883,"x_min":33,"x_max":901,"o":"m 599 988 q 767 969 683 988 q 901 922 851 951 l 814 776 q 706 813 768 799 q 583 826 643 826 q 463 807 517 826 q 379 755 410 788 q 349 682 349 722 q 393 610 349 636 q 508 583 438 583 l 728 583 l 699 425 l 481 425 q 303 383 375 425 q 232 274 232 342 q 287 183 232 218 q 432 149 342 149 q 586 169 501 149 q 731 221 671 190 l 775 75 q 593 10 700 35 q 385 -14 486 -14 q 206 16 286 -14 q 79 101 125 46 q 33 228 33 156 q 113 409 33 329 q 315 515 193 489 q 213 584 250 535 q 176 699 176 633 q 178 721 176 714 q 244 860 188 800 q 392 954 300 921 q 599 988 483 988 m 421 1181 l 843 1181 l 822 1065 l 400 1065 l 421 1181 z "},"Ḗ":{"ha":883,"x_min":33,"x_max":901,"o":"m 599 988 q 767 969 683 988 q 901 922 851 951 l 814 776 q 706 813 768 799 q 583 826 643 826 q 463 807 517 826 q 379 755 410 788 q 349 682 349 722 q 393 610 349 636 q 508 583 438 583 l 728 583 l 699 425 l 481 425 q 303 383 375 425 q 232 274 232 342 q 287 183 232 218 q 432 149 342 149 q 586 169 501 149 q 731 221 671 190 l 775 75 q 593 10 700 35 q 385 -14 486 -14 q 206 16 286 -14 q 79 101 125 46 q 33 228 33 156 q 113 409 33 329 q 315 515 193 489 q 213 584 250 535 q 176 699 176 633 q 178 721 176 714 q 244 860 188 800 q 392 954 300 921 q 599 988 483 988 z "},"Ḕ":{"ha":883,"x_min":33,"x_max":901,"o":"m 599 988 q 767 969 683 988 q 901 922 851 951 l 814 776 q 706 813 768 799 q 583 826 643 826 q 463 807 517 826 q 379 755 410 788 q 349 682 349 722 q 393 610 349 636 q 508 583 438 583 l 728 583 l 699 425 l 481 425 q 303 383 375 425 q 232 274 232 342 q 287 183 232 218 q 432 149 342 149 q 586 169 501 149 q 731 221 671 190 l 775 75 q 593 10 700 35 q 385 -14 486 -14 q 206 16 286 -14 q 79 101 125 46 q 33 228 33 156 q 113 409 33 329 q 315 515 193 489 q 213 584 250 535 q 176 699 176 633 q 178 721 176 714 q 244 860 188 800 q 392 954 300 921 q 599 988 483 988 z "},"Ę":{"ha":883,"x_min":33,"x_max":901,"o":"m 583 826 q 463 807 517 826 q 379 755 410 788 q 349 682 349 722 q 393 610 349 636 q 508 583 438 583 l 728 583 l 699 425 l 481 425 q 303 383 375 425 q 232 274 232 342 q 287 183 232 218 q 432 149 342 149 q 586 169 501 149 q 731 221 671 190 l 775 75 l 771 72 q 658 -43 704 21 q 611 -150 611 -107 q 640 -182 611 -182 q 685 -171 665 -182 l 701 -282 q 574 -310 629 -310 q 482 -280 515 -310 q 449 -194 449 -250 q 474 -97 449 -144 q 554 3 499 -49 q 385 -14 471 -14 q 206 16 286 -14 q 79 101 125 46 q 33 228 33 156 q 113 409 33 329 q 315 515 193 489 q 213 584 250 535 q 176 699 176 633 q 178 721 176 714 q 244 860 188 800 q 392 954 300 921 q 599 988 483 988 q 767 969 683 988 q 901 922 851 951 l 814 776 q 706 813 768 799 q 583 826 643 826 z "},"Ẽ":{"ha":883,"x_min":33,"x_max":901,"o":"m 599 988 q 767 969 683 988 q 901 922 851 951 l 814 776 q 706 813 768 799 q 583 826 643 826 q 463 807 517 826 q 379 755 410 788 q 349 682 349 722 q 393 610 349 636 q 508 583 438 583 l 728 583 l 699 425 l 481 425 q 303 383 375 425 q 232 274 232 342 q 287 183 232 218 q 432 149 342 149 q 586 169 501 149 q 731 221 671 190 l 775 75 q 593 10 700 35 q 385 -14 486 -14 q 206 16 286 -14 q 79 101 125 46 q 33 228 33 156 q 113 409 33 329 q 315 515 193 489 q 213 584 250 535 q 176 699 176 633 q 178 721 176 714 q 244 860 188 800 q 392 954 300 921 q 599 988 483 988 m 876 1249 q 719 1054 842 1054 q 666 1064 689 1054 q 604 1096 643 1074 q 549 1121 567 1121 q 515 1105 526 1121 q 497 1058 504 1089 l 382 1058 q 540 1254 417 1254 q 597 1243 571 1254 q 654 1213 624 1232 q 713 1188 694 1188 q 761 1249 751 1188 l 876 1249 z "},"F":{"ha":744,"x_min":26,"x_max":851,"o":"m 551 815 q 416 768 474 815 q 343 649 358 721 l 319 531 l 693 531 l 663 368 l 288 368 l 214 0 l 26 0 l 161 667 q 292 898 189 814 q 544 982 396 982 q 713 964 631 982 q 851 917 794 946 l 785 758 q 669 799 735 783 q 551 815 604 815 z "},"G":{"ha":1060,"x_min":69,"x_max":1015,"o":"m 833 497 l 996 497 l 899 0 l 758 0 l 772 74 q 648 9 714 32 q 517 -14 582 -14 q 287 46 389 -14 q 127 210 185 106 q 69 443 69 314 q 147 716 69 592 q 358 913 225 840 q 646 985 490 985 q 849 947 750 985 q 1015 844 947 910 l 894 707 q 775 789 844 760 q 631 818 706 818 q 447 769 532 818 q 310 638 361 721 q 260 457 260 556 q 298 303 260 372 q 403 194 336 233 q 554 154 469 154 q 677 180 615 154 q 785 250 739 206 l 833 497 z "},"Ğ":{"ha":1060,"x_min":69,"x_max":1015,"o":"m 833 497 l 996 497 l 899 0 l 758 0 l 772 74 q 648 9 714 32 q 517 -14 582 -14 q 287 46 389 -14 q 127 210 185 106 q 69 443 69 314 q 147 716 69 592 q 358 913 225 840 q 646 985 490 985 q 849 947 750 985 q 1015 844 947 910 l 894 707 q 775 789 844 760 q 631 818 706 818 q 447 769 532 818 q 310 638 361 721 q 260 457 260 556 q 298 303 260 372 q 403 194 336 233 q 554 154 469 154 q 677 180 615 154 q 785 250 739 206 l 833 497 m 575 1256 q 574 1238 574 1250 q 592 1186 574 1206 q 642 1167 611 1167 q 705 1192 676 1167 q 744 1256 733 1217 l 864 1256 q 776 1106 843 1163 q 621 1050 708 1050 q 498 1094 543 1050 q 453 1215 453 1139 q 456 1256 453 1242 l 575 1256 z "},"Ǧ":{"ha":1060,"x_min":69,"x_max":1015,"o":"m 833 497 l 996 497 l 899 0 l 758 0 l 772 74 q 648 9 714 32 q 517 -14 582 -14 q 287 46 389 -14 q 127 210 185 106 q 69 443 69 314 q 147 716 69 592 q 358 913 225 840 q 646 985 490 985 q 849 947 750 985 q 1015 844 947 910 l 894 707 q 775 789 844 760 q 631 818 706 818 q 447 769 532 818 q 310 638 361 721 q 260 457 260 556 q 298 303 260 372 q 403 194 336 233 q 554 154 469 154 q 677 180 615 154 q 785 250 739 206 l 833 497 m 733 1257 l 894 1257 l 707 1057 l 532 1057 l 421 1257 l 582 1257 l 642 1169 l 733 1257 z "},"Ĝ":{"ha":1060,"x_min":69,"x_max":1015,"o":"m 833 497 l 996 497 l 899 0 l 758 0 l 772 74 q 648 9 714 32 q 517 -14 582 -14 q 287 46 389 -14 q 127 210 185 106 q 69 443 69 314 q 147 716 69 592 q 358 913 225 840 q 646 985 490 985 q 849 947 750 985 q 1015 844 947 910 l 894 707 q 775 789 844 760 q 631 818 706 818 q 447 769 532 818 q 310 638 361 721 q 260 457 260 556 q 298 303 260 372 q 403 194 336 233 q 554 154 469 154 q 677 180 615 154 q 785 250 739 206 l 833 497 m 858 1057 l 697 1057 l 638 1144 l 546 1057 l 385 1057 l 572 1257 l 747 1257 l 858 1057 z "},"Ģ":{"ha":1060,"x_min":69,"x_max":1015,"o":"m 833 497 l 996 497 l 899 0 l 758 0 l 772 74 q 648 9 714 32 q 517 -14 582 -14 q 287 46 389 -14 q 127 210 185 106 q 69 443 69 314 q 147 716 69 592 q 358 913 225 840 q 646 985 490 985 q 849 947 750 985 q 1015 844 947 910 l 894 707 q 775 789 844 760 q 631 818 706 818 q 447 769 532 818 q 310 638 361 721 q 260 457 260 556 q 298 303 260 372 q 403 194 336 233 q 554 154 469 154 q 677 180 615 154 q 785 250 739 206 l 833 497 m 426 -82 l 588 -82 l 463 -311 l 342 -311 l 426 -82 z "},"Ġ":{"ha":1060,"x_min":69,"x_max":1015,"o":"m 833 497 l 996 497 l 899 0 l 758 0 l 772 74 q 648 9 714 32 q 517 -14 582 -14 q 287 46 389 -14 q 127 210 185 106 q 69 443 69 314 q 147 716 69 592 q 358 913 225 840 q 646 985 490 985 q 849 947 750 985 q 1015 844 947 910 l 894 707 q 775 789 844 760 q 631 818 706 818 q 447 769 532 818 q 310 638 361 721 q 260 457 260 556 q 298 303 260 372 q 403 194 336 233 q 554 154 469 154 q 677 180 615 154 q 785 250 739 206 l 833 497 m 660 1267 q 721 1242 697 1267 q 744 1178 744 1217 q 707 1088 744 1125 q 619 1051 669 1051 q 558 1076 582 1051 q 535 1140 535 1101 q 572 1230 535 1193 q 660 1267 610 1267 z "},"Ḡ":{"ha":1060,"x_min":69,"x_max":1015,"o":"m 833 497 l 996 497 l 899 0 l 758 0 l 772 74 q 648 9 714 32 q 517 -14 582 -14 q 287 46 389 -14 q 127 210 185 106 q 69 443 69 314 q 147 716 69 592 q 358 913 225 840 q 646 985 490 985 q 849 947 750 985 q 1015 844 947 910 l 894 707 q 775 789 844 760 q 631 818 706 818 q 447 769 532 818 q 310 638 361 721 q 260 457 260 556 q 298 303 260 372 q 403 194 336 233 q 554 154 469 154 q 677 180 615 154 q 785 250 739 206 l 833 497 m 431 1178 l 853 1178 l 832 1063 l 410 1063 l 431 1178 z "},"H":{"ha":1175,"x_min":85,"x_max":1138,"o":"m 950 972 l 1138 972 l 943 0 l 756 0 l 835 394 l 350 394 l 271 0 l 85 0 l 279 972 l 465 972 l 382 557 l 867 557 l 950 972 z "},"Ħ":{"ha":1188,"x_min":92,"x_max":1235,"o":"m 1235 825 l 1217 725 l 1093 725 l 949 0 l 763 0 l 842 394 l 357 394 l 278 0 l 92 0 l 236 725 l 113 725 l 132 826 l 257 826 l 286 972 l 472 972 l 443 826 l 928 825 l 957 972 l 1143 972 l 1114 825 l 1235 825 m 874 557 l 907 725 l 422 725 l 389 557 l 874 557 z "},"Ḫ":{"ha":1175,"x_min":85,"x_max":1138,"o":"m 950 972 l 1138 972 l 943 0 l 756 0 l 835 394 l 350 394 l 271 0 l 85 0 l 279 972 l 465 972 l 382 557 l 867 557 l 950 972 m 415 -74 q 414 -92 414 -79 q 433 -143 414 -124 q 482 -162 451 -162 q 545 -137 517 -162 q 585 -74 574 -112 l 704 -74 q 616 -223 683 -167 q 461 -279 549 -279 q 338 -235 383 -279 q 293 -114 293 -190 q 296 -74 293 -87 l 415 -74 z "},"Ĥ":{"ha":1175,"x_min":85,"x_max":1138,"o":"m 950 972 l 1138 972 l 943 0 l 756 0 l 835 394 l 350 394 l 271 0 l 85 0 l 279 972 l 465 972 l 382 557 l 867 557 l 950 972 m 963 1057 l 801 1057 l 742 1144 l 650 1057 l 489 1057 l 676 1257 l 851 1257 l 963 1057 z "},"Ḥ":{"ha":1175,"x_min":85,"x_max":1138,"o":"m 950 972 l 1138 972 l 943 0 l 756 0 l 835 394 l 350 394 l 271 0 l 85 0 l 279 972 l 465 972 l 382 557 l 867 557 l 950 972 m 496 -97 q 557 -122 533 -97 q 581 -186 581 -147 q 543 -276 581 -239 q 456 -312 506 -312 q 394 -287 418 -312 q 371 -224 371 -262 q 408 -134 371 -171 q 496 -97 446 -97 z "},"I":{"ha":681,"x_min":-6,"x_max":732,"o":"m 701 810 l 522 810 l 392 163 l 568 163 l 538 0 l -6 0 l 25 163 l 206 163 l 336 810 l 158 810 l 189 972 l 732 972 l 701 810 z "},"Ĳ":{"ha":1386,"x_min":-6,"x_max":1407,"o":"m 701 810 l 522 810 l 392 163 l 568 163 l 538 0 l -6 0 l 25 163 l 206 163 l 336 810 l 158 810 l 189 972 l 732 972 l 701 810 m 1407 972 l 1243 158 q 1119 -69 1214 10 q 881 -147 1024 -147 q 719 -108 789 -147 q 603 3 649 -68 l 710 132 q 795 55 747 81 q 889 29 843 29 q 999 69 954 29 q 1060 179 1044 110 l 1186 807 l 853 807 l 883 972 l 1407 972 z "},"Í":{"ha":681,"x_min":-6,"x_max":732,"o":"m 701 810 l 522 810 l 392 163 l 568 163 l 538 0 l -6 0 l 25 163 l 206 163 l 336 810 l 158 810 l 189 972 l 732 972 l 701 810 m 531 1264 l 704 1193 l 526 1050 l 386 1064 l 531 1264 z "},"Ĭ":{"ha":681,"x_min":-6,"x_max":732,"o":"m 701 810 l 522 810 l 392 163 l 568 163 l 538 0 l -6 0 l 25 163 l 206 163 l 336 810 l 158 810 l 189 972 l 732 972 l 701 810 m 432 1256 q 431 1238 431 1250 q 449 1186 431 1206 q 499 1167 468 1167 q 562 1192 533 1167 q 601 1256 590 1217 l 721 1256 q 633 1106 700 1163 q 478 1050 565 1050 q 355 1094 400 1050 q 310 1215 310 1139 q 313 1256 310 1242 l 432 1256 z "},"Î":{"ha":681,"x_min":-6,"x_max":732,"o":"m 701 810 l 522 810 l 392 163 l 568 163 l 538 0 l -6 0 l 25 163 l 206 163 l 336 810 l 158 810 l 189 972 l 732 972 l 701 810 m 715 1057 l 554 1057 l 494 1144 l 403 1057 l 242 1057 l 429 1257 l 604 1257 l 715 1057 z "},"Ȉ":{"ha":681,"x_min":-6,"x_max":732,"o":"m 701 810 l 522 810 l 392 163 l 568 163 l 538 0 l -6 0 l 25 163 l 206 163 l 336 810 l 158 810 l 189 972 l 732 972 l 701 810 m 368 1271 l 438 1061 l 304 1049 l 207 1207 l 368 1271 m 608 1271 l 678 1061 l 544 1049 l 447 1207 l 608 1271 z "},"Ï":{"ha":681,"x_min":-6,"x_max":732,"o":"m 701 810 l 522 810 l 392 163 l 568 163 l 538 0 l -6 0 l 25 163 l 206 163 l 336 810 l 158 810 l 189 972 l 732 972 l 701 810 m 386 1238 q 439 1216 419 1238 q 458 1161 458 1194 q 426 1084 458 1117 q 351 1051 394 1051 q 297 1074 318 1051 q 276 1129 276 1096 q 308 1206 276 1175 q 386 1238 340 1238 m 638 1238 q 691 1216 671 1238 q 711 1161 711 1194 q 679 1084 711 1117 q 603 1051 647 1051 q 549 1074 569 1051 q 529 1129 529 1096 q 561 1206 529 1175 q 638 1238 593 1238 z "},"Ḯ":{"ha":681,"x_min":-6,"x_max":732,"o":"m 701 810 l 522 810 l 392 163 l 568 163 l 538 0 l -6 0 l 25 163 l 206 163 l 336 810 l 158 810 l 189 972 l 732 972 l 701 810 z "},"İ":{"ha":681,"x_min":-6,"x_max":732,"o":"m 701 810 l 522 810 l 392 163 l 568 163 l 538 0 l -6 0 l 25 163 l 206 163 l 336 810 l 158 810 l 189 972 l 732 972 l 701 810 m 517 1267 q 578 1242 554 1267 q 601 1178 601 1217 q 564 1088 601 1125 q 476 1051 526 1051 q 415 1076 439 1051 q 392 1140 392 1101 q 429 1230 392 1193 q 517 1267 467 1267 z "},"Ị":{"ha":681,"x_min":-6,"x_max":732,"o":"m 701 810 l 522 810 l 392 163 l 568 163 l 538 0 l -6 0 l 25 163 l 206 163 l 336 810 l 158 810 l 189 972 l 732 972 l 701 810 m 254 -97 q 315 -122 292 -97 q 339 -186 339 -147 q 301 -276 339 -239 q 214 -312 264 -312 q 153 -287 176 -312 q 129 -224 129 -262 q 167 -134 129 -171 q 254 -97 204 -97 z "},"Ì":{"ha":681,"x_min":-6,"x_max":732,"o":"m 701 810 l 522 810 l 392 163 l 568 163 l 538 0 l -6 0 l 25 163 l 206 163 l 336 810 l 158 810 l 189 972 l 732 972 l 701 810 m 444 1264 l 585 1064 l 443 1050 l 269 1193 l 444 1264 z "},"Ỉ":{"ha":681,"x_min":-6,"x_max":732,"o":"m 701 810 l 522 810 l 392 163 l 568 163 l 538 0 l -6 0 l 25 163 l 206 163 l 336 810 l 158 810 l 189 972 l 732 972 l 701 810 m 533 1332 q 622 1306 588 1332 q 656 1233 656 1281 q 615 1132 656 1185 q 508 1031 574 1079 l 424 1071 q 483 1134 461 1101 q 506 1188 506 1167 q 497 1210 506 1201 q 472 1218 488 1218 q 419 1200 450 1218 l 382 1288 q 533 1332 456 1332 z "},"Ȋ":{"ha":681,"x_min":-6,"x_max":732,"o":"m 701 810 l 522 810 l 392 163 l 568 163 l 538 0 l -6 0 l 25 163 l 206 163 l 336 810 l 158 810 l 189 972 l 732 972 l 701 810 m 561 1057 q 563 1075 563 1063 q 544 1126 563 1107 q 494 1146 525 1146 q 431 1121 460 1146 q 392 1057 403 1096 l 272 1057 q 360 1206 293 1150 q 515 1263 428 1263 q 638 1218 593 1263 q 683 1097 683 1174 q 681 1057 683 1071 l 561 1057 z "},"Ī":{"ha":681,"x_min":-6,"x_max":732,"o":"m 701 810 l 522 810 l 392 163 l 568 163 l 538 0 l -6 0 l 25 163 l 206 163 l 336 810 l 158 810 l 189 972 l 732 972 l 701 810 m 288 1178 l 710 1178 l 689 1063 l 267 1063 l 288 1178 z "},"Į":{"ha":681,"x_min":-6,"x_max":732,"o":"m 522 810 l 392 163 l 568 163 l 538 0 l 346 0 q 232 -85 265 -51 q 199 -153 199 -119 q 229 -182 199 -182 q 275 -171 254 -182 l 292 -282 q 163 -310 221 -310 q 72 -281 106 -310 q 38 -203 38 -253 q 163 0 38 -94 l -6 0 l 25 163 l 206 163 l 336 810 l 158 810 l 189 972 l 732 972 l 701 810 l 522 810 z "},"Ĩ":{"ha":681,"x_min":-6,"x_max":743,"o":"m 701 810 l 522 810 l 392 163 l 568 163 l 538 0 l -6 0 l 25 163 l 206 163 l 336 810 l 158 810 l 189 972 l 732 972 l 701 810 m 743 1246 q 586 1051 708 1051 q 533 1061 556 1051 q 471 1093 510 1071 q 415 1118 433 1118 q 382 1102 393 1118 q 364 1056 371 1086 l 249 1056 q 407 1251 283 1251 q 464 1240 438 1251 q 521 1210 490 1229 q 579 1185 561 1185 q 628 1246 618 1185 l 743 1246 z "},"J":{"ha":706,"x_min":-78,"x_max":726,"o":"m 726 972 l 563 158 q 438 -69 533 10 q 200 -147 343 -147 q 38 -108 108 -147 q -78 3 -32 -68 l 29 132 q 115 55 67 81 q 208 29 163 29 q 319 69 274 29 q 379 179 364 110 l 506 807 l 172 807 l 203 972 l 726 972 z "},"Ĵ":{"ha":706,"x_min":-78,"x_max":733,"o":"m 726 972 l 563 158 q 438 -69 533 10 q 200 -147 343 -147 q 38 -108 108 -147 q -78 3 -32 -68 l 29 132 q 115 55 67 81 q 208 29 163 29 q 319 69 274 29 q 379 179 364 110 l 506 807 l 172 807 l 203 972 l 726 972 m 733 1057 l 572 1057 l 513 1144 l 421 1057 l 260 1057 l 447 1257 l 622 1257 l 733 1057 z "},"K":{"ha":1007,"x_min":46,"x_max":1090,"o":"m 1090 972 l 633 551 l 913 0 l 694 0 l 479 408 l 276 221 l 232 0 l 46 0 l 240 972 l 426 972 l 331 496 l 858 972 l 1090 972 z "},"Ķ":{"ha":1007,"x_min":46,"x_max":1090,"o":"m 1090 972 l 633 551 l 913 0 l 694 0 l 479 408 l 276 221 l 232 0 l 46 0 l 240 972 l 426 972 l 331 496 l 858 972 l 1090 972 m 326 -82 l 488 -82 l 363 -311 l 242 -311 l 326 -82 z "},"L":{"ha":751,"x_min":46,"x_max":682,"o":"m 264 168 l 682 168 l 650 0 l 46 0 l 240 972 l 426 972 l 264 168 z "},"Ǉ":{"ha":1457,"x_min":46,"x_max":1478,"o":"m 264 168 l 682 168 l 650 0 l 46 0 l 240 972 l 426 972 l 264 168 m 1478 972 l 1314 158 q 1190 -69 1285 10 q 951 -147 1094 -147 q 790 -108 860 -147 q 674 3 719 -68 l 781 132 q 866 55 818 81 q 960 29 914 29 q 1070 69 1025 29 q 1131 179 1115 110 l 1257 807 l 924 807 l 954 972 l 1478 972 z "},"Ĺ":{"ha":751,"x_min":46,"x_max":682,"o":"m 264 168 l 682 168 l 650 0 l 46 0 l 240 972 l 426 972 l 264 168 m 404 1264 l 578 1193 l 400 1050 l 260 1064 l 404 1264 z "},"Ľ":{"ha":751,"x_min":46,"x_max":735,"o":"m 264 168 l 682 168 l 650 0 l 46 0 l 240 972 l 426 972 l 264 168 m 575 971 l 735 971 l 638 683 l 519 683 l 575 971 z "},"Ļ":{"ha":751,"x_min":46,"x_max":682,"o":"m 264 168 l 682 168 l 650 0 l 46 0 l 240 972 l 426 972 l 264 168 m 263 -82 l 424 -82 l 299 -311 l 178 -311 l 263 -82 z "},"Ŀ":{"ha":751,"x_min":46,"x_max":696,"o":"m 264 168 l 682 168 l 650 0 l 46 0 l 240 972 l 426 972 l 264 168 m 611 651 q 672 626 649 651 q 696 563 696 601 q 658 473 696 510 q 571 436 621 436 q 510 461 533 436 q 486 525 486 486 q 524 615 486 578 q 611 651 561 651 z "},"Ḷ":{"ha":751,"x_min":46,"x_max":682,"o":"m 264 168 l 682 168 l 650 0 l 46 0 l 240 972 l 426 972 l 264 168 m 339 -97 q 400 -122 376 -97 q 424 -186 424 -147 q 386 -276 424 -239 q 299 -312 349 -312 q 238 -287 261 -312 q 214 -224 214 -262 q 251 -134 214 -171 q 339 -97 289 -97 z "},"ǈ":{"ha":1154,"x_min":46,"x_max":1164,"o":"m 264 168 l 682 168 l 650 0 l 46 0 l 240 972 l 426 972 l 264 168 m 604 -117 q 654 -125 619 -122 q 739 -92 704 -126 q 786 4 774 -57 l 933 743 l 1115 743 l 960 -39 q 867 -215 938 -154 q 690 -276 796 -276 q 551 -249 618 -276 l 604 -117 m 1079 1063 q 1140 1038 1117 1063 q 1164 974 1164 1013 q 1126 884 1164 921 q 1039 847 1089 847 q 978 872 1001 847 q 954 936 954 897 q 992 1026 954 989 q 1079 1063 1029 1063 z "},"Ḻ":{"ha":751,"x_min":46,"x_max":682,"o":"m 264 168 l 682 168 l 650 0 l 46 0 l 240 972 l 426 972 l 264 168 m 154 -111 l 517 -111 l 494 -225 l 132 -225 l 154 -111 z "},"Ł":{"ha":792,"x_min":35,"x_max":722,"o":"m 304 168 l 722 168 l 690 0 l 86 0 l 167 404 l 35 339 l 57 457 l 190 524 l 281 972 l 467 972 l 397 625 l 581 715 l 558 596 l 372 504 l 304 168 z "},"M":{"ha":1653,"x_min":46,"x_max":1613,"o":"m 1354 978 q 1543 906 1474 978 q 1613 713 1613 833 q 1603 621 1613 665 l 1479 0 l 1290 0 l 1407 575 q 1414 635 1414 610 q 1371 753 1414 710 q 1253 797 1328 797 q 1124 761 1185 797 q 1019 664 1063 725 q 961 528 976 603 l 856 0 l 667 0 l 783 575 q 790 633 790 610 q 747 753 790 708 q 628 797 703 797 q 501 763 563 797 q 397 671 440 729 q 340 542 354 613 l 232 0 l 46 0 l 240 972 l 426 972 l 396 822 q 547 937 461 896 q 731 978 633 978 q 900 924 833 978 q 983 775 967 869 q 1145 924 1049 869 q 1354 978 1242 978 z "},"Ṃ":{"ha":1653,"x_min":46,"x_max":1613,"o":"m 1354 978 q 1543 906 1474 978 q 1613 713 1613 833 q 1603 621 1613 665 l 1479 0 l 1290 0 l 1407 575 q 1414 635 1414 610 q 1371 753 1414 710 q 1253 797 1328 797 q 1124 761 1185 797 q 1019 664 1063 725 q 961 528 976 603 l 856 0 l 667 0 l 783 575 q 790 633 790 610 q 747 753 790 708 q 628 797 703 797 q 501 763 563 797 q 397 671 440 729 q 340 542 354 613 l 232 0 l 46 0 l 240 972 l 426 972 l 396 822 q 547 937 461 896 q 731 978 633 978 q 900 924 833 978 q 983 775 967 869 q 1145 924 1049 869 q 1354 978 1242 978 m 735 -97 q 796 -122 772 -97 q 819 -186 819 -147 q 782 -276 819 -239 q 694 -312 744 -312 q 633 -287 657 -312 q 610 -224 610 -262 q 647 -134 610 -171 q 735 -97 685 -97 z "},"N":{"ha":1067,"x_min":46,"x_max":1026,"o":"m 751 978 q 952 905 878 978 q 1026 708 1026 832 q 1017 621 1026 675 l 893 0 l 704 0 l 821 575 q 826 629 826 601 q 779 751 826 706 q 649 797 732 797 q 514 764 578 797 q 404 672 450 731 q 340 542 358 614 l 232 0 l 46 0 l 240 972 l 426 972 l 394 818 q 556 935 464 893 q 751 978 647 978 z "},"Ǌ":{"ha":1772,"x_min":46,"x_max":1793,"o":"m 751 978 q 952 905 878 978 q 1026 708 1026 832 q 1017 621 1026 675 l 893 0 l 704 0 l 821 575 q 826 629 826 601 q 779 751 826 706 q 649 797 732 797 q 514 764 578 797 q 404 672 450 731 q 340 542 358 614 l 232 0 l 46 0 l 240 972 l 426 972 l 394 818 q 556 935 464 893 q 751 978 647 978 m 1793 972 l 1629 158 q 1505 -69 1600 10 q 1267 -147 1410 -147 q 1105 -108 1175 -147 q 989 3 1035 -68 l 1096 132 q 1181 55 1133 81 q 1275 29 1229 29 q 1385 69 1340 29 q 1446 179 1431 110 l 1572 807 l 1239 807 l 1269 972 l 1793 972 z "},"Ń":{"ha":1067,"x_min":46,"x_max":1026,"o":"m 751 978 q 952 905 878 978 q 1026 708 1026 832 q 1017 621 1026 675 l 893 0 l 704 0 l 821 575 q 826 629 826 601 q 779 751 826 706 q 649 797 732 797 q 514 764 578 797 q 404 672 450 731 q 340 542 358 614 l 232 0 l 46 0 l 240 972 l 426 972 l 394 818 q 556 935 464 893 q 751 978 647 978 m 733 1264 l 907 1193 l 729 1050 l 589 1064 l 733 1264 z "},"Ň":{"ha":1067,"x_min":46,"x_max":1026,"o":"m 751 978 q 952 905 878 978 q 1026 708 1026 832 q 1017 621 1026 675 l 893 0 l 704 0 l 821 575 q 826 629 826 601 q 779 751 826 706 q 649 797 732 797 q 514 764 578 797 q 404 672 450 731 q 340 542 358 614 l 232 0 l 46 0 l 240 972 l 426 972 l 394 818 q 556 935 464 893 q 751 978 647 978 m 793 1257 l 954 1257 l 767 1057 l 592 1057 l 481 1257 l 642 1257 l 701 1169 l 793 1257 z "},"Ņ":{"ha":1067,"x_min":46,"x_max":1026,"o":"m 751 978 q 952 905 878 978 q 1026 708 1026 832 q 1017 621 1026 675 l 893 0 l 704 0 l 821 575 q 826 629 826 601 q 779 751 826 706 q 649 797 732 797 q 514 764 578 797 q 404 672 450 731 q 340 542 358 614 l 232 0 l 46 0 l 240 972 l 426 972 l 394 818 q 556 935 464 893 q 751 978 647 978 m 368 -82 l 529 -82 l 404 -311 l 283 -311 l 368 -82 z "},"Ṅ":{"ha":1067,"x_min":46,"x_max":1026,"o":"m 751 978 q 952 905 878 978 q 1026 708 1026 832 q 1017 621 1026 675 l 893 0 l 704 0 l 821 575 q 826 629 826 601 q 779 751 826 706 q 649 797 732 797 q 514 764 578 797 q 404 672 450 731 q 340 542 358 614 l 232 0 l 46 0 l 240 972 l 426 972 l 394 818 q 556 935 464 893 q 751 978 647 978 m 719 1267 q 781 1242 757 1267 q 804 1178 804 1217 q 767 1088 804 1125 q 679 1051 729 1051 q 618 1076 642 1051 q 594 1140 594 1101 q 632 1230 594 1193 q 719 1267 669 1267 z "},"Ṇ":{"ha":1067,"x_min":46,"x_max":1026,"o":"m 751 978 q 952 905 878 978 q 1026 708 1026 832 q 1017 621 1026 675 l 893 0 l 704 0 l 821 575 q 826 629 826 601 q 779 751 826 706 q 649 797 732 797 q 514 764 578 797 q 404 672 450 731 q 340 542 358 614 l 232 0 l 46 0 l 240 972 l 426 972 l 394 818 q 556 935 464 893 q 751 978 647 978 m 444 -97 q 506 -122 482 -97 q 529 -186 529 -147 q 492 -276 529 -239 q 404 -312 454 -312 q 343 -287 367 -312 q 319 -224 319 -262 q 357 -134 319 -171 q 444 -97 394 -97 z "},"Ŋ":{"ha":1068,"x_min":46,"x_max":1025,"o":"m 750 972 q 951 899 876 972 q 1025 701 1025 825 q 1017 617 1025 663 l 893 0 q 765 -211 865 -133 q 524 -289 665 -289 q 276 -190 364 -289 l 386 -43 q 465 -94 421 -76 q 551 -111 510 -111 q 652 -77 611 -111 q 707 19 693 -43 l 819 571 q 825 625 825 597 q 778 748 825 703 q 649 793 731 793 q 513 759 578 793 q 403 667 449 725 q 340 538 358 608 l 232 0 l 46 0 l 240 972 l 426 972 l 394 814 q 554 931 463 889 q 750 972 646 972 z "},"ǋ":{"ha":1469,"x_min":46,"x_max":1479,"o":"m 751 978 q 952 905 878 978 q 1026 708 1026 832 q 1017 621 1026 675 l 893 0 l 704 0 l 821 575 q 826 629 826 601 q 779 751 826 706 q 649 797 732 797 q 514 764 578 797 q 404 672 450 731 q 340 542 358 614 l 232 0 l 46 0 l 240 972 l 426 972 l 394 818 q 556 935 464 893 q 751 978 647 978 m 919 -117 q 969 -125 935 -122 q 1054 -92 1019 -126 q 1101 4 1089 -57 l 1249 743 l 1431 743 l 1275 -39 q 1182 -215 1253 -154 q 1006 -276 1111 -276 q 867 -249 933 -276 l 919 -117 m 1394 1063 q 1456 1038 1432 1063 q 1479 974 1479 1013 q 1442 884 1479 921 q 1354 847 1404 847 q 1293 872 1317 847 q 1269 936 1269 897 q 1307 1026 1269 989 q 1394 1063 1344 1063 z "},"Ṉ":{"ha":1067,"x_min":46,"x_max":1026,"o":"m 751 978 q 952 905 878 978 q 1026 708 1026 832 q 1017 621 1026 675 l 893 0 l 704 0 l 821 575 q 826 629 826 601 q 779 751 826 706 q 649 797 732 797 q 514 764 578 797 q 404 672 450 731 q 340 542 358 614 l 232 0 l 46 0 l 240 972 l 426 972 l 394 818 q 556 935 464 893 q 751 978 647 978 m 260 -111 l 622 -111 l 600 -225 l 238 -225 l 260 -111 z "},"Ñ":{"ha":1067,"x_min":46,"x_max":1026,"o":"m 751 978 q 952 905 878 978 q 1026 708 1026 832 q 1017 621 1026 675 l 893 0 l 704 0 l 821 575 q 826 629 826 601 q 779 751 826 706 q 649 797 732 797 q 514 764 578 797 q 404 672 450 731 q 340 542 358 614 l 232 0 l 46 0 l 240 972 l 426 972 l 394 818 q 556 935 464 893 q 751 978 647 978 m 946 1246 q 789 1051 911 1051 q 735 1061 758 1051 q 674 1093 713 1071 q 618 1118 636 1118 q 585 1102 596 1118 q 567 1056 574 1086 l 451 1056 q 610 1251 486 1251 q 667 1240 640 1251 q 724 1210 693 1229 q 782 1185 764 1185 q 831 1246 821 1185 l 946 1246 z "},"O":{"ha":1132,"x_min":69,"x_max":1111,"o":"m 640 985 q 883 926 775 985 q 1051 763 990 867 q 1111 529 1111 658 q 1033 256 1111 381 q 824 59 956 132 q 540 -14 693 -14 q 298 47 406 -14 q 130 211 190 107 q 69 444 69 315 q 147 717 69 593 q 355 913 224 842 q 640 985 486 985 m 626 818 q 446 769 531 818 q 310 638 361 721 q 260 458 260 556 q 299 304 260 374 q 407 194 339 235 q 558 154 475 154 q 735 203 653 154 q 868 335 818 251 q 918 515 918 418 q 880 669 918 600 q 775 778 842 739 q 626 818 708 818 z "},"Ó":{"ha":1132,"x_min":69,"x_max":1111,"o":"m 640 985 q 883 926 775 985 q 1051 763 990 867 q 1111 529 1111 658 q 1033 256 1111 381 q 824 59 956 132 q 540 -14 693 -14 q 298 47 406 -14 q 130 211 190 107 q 69 444 69 315 q 147 717 69 593 q 355 913 224 842 q 640 985 486 985 m 626 818 q 446 769 531 818 q 310 638 361 721 q 260 458 260 556 q 299 304 260 374 q 407 194 339 235 q 558 154 475 154 q 735 203 653 154 q 868 335 818 251 q 918 515 918 418 q 880 669 918 600 q 775 778 842 739 q 626 818 708 818 m 708 1264 l 882 1193 l 704 1050 l 564 1064 l 708 1264 z "},"Ŏ":{"ha":1132,"x_min":69,"x_max":1111,"o":"m 640 985 q 883 926 775 985 q 1051 763 990 867 q 1111 529 1111 658 q 1033 256 1111 381 q 824 59 956 132 q 540 -14 693 -14 q 298 47 406 -14 q 130 211 190 107 q 69 444 69 315 q 147 717 69 593 q 355 913 224 842 q 640 985 486 985 m 626 818 q 446 769 531 818 q 310 638 361 721 q 260 458 260 556 q 299 304 260 374 q 407 194 339 235 q 558 154 475 154 q 735 203 653 154 q 868 335 818 251 q 918 515 918 418 q 880 669 918 600 q 775 778 842 739 q 626 818 708 818 m 610 1256 q 608 1238 608 1250 q 627 1186 608 1206 q 676 1167 646 1167 q 740 1192 711 1167 q 779 1256 768 1217 l 899 1256 q 810 1106 878 1163 q 656 1050 743 1050 q 533 1094 578 1050 q 488 1215 488 1139 q 490 1256 488 1242 l 610 1256 z "},"Ô":{"ha":1132,"x_min":69,"x_max":1111,"o":"m 640 985 q 883 926 775 985 q 1051 763 990 867 q 1111 529 1111 658 q 1033 256 1111 381 q 824 59 956 132 q 540 -14 693 -14 q 298 47 406 -14 q 130 211 190 107 q 69 444 69 315 q 147 717 69 593 q 355 913 224 842 q 640 985 486 985 m 626 818 q 446 769 531 818 q 310 638 361 721 q 260 458 260 556 q 299 304 260 374 q 407 194 339 235 q 558 154 475 154 q 735 203 653 154 q 868 335 818 251 q 918 515 918 418 q 880 669 918 600 q 775 778 842 739 q 626 818 708 818 m 893 1057 l 732 1057 l 672 1144 l 581 1057 l 419 1057 l 607 1257 l 782 1257 l 893 1057 z "},"Ố":{"ha":1132,"x_min":69,"x_max":1111,"o":"m 640 985 q 883 926 775 985 q 1051 763 990 867 q 1111 529 1111 658 q 1033 256 1111 381 q 824 59 956 132 q 540 -14 693 -14 q 298 47 406 -14 q 130 211 190 107 q 69 444 69 315 q 147 717 69 593 q 355 913 224 842 q 640 985 486 985 m 626 818 q 446 769 531 818 q 310 638 361 721 q 260 458 260 556 q 299 304 260 374 q 407 194 339 235 q 558 154 475 154 q 735 203 653 154 q 868 335 818 251 q 918 515 918 418 q 880 669 918 600 q 775 778 842 739 q 626 818 708 818 m 922 1044 l 746 1044 l 674 1118 l 574 1044 l 394 1044 l 574 1194 l 796 1194 l 922 1044 m 760 1436 l 904 1343 l 706 1235 l 582 1271 l 760 1436 z "},"Ộ":{"ha":1132,"x_min":69,"x_max":1111,"o":"m 640 985 q 883 926 775 985 q 1051 763 990 867 q 1111 529 1111 658 q 1033 256 1111 381 q 824 59 956 132 q 540 -14 693 -14 q 298 47 406 -14 q 130 211 190 107 q 69 444 69 315 q 147 717 69 593 q 355 913 224 842 q 640 985 486 985 m 626 818 q 446 769 531 818 q 310 638 361 721 q 260 458 260 556 q 299 304 260 374 q 407 194 339 235 q 558 154 475 154 q 735 203 653 154 q 868 335 818 251 q 918 515 918 418 q 880 669 918 600 q 775 778 842 739 q 626 818 708 818 m 529 -97 q 590 -122 567 -97 q 614 -186 614 -147 q 576 -276 614 -239 q 489 -312 539 -312 q 428 -287 451 -312 q 404 -224 404 -262 q 442 -134 404 -171 q 529 -97 479 -97 m 960 1057 l 799 1057 l 739 1144 l 647 1057 l 486 1057 l 674 1257 l 849 1257 l 960 1057 z "},"Ồ":{"ha":1132,"x_min":69,"x_max":1111,"o":"m 640 985 q 883 926 775 985 q 1051 763 990 867 q 1111 529 1111 658 q 1033 256 1111 381 q 824 59 956 132 q 540 -14 693 -14 q 298 47 406 -14 q 130 211 190 107 q 69 444 69 315 q 147 717 69 593 q 355 913 224 842 q 640 985 486 985 m 626 818 q 446 769 531 818 q 310 638 361 721 q 260 458 260 556 q 299 304 260 374 q 407 194 339 235 q 558 154 475 154 q 735 203 653 154 q 868 335 818 251 q 918 515 918 418 q 880 669 918 600 q 775 778 842 739 q 626 818 708 818 m 918 1044 l 742 1044 l 669 1118 l 569 1044 l 390 1044 l 569 1194 l 792 1194 l 918 1044 m 613 1436 l 792 1271 l 668 1235 l 468 1343 l 613 1436 z "},"Ổ":{"ha":1132,"x_min":69,"x_max":1111,"o":"m 640 985 q 883 926 775 985 q 1051 763 990 867 q 1111 529 1111 658 q 1033 256 1111 381 q 824 59 956 132 q 540 -14 693 -14 q 298 47 406 -14 q 130 211 190 107 q 69 444 69 315 q 147 717 69 593 q 355 913 224 842 q 640 985 486 985 m 626 818 q 446 769 531 818 q 310 638 361 721 q 260 458 260 556 q 299 304 260 374 q 407 194 339 235 q 558 154 475 154 q 735 203 653 154 q 868 335 818 251 q 918 515 918 418 q 880 669 918 600 q 775 778 842 739 q 626 818 708 818 m 894 1046 l 718 1046 l 646 1119 l 546 1046 l 367 1046 l 546 1196 l 768 1196 l 894 1046 m 700 1467 q 779 1444 750 1467 q 808 1386 808 1421 q 683 1233 808 1314 l 606 1268 q 653 1308 636 1288 q 671 1343 671 1328 q 643 1364 671 1364 q 599 1351 618 1364 l 563 1425 q 700 1467 631 1467 z "},"Ỗ":{"ha":1132,"x_min":69,"x_max":1111,"o":"m 640 985 q 883 926 775 985 q 1051 763 990 867 q 1111 529 1111 658 q 1033 256 1111 381 q 824 59 956 132 q 540 -14 693 -14 q 298 47 406 -14 q 130 211 190 107 q 69 444 69 315 q 147 717 69 593 q 355 913 224 842 q 640 985 486 985 m 626 818 q 446 769 531 818 q 310 638 361 721 q 260 458 260 556 q 299 304 260 374 q 407 194 339 235 q 558 154 475 154 q 735 203 653 154 q 868 335 818 251 q 918 515 918 418 q 880 669 918 600 q 775 778 842 739 q 626 818 708 818 m 939 1046 l 763 1046 l 690 1119 l 590 1046 l 411 1046 l 590 1196 l 813 1196 l 939 1046 m 967 1415 q 915 1292 953 1336 q 815 1247 878 1247 q 756 1258 783 1247 q 694 1286 729 1268 q 661 1303 678 1296 q 632 1310 644 1310 q 595 1295 607 1310 q 578 1251 583 1281 l 482 1251 q 633 1421 513 1421 q 693 1410 665 1421 q 753 1382 721 1400 q 772 1372 757 1379 q 797 1362 786 1365 q 817 1358 807 1358 q 852 1373 840 1358 q 869 1415 864 1388 l 967 1415 z "},"Ȍ":{"ha":1132,"x_min":69,"x_max":1111,"o":"m 640 985 q 883 926 775 985 q 1051 763 990 867 q 1111 529 1111 658 q 1033 256 1111 381 q 824 59 956 132 q 540 -14 693 -14 q 298 47 406 -14 q 130 211 190 107 q 69 444 69 315 q 147 717 69 593 q 355 913 224 842 q 640 985 486 985 m 626 818 q 446 769 531 818 q 310 638 361 721 q 260 458 260 556 q 299 304 260 374 q 407 194 339 235 q 558 154 475 154 q 735 203 653 154 q 868 335 818 251 q 918 515 918 418 q 880 669 918 600 q 775 778 842 739 q 626 818 708 818 m 546 1271 l 615 1061 l 482 1049 l 385 1207 l 546 1271 m 786 1271 l 856 1061 l 722 1049 l 625 1207 l 786 1271 z "},"Ö":{"ha":1132,"x_min":69,"x_max":1111,"o":"m 640 985 q 883 926 775 985 q 1051 763 990 867 q 1111 529 1111 658 q 1033 256 1111 381 q 824 59 956 132 q 540 -14 693 -14 q 298 47 406 -14 q 130 211 190 107 q 69 444 69 315 q 147 717 69 593 q 355 913 224 842 q 640 985 486 985 m 626 818 q 446 769 531 818 q 310 638 361 721 q 260 458 260 556 q 299 304 260 374 q 407 194 339 235 q 558 154 475 154 q 735 203 653 154 q 868 335 818 251 q 918 515 918 418 q 880 669 918 600 q 775 778 842 739 q 626 818 708 818 m 564 1238 q 617 1216 597 1238 q 636 1161 636 1194 q 604 1084 636 1117 q 529 1051 572 1051 q 475 1074 496 1051 q 454 1129 454 1096 q 486 1206 454 1175 q 564 1238 518 1238 m 815 1238 q 869 1216 849 1238 q 889 1161 889 1194 q 857 1084 889 1117 q 781 1051 825 1051 q 727 1074 747 1051 q 707 1129 707 1096 q 739 1206 707 1175 q 815 1238 771 1238 z "},"Ȫ":{"ha":1132,"x_min":69,"x_max":1111,"o":"m 640 985 q 883 926 775 985 q 1051 763 990 867 q 1111 529 1111 658 q 1033 256 1111 381 q 824 59 956 132 q 540 -14 693 -14 q 298 47 406 -14 q 130 211 190 107 q 69 444 69 315 q 147 717 69 593 q 355 913 224 842 q 640 985 486 985 m 626 818 q 446 769 531 818 q 310 638 361 721 q 260 458 260 556 q 299 304 260 374 q 407 194 339 235 q 558 154 475 154 q 735 203 653 154 q 868 335 818 251 q 918 515 918 418 q 880 669 918 600 q 775 778 842 739 q 626 818 708 818 z "},"Ȱ":{"ha":1132,"x_min":69,"x_max":1111,"o":"m 640 985 q 883 926 775 985 q 1051 763 990 867 q 1111 529 1111 658 q 1033 256 1111 381 q 824 59 956 132 q 540 -14 693 -14 q 298 47 406 -14 q 130 211 190 107 q 69 444 69 315 q 147 717 69 593 q 355 913 224 842 q 640 985 486 985 m 626 818 q 446 769 531 818 q 310 638 361 721 q 260 458 260 556 q 299 304 260 374 q 407 194 339 235 q 558 154 475 154 q 735 203 653 154 q 868 335 818 251 q 918 515 918 418 q 880 669 918 600 q 775 778 842 739 q 626 818 708 818 z "},"Ọ":{"ha":1132,"x_min":69,"x_max":1111,"o":"m 640 985 q 883 926 775 985 q 1051 763 990 867 q 1111 529 1111 658 q 1033 256 1111 381 q 824 59 956 132 q 540 -14 693 -14 q 298 47 406 -14 q 130 211 190 107 q 69 444 69 315 q 147 717 69 593 q 355 913 224 842 q 640 985 486 985 m 626 818 q 446 769 531 818 q 310 638 361 721 q 260 458 260 556 q 299 304 260 374 q 407 194 339 235 q 558 154 475 154 q 735 203 653 154 q 868 335 818 251 q 918 515 918 418 q 880 669 918 600 q 775 778 842 739 q 626 818 708 818 m 529 -97 q 590 -122 567 -97 q 614 -186 614 -147 q 576 -276 614 -239 q 489 -312 539 -312 q 428 -287 451 -312 q 404 -224 404 -262 q 442 -134 404 -171 q 529 -97 479 -97 z "},"Ò":{"ha":1132,"x_min":69,"x_max":1111,"o":"m 640 985 q 883 926 775 985 q 1051 763 990 867 q 1111 529 1111 658 q 1033 256 1111 381 q 824 59 956 132 q 540 -14 693 -14 q 298 47 406 -14 q 130 211 190 107 q 69 444 69 315 q 147 717 69 593 q 355 913 224 842 q 640 985 486 985 m 626 818 q 446 769 531 818 q 310 638 361 721 q 260 458 260 556 q 299 304 260 374 q 407 194 339 235 q 558 154 475 154 q 735 203 653 154 q 868 335 818 251 q 918 515 918 418 q 880 669 918 600 q 775 778 842 739 q 626 818 708 818 m 622 1264 l 763 1064 l 621 1050 l 447 1193 l 622 1264 z "},"Ỏ":{"ha":1132,"x_min":69,"x_max":1111,"o":"m 640 985 q 883 926 775 985 q 1051 763 990 867 q 1111 529 1111 658 q 1033 256 1111 381 q 824 59 956 132 q 540 -14 693 -14 q 298 47 406 -14 q 130 211 190 107 q 69 444 69 315 q 147 717 69 593 q 355 913 224 842 q 640 985 486 985 m 626 818 q 446 769 531 818 q 310 638 361 721 q 260 458 260 556 q 299 304 260 374 q 407 194 339 235 q 558 154 475 154 q 735 203 653 154 q 868 335 818 251 q 918 515 918 418 q 880 669 918 600 q 775 778 842 739 q 626 818 708 818 m 711 1332 q 799 1306 765 1332 q 833 1233 833 1281 q 792 1132 833 1185 q 686 1031 751 1079 l 601 1071 q 661 1134 639 1101 q 683 1188 683 1167 q 674 1210 683 1201 q 650 1218 665 1218 q 597 1200 628 1218 l 560 1288 q 711 1332 633 1332 z "},"Ơ":{"ha":1182,"x_min":69,"x_max":1172,"o":"m 1154 1168 q 1172 1064 1172 1115 q 1126 919 1172 981 q 1000 832 1079 858 q 1083 695 1054 772 q 1111 529 1111 618 q 1033 256 1111 381 q 824 59 956 132 q 540 -14 693 -14 q 298 47 406 -14 q 130 211 190 107 q 69 444 69 315 q 147 717 69 593 q 355 913 224 842 q 640 985 486 985 q 863 936 758 985 q 908 928 883 928 q 987 965 957 928 q 1017 1051 1017 1001 q 1001 1117 1017 1083 l 1154 1168 m 558 154 q 735 203 653 154 q 868 335 818 251 q 918 515 918 418 q 880 669 918 600 q 775 778 842 739 q 626 818 708 818 q 446 769 531 818 q 310 638 361 721 q 260 458 260 556 q 299 304 260 374 q 407 194 339 235 q 558 154 475 154 z "},"Ớ":{"ha":1182,"x_min":69,"x_max":1172,"o":"m 1154 1168 q 1172 1064 1172 1115 q 1126 919 1172 981 q 1000 832 1079 858 q 1083 695 1054 772 q 1111 529 1111 618 q 1033 256 1111 381 q 824 59 956 132 q 540 -14 693 -14 q 298 47 406 -14 q 130 211 190 107 q 69 444 69 315 q 147 717 69 593 q 355 913 224 842 q 640 985 486 985 q 863 936 758 985 q 908 928 883 928 q 987 965 957 928 q 1017 1051 1017 1001 q 1001 1117 1017 1083 l 1154 1168 m 558 154 q 735 203 653 154 q 868 335 818 251 q 918 515 918 418 q 880 669 918 600 q 775 778 842 739 q 626 818 708 818 q 446 769 531 818 q 310 638 361 721 q 260 458 260 556 q 299 304 260 374 q 407 194 339 235 q 558 154 475 154 m 708 1264 l 882 1193 l 704 1050 l 564 1064 l 708 1264 z "},"Ợ":{"ha":1182,"x_min":69,"x_max":1172,"o":"m 1154 1168 q 1172 1064 1172 1115 q 1126 919 1172 981 q 1000 832 1079 858 q 1083 695 1054 772 q 1111 529 1111 618 q 1033 256 1111 381 q 824 59 956 132 q 540 -14 693 -14 q 298 47 406 -14 q 130 211 190 107 q 69 444 69 315 q 147 717 69 593 q 355 913 224 842 q 640 985 486 985 q 863 936 758 985 q 908 928 883 928 q 987 965 957 928 q 1017 1051 1017 1001 q 1001 1117 1017 1083 l 1154 1168 m 558 154 q 735 203 653 154 q 868 335 818 251 q 918 515 918 418 q 880 669 918 600 q 775 778 842 739 q 626 818 708 818 q 446 769 531 818 q 310 638 361 721 q 260 458 260 556 q 299 304 260 374 q 407 194 339 235 q 558 154 475 154 m 529 -97 q 590 -122 567 -97 q 614 -186 614 -147 q 576 -276 614 -239 q 489 -312 539 -312 q 428 -287 451 -312 q 404 -224 404 -262 q 442 -134 404 -171 q 529 -97 479 -97 z "},"Ờ":{"ha":1182,"x_min":69,"x_max":1172,"o":"m 1154 1168 q 1172 1064 1172 1115 q 1126 919 1172 981 q 1000 832 1079 858 q 1083 695 1054 772 q 1111 529 1111 618 q 1033 256 1111 381 q 824 59 956 132 q 540 -14 693 -14 q 298 47 406 -14 q 130 211 190 107 q 69 444 69 315 q 147 717 69 593 q 355 913 224 842 q 640 985 486 985 q 863 936 758 985 q 908 928 883 928 q 987 965 957 928 q 1017 1051 1017 1001 q 1001 1117 1017 1083 l 1154 1168 m 558 154 q 735 203 653 154 q 868 335 818 251 q 918 515 918 418 q 880 669 918 600 q 775 778 842 739 q 626 818 708 818 q 446 769 531 818 q 310 638 361 721 q 260 458 260 556 q 299 304 260 374 q 407 194 339 235 q 558 154 475 154 m 621 1264 l 761 1064 l 619 1050 l 446 1193 l 621 1264 z "},"Ở":{"ha":1182,"x_min":69,"x_max":1172,"o":"m 1154 1168 q 1172 1064 1172 1115 q 1126 919 1172 981 q 1000 832 1079 858 q 1083 695 1054 772 q 1111 529 1111 618 q 1033 256 1111 381 q 824 59 956 132 q 540 -14 693 -14 q 298 47 406 -14 q 130 211 190 107 q 69 444 69 315 q 147 717 69 593 q 355 913 224 842 q 640 985 486 985 q 863 936 758 985 q 908 928 883 928 q 987 965 957 928 q 1017 1051 1017 1001 q 1001 1117 1017 1083 l 1154 1168 m 558 154 q 735 203 653 154 q 868 335 818 251 q 918 515 918 418 q 880 669 918 600 q 775 778 842 739 q 626 818 708 818 q 446 769 531 818 q 310 638 361 721 q 260 458 260 556 q 299 304 260 374 q 407 194 339 235 q 558 154 475 154 m 711 1332 q 799 1306 765 1332 q 833 1233 833 1281 q 792 1132 833 1185 q 686 1031 751 1079 l 601 1071 q 661 1134 639 1101 q 683 1188 683 1167 q 674 1210 683 1201 q 650 1218 665 1218 q 597 1200 628 1218 l 560 1288 q 711 1332 633 1332 z "},"Ỡ":{"ha":1182,"x_min":69,"x_max":1172,"o":"m 1154 1168 q 1172 1064 1172 1115 q 1126 919 1172 981 q 1000 832 1079 858 q 1083 695 1054 772 q 1111 529 1111 618 q 1033 256 1111 381 q 824 59 956 132 q 540 -14 693 -14 q 298 47 406 -14 q 130 211 190 107 q 69 444 69 315 q 147 717 69 593 q 355 913 224 842 q 640 985 486 985 q 863 936 758 985 q 908 928 883 928 q 987 965 957 928 q 1017 1051 1017 1001 q 1001 1117 1017 1083 l 1154 1168 m 558 154 q 735 203 653 154 q 868 335 818 251 q 918 515 918 418 q 880 669 918 600 q 775 778 842 739 q 626 818 708 818 q 446 769 531 818 q 310 638 361 721 q 260 458 260 556 q 299 304 260 374 q 407 194 339 235 q 558 154 475 154 m 921 1246 q 764 1051 886 1051 q 710 1061 733 1051 q 649 1093 688 1071 q 593 1118 611 1118 q 560 1102 571 1118 q 542 1056 549 1086 l 426 1056 q 585 1251 461 1251 q 642 1240 615 1251 q 699 1210 668 1229 q 757 1185 739 1185 q 806 1246 796 1185 l 921 1246 z "},"Ő":{"ha":1132,"x_min":69,"x_max":1111,"o":"m 640 985 q 883 926 775 985 q 1051 763 990 867 q 1111 529 1111 658 q 1033 256 1111 381 q 824 59 956 132 q 540 -14 693 -14 q 298 47 406 -14 q 130 211 190 107 q 69 444 69 315 q 147 717 69 593 q 355 913 224 842 q 640 985 486 985 m 626 818 q 446 769 531 818 q 310 638 361 721 q 260 458 260 556 q 299 304 260 374 q 407 194 339 235 q 558 154 475 154 q 735 203 653 154 q 868 335 818 251 q 918 515 918 418 q 880 669 918 600 q 775 778 842 739 q 626 818 708 818 m 567 1272 l 703 1208 l 572 1050 l 444 1063 l 567 1272 m 807 1272 l 943 1208 l 813 1050 l 685 1063 l 807 1272 z "},"Ȏ":{"ha":1132,"x_min":69,"x_max":1111,"o":"m 640 985 q 883 926 775 985 q 1051 763 990 867 q 1111 529 1111 658 q 1033 256 1111 381 q 824 59 956 132 q 540 -14 693 -14 q 298 47 406 -14 q 130 211 190 107 q 69 444 69 315 q 147 717 69 593 q 355 913 224 842 q 640 985 486 985 m 626 818 q 446 769 531 818 q 310 638 361 721 q 260 458 260 556 q 299 304 260 374 q 407 194 339 235 q 558 154 475 154 q 735 203 653 154 q 868 335 818 251 q 918 515 918 418 q 880 669 918 600 q 775 778 842 739 q 626 818 708 818 m 739 1057 q 740 1075 740 1063 q 722 1126 740 1107 q 672 1146 703 1146 q 609 1121 638 1146 q 569 1057 581 1096 l 450 1057 q 538 1206 471 1150 q 693 1263 606 1263 q 816 1218 771 1263 q 861 1097 861 1174 q 858 1057 861 1071 l 739 1057 z "},"Ō":{"ha":1132,"x_min":69,"x_max":1111,"o":"m 640 985 q 883 926 775 985 q 1051 763 990 867 q 1111 529 1111 658 q 1033 256 1111 381 q 824 59 956 132 q 540 -14 693 -14 q 298 47 406 -14 q 130 211 190 107 q 69 444 69 315 q 147 717 69 593 q 355 913 224 842 q 640 985 486 985 m 626 818 q 446 769 531 818 q 310 638 361 721 q 260 458 260 556 q 299 304 260 374 q 407 194 339 235 q 558 154 475 154 q 735 203 653 154 q 868 335 818 251 q 918 515 918 418 q 880 669 918 600 q 775 778 842 739 q 626 818 708 818 m 465 1178 l 888 1178 l 867 1063 l 444 1063 l 465 1178 z "},"Ṓ":{"ha":1132,"x_min":69,"x_max":1111,"o":"m 640 985 q 883 926 775 985 q 1051 763 990 867 q 1111 529 1111 658 q 1033 256 1111 381 q 824 59 956 132 q 540 -14 693 -14 q 298 47 406 -14 q 130 211 190 107 q 69 444 69 315 q 147 717 69 593 q 355 913 224 842 q 640 985 486 985 m 626 818 q 446 769 531 818 q 310 638 361 721 q 260 458 260 556 q 299 304 260 374 q 407 194 339 235 q 558 154 475 154 q 735 203 653 154 q 868 335 818 251 q 918 515 918 418 q 880 669 918 600 q 775 778 842 739 q 626 818 708 818 m 488 1172 l 854 1172 l 833 1060 l 467 1060 l 488 1172 m 749 1431 l 893 1338 l 694 1229 l 571 1265 l 749 1431 z "},"Ṑ":{"ha":1132,"x_min":69,"x_max":1111,"o":"m 640 985 q 883 926 775 985 q 1051 763 990 867 q 1111 529 1111 658 q 1033 256 1111 381 q 824 59 956 132 q 540 -14 693 -14 q 298 47 406 -14 q 130 211 190 107 q 69 444 69 315 q 147 717 69 593 q 355 913 224 842 q 640 985 486 985 m 626 818 q 446 769 531 818 q 310 638 361 721 q 260 458 260 556 q 299 304 260 374 q 407 194 339 235 q 558 154 475 154 q 735 203 653 154 q 868 335 818 251 q 918 515 918 418 q 880 669 918 600 q 775 778 842 739 q 626 818 708 818 m 496 1172 l 863 1172 l 842 1060 l 475 1060 l 496 1172 m 614 1431 l 793 1265 l 669 1229 l 469 1338 l 614 1431 z "},"Ǫ":{"ha":1132,"x_min":69,"x_max":1111,"o":"m 1111 529 q 1034 256 1111 381 q 828 60 957 132 q 725 -50 767 10 q 683 -150 683 -110 q 713 -182 683 -182 q 757 -171 738 -182 l 774 -282 q 646 -310 701 -310 q 554 -280 588 -310 q 521 -194 521 -250 q 614 -10 521 -99 q 540 -14 579 -14 q 298 47 406 -14 q 130 211 190 107 q 69 444 69 315 q 147 717 69 593 q 355 913 224 842 q 640 985 486 985 q 883 926 775 985 q 1051 763 990 867 q 1111 529 1111 658 m 558 154 q 735 203 653 154 q 868 335 818 251 q 918 515 918 418 q 880 669 918 600 q 775 778 842 739 q 626 818 708 818 q 446 769 531 818 q 310 638 361 721 q 260 458 260 556 q 299 304 260 374 q 407 194 339 235 q 558 154 475 154 z "},"Ø":{"ha":1132,"x_min":69,"x_max":1111,"o":"m 942 888 q 1067 732 1022 825 q 1111 529 1111 639 q 1033 256 1111 381 q 824 59 956 132 q 540 -14 693 -14 q 304 43 411 -14 l 214 -76 l 71 -76 l 211 110 q 106 258 143 172 q 69 444 69 344 q 147 717 69 593 q 355 913 224 842 q 640 985 486 985 q 840 946 747 985 l 918 1049 l 1063 1049 l 942 888 m 260 458 q 326 264 260 349 l 731 800 q 626 818 679 818 q 446 769 531 818 q 310 638 361 721 q 260 458 260 556 m 558 154 q 735 203 653 154 q 868 335 818 251 q 918 515 918 418 q 894 639 918 582 q 828 738 871 696 l 415 190 q 558 154 479 154 z "},"Ǿ":{"ha":1132,"x_min":69,"x_max":1111,"o":"m 942 888 q 1067 732 1022 825 q 1111 529 1111 639 q 1033 256 1111 381 q 824 59 956 132 q 540 -14 693 -14 q 304 43 411 -14 l 214 -76 l 71 -76 l 211 110 q 106 258 143 172 q 69 444 69 344 q 147 717 69 593 q 355 913 224 842 q 640 985 486 985 q 840 946 747 985 l 918 1049 l 1063 1049 l 942 888 m 260 458 q 326 264 260 349 l 731 800 q 626 818 679 818 q 446 769 531 818 q 310 638 361 721 q 260 458 260 556 m 558 154 q 735 203 653 154 q 868 335 818 251 q 918 515 918 418 q 894 639 918 582 q 828 738 871 696 l 415 190 q 558 154 479 154 m 747 1264 l 921 1193 l 743 1050 l 603 1064 l 747 1264 z "},"Õ":{"ha":1132,"x_min":69,"x_max":1111,"o":"m 640 985 q 883 926 775 985 q 1051 763 990 867 q 1111 529 1111 658 q 1033 256 1111 381 q 824 59 956 132 q 540 -14 693 -14 q 298 47 406 -14 q 130 211 190 107 q 69 444 69 315 q 147 717 69 593 q 355 913 224 842 q 640 985 486 985 m 626 818 q 446 769 531 818 q 310 638 361 721 q 260 458 260 556 q 299 304 260 374 q 407 194 339 235 q 558 154 475 154 q 735 203 653 154 q 868 335 818 251 q 918 515 918 418 q 880 669 918 600 q 775 778 842 739 q 626 818 708 818 m 921 1246 q 764 1051 886 1051 q 710 1061 733 1051 q 649 1093 688 1071 q 593 1118 611 1118 q 560 1102 571 1118 q 542 1056 549 1086 l 426 1056 q 585 1251 461 1251 q 642 1240 615 1251 q 699 1210 668 1229 q 757 1185 739 1185 q 806 1246 796 1185 l 921 1246 z "},"Ṍ":{"ha":1132,"x_min":69,"x_max":1111,"o":"m 640 985 q 883 926 775 985 q 1051 763 990 867 q 1111 529 1111 658 q 1033 256 1111 381 q 824 59 956 132 q 540 -14 693 -14 q 298 47 406 -14 q 130 211 190 107 q 69 444 69 315 q 147 717 69 593 q 355 913 224 842 q 640 985 486 985 m 626 818 q 446 769 531 818 q 310 638 361 721 q 260 458 260 556 q 299 304 260 374 q 407 194 339 235 q 558 154 475 154 q 735 203 653 154 q 868 335 818 251 q 918 515 918 418 q 880 669 918 600 q 775 778 842 739 q 626 818 708 818 z "},"Ṏ":{"ha":1132,"x_min":69,"x_max":1111,"o":"m 640 985 q 883 926 775 985 q 1051 763 990 867 q 1111 529 1111 658 q 1033 256 1111 381 q 824 59 956 132 q 540 -14 693 -14 q 298 47 406 -14 q 130 211 190 107 q 69 444 69 315 q 147 717 69 593 q 355 913 224 842 q 640 985 486 985 m 626 818 q 446 769 531 818 q 310 638 361 721 q 260 458 260 556 q 299 304 260 374 q 407 194 339 235 q 558 154 475 154 q 735 203 653 154 q 868 335 818 251 q 918 515 918 418 q 880 669 918 600 q 775 778 842 739 q 626 818 708 818 z "},"Ȭ":{"ha":1132,"x_min":69,"x_max":1111,"o":"m 640 985 q 883 926 775 985 q 1051 763 990 867 q 1111 529 1111 658 q 1033 256 1111 381 q 824 59 956 132 q 540 -14 693 -14 q 298 47 406 -14 q 130 211 190 107 q 69 444 69 315 q 147 717 69 593 q 355 913 224 842 q 640 985 486 985 m 626 818 q 446 769 531 818 q 310 638 361 721 q 260 458 260 556 q 299 304 260 374 q 407 194 339 235 q 558 154 475 154 q 735 203 653 154 q 868 335 818 251 q 918 515 918 418 q 880 669 918 600 q 775 778 842 739 q 626 818 708 818 z "},"Œ":{"ha":1536,"x_min":69,"x_max":1572,"o":"m 1014 810 l 965 569 l 1436 569 l 1406 407 l 932 407 l 882 163 l 1424 163 l 1393 0 l 542 0 q 301 59 408 0 q 131 222 193 118 q 69 456 69 326 q 147 716 69 597 q 354 903 224 835 q 639 972 485 972 l 1572 972 l 1540 810 l 1014 810 m 697 164 l 825 806 l 625 806 q 444 760 528 806 q 310 636 360 714 q 261 464 261 558 q 299 310 261 379 q 406 203 338 242 q 558 164 474 164 l 697 164 z "},"P":{"ha":956,"x_min":46,"x_max":965,"o":"m 638 972 q 881 903 796 972 q 965 704 965 833 q 909 485 965 579 q 748 338 853 390 q 501 286 643 286 l 289 286 l 232 0 l 46 0 l 240 972 l 638 972 m 524 450 q 715 507 647 450 q 783 669 783 564 q 735 774 783 739 q 599 810 688 810 l 393 810 l 321 450 l 524 450 z "},"Þ":{"ha":965,"x_min":46,"x_max":947,"o":"m 594 838 q 856 767 765 838 q 947 571 947 697 q 889 357 947 449 q 721 215 831 265 q 460 165 611 165 l 265 165 l 232 0 l 46 0 l 240 972 l 426 972 l 400 838 l 594 838 m 481 319 q 683 378 613 319 q 753 542 753 438 q 703 648 753 611 q 558 685 654 685 l 369 685 l 296 319 l 481 319 z "},"Q":{"ha":1132,"x_min":69,"x_max":1111,"o":"m 1111 529 q 1041 269 1111 389 q 851 74 971 149 q 588 -12 732 -1 l 557 -172 l 408 -172 l 442 -6 q 247 78 332 15 q 116 237 163 142 q 69 444 69 332 q 147 717 69 593 q 355 913 224 842 q 640 985 486 985 q 883 926 775 985 q 1051 763 990 867 q 1111 529 1111 658 m 622 160 q 771 226 703 175 q 878 353 839 276 q 918 515 918 429 q 880 669 918 600 q 775 778 842 739 q 626 818 708 818 q 446 769 531 818 q 310 638 361 721 q 260 458 260 556 q 319 273 260 353 q 475 165 379 193 l 518 385 l 665 385 l 622 160 z "},"R":{"ha":1004,"x_min":46,"x_max":982,"o":"m 982 703 q 913 465 982 565 q 718 319 843 365 l 865 0 l 654 0 l 544 288 q 510 286 533 286 l 289 286 l 232 0 l 46 0 l 240 972 l 646 972 q 895 902 808 972 q 982 703 982 832 m 540 450 q 732 507 664 450 q 800 669 800 564 q 752 774 800 739 q 614 810 704 810 l 393 810 l 321 450 l 540 450 z "},"Ŕ":{"ha":1004,"x_min":46,"x_max":982,"o":"m 982 703 q 913 465 982 565 q 718 319 843 365 l 865 0 l 654 0 l 544 288 q 510 286 533 286 l 289 286 l 232 0 l 46 0 l 240 972 l 646 972 q 895 902 808 972 q 982 703 982 832 m 540 450 q 732 507 664 450 q 800 669 800 564 q 752 774 800 739 q 614 810 704 810 l 393 810 l 321 450 l 540 450 m 671 1264 l 844 1193 l 667 1050 l 526 1064 l 671 1264 z "},"Ř":{"ha":1004,"x_min":46,"x_max":982,"o":"m 982 703 q 913 465 982 565 q 718 319 843 365 l 865 0 l 654 0 l 544 288 q 510 286 533 286 l 289 286 l 232 0 l 46 0 l 240 972 l 646 972 q 895 902 808 972 q 982 703 982 832 m 540 450 q 732 507 664 450 q 800 669 800 564 q 752 774 800 739 q 614 810 704 810 l 393 810 l 321 450 l 540 450 m 731 1257 l 892 1257 l 704 1057 l 529 1057 l 418 1257 l 579 1257 l 639 1169 l 731 1257 z "},"Ŗ":{"ha":1004,"x_min":46,"x_max":982,"o":"m 982 703 q 913 465 982 565 q 718 319 843 365 l 865 0 l 654 0 l 544 288 q 510 286 533 286 l 289 286 l 232 0 l 46 0 l 240 972 l 646 972 q 895 902 808 972 q 982 703 982 832 m 540 450 q 732 507 664 450 q 800 669 800 564 q 752 774 800 739 q 614 810 704 810 l 393 810 l 321 450 l 540 450 m 332 -82 l 493 -82 l 368 -311 l 247 -311 l 332 -82 z "},"Ȑ":{"ha":1004,"x_min":46,"x_max":982,"o":"m 982 703 q 913 465 982 565 q 718 319 843 365 l 865 0 l 654 0 l 544 288 q 510 286 533 286 l 289 286 l 232 0 l 46 0 l 240 972 l 646 972 q 895 902 808 972 q 982 703 982 832 m 540 450 q 732 507 664 450 q 800 669 800 564 q 752 774 800 739 q 614 810 704 810 l 393 810 l 321 450 l 540 450 m 508 1271 l 578 1061 l 444 1049 l 347 1207 l 508 1271 m 749 1271 l 818 1061 l 685 1049 l 588 1207 l 749 1271 z "},"Ṛ":{"ha":1004,"x_min":46,"x_max":982,"o":"m 982 703 q 913 465 982 565 q 718 319 843 365 l 865 0 l 654 0 l 544 288 q 510 286 533 286 l 289 286 l 232 0 l 46 0 l 240 972 l 646 972 q 895 902 808 972 q 982 703 982 832 m 540 450 q 732 507 664 450 q 800 669 800 564 q 752 774 800 739 q 614 810 704 810 l 393 810 l 321 450 l 540 450 m 408 -97 q 469 -122 446 -97 q 493 -186 493 -147 q 456 -276 493 -239 q 368 -312 418 -312 q 307 -287 331 -312 q 283 -224 283 -262 q 321 -134 283 -171 q 408 -97 358 -97 z "},"Ȓ":{"ha":1004,"x_min":46,"x_max":982,"o":"m 982 703 q 913 465 982 565 q 718 319 843 365 l 865 0 l 654 0 l 544 288 q 510 286 533 286 l 289 286 l 232 0 l 46 0 l 240 972 l 646 972 q 895 902 808 972 q 982 703 982 832 m 540 450 q 732 507 664 450 q 800 669 800 564 q 752 774 800 739 q 614 810 704 810 l 393 810 l 321 450 l 540 450 m 701 1057 q 703 1075 703 1063 q 684 1126 703 1107 q 635 1146 665 1146 q 572 1121 600 1146 q 532 1057 543 1096 l 413 1057 q 501 1206 433 1150 q 656 1263 568 1263 q 778 1218 733 1263 q 824 1097 824 1174 q 821 1057 824 1071 l 701 1057 z "},"Ṟ":{"ha":1004,"x_min":46,"x_max":982,"o":"m 982 703 q 913 465 982 565 q 718 319 843 365 l 865 0 l 654 0 l 544 288 q 510 286 533 286 l 289 286 l 232 0 l 46 0 l 240 972 l 646 972 q 895 902 808 972 q 982 703 982 832 m 540 450 q 732 507 664 450 q 800 669 800 564 q 752 774 800 739 q 614 810 704 810 l 393 810 l 321 450 l 540 450 m 224 -111 l 586 -111 l 564 -225 l 201 -225 l 224 -111 z "},"S":{"ha":860,"x_min":-12,"x_max":842,"o":"m 500 988 q 685 960 596 988 q 842 883 774 932 l 751 722 q 606 792 682 768 q 469 817 529 817 q 358 790 400 817 q 315 714 315 763 q 340 651 315 676 q 402 611 365 626 q 506 575 439 596 q 650 521 594 547 q 745 445 706 494 q 785 317 785 396 q 732 141 785 215 q 588 27 679 67 q 382 -12 496 -12 q 165 30 269 -12 q -12 144 61 72 l 81 303 q 235 196 147 235 q 401 157 322 157 q 532 190 485 157 q 579 281 579 222 q 554 342 579 318 q 491 383 529 367 q 388 418 453 399 q 242 470 299 444 q 147 544 186 496 q 107 672 107 593 q 157 838 107 765 q 297 949 207 910 q 500 988 386 988 z "},"Ś":{"ha":860,"x_min":-12,"x_max":842,"o":"m 500 988 q 685 960 596 988 q 842 883 774 932 l 751 722 q 606 792 682 768 q 469 817 529 817 q 358 790 400 817 q 315 714 315 763 q 340 651 315 676 q 402 611 365 626 q 506 575 439 596 q 650 521 594 547 q 745 445 706 494 q 785 317 785 396 q 732 141 785 215 q 588 27 679 67 q 382 -12 496 -12 q 165 30 269 -12 q -12 144 61 72 l 81 303 q 235 196 147 235 q 401 157 322 157 q 532 190 485 157 q 579 281 579 222 q 554 342 579 318 q 491 383 529 367 q 388 418 453 399 q 242 470 299 444 q 147 544 186 496 q 107 672 107 593 q 157 838 107 765 q 297 949 207 910 q 500 988 386 988 m 571 1264 l 744 1193 l 567 1050 l 426 1064 l 571 1264 z "},"Ṥ":{"ha":860,"x_min":-12,"x_max":842,"o":"m 500 988 q 685 960 596 988 q 842 883 774 932 l 751 722 q 606 792 682 768 q 469 817 529 817 q 358 790 400 817 q 315 714 315 763 q 340 651 315 676 q 402 611 365 626 q 506 575 439 596 q 650 521 594 547 q 745 445 706 494 q 785 317 785 396 q 732 141 785 215 q 588 27 679 67 q 382 -12 496 -12 q 165 30 269 -12 q -12 144 61 72 l 81 303 q 235 196 147 235 q 401 157 322 157 q 532 190 485 157 q 579 281 579 222 q 554 342 579 318 q 491 383 529 367 q 388 418 453 399 q 242 470 299 444 q 147 544 186 496 q 107 672 107 593 q 157 838 107 765 q 297 949 207 910 q 500 988 386 988 z "},"Ꞌ":{"ha":383,"x_min":96,"x_max":392,"o":"m 206 972 l 392 972 l 260 418 l 96 418 l 206 972 z "},"Š":{"ha":860,"x_min":-12,"x_max":842,"o":"m 500 988 q 685 960 596 988 q 842 883 774 932 l 751 722 q 606 792 682 768 q 469 817 529 817 q 358 790 400 817 q 315 714 315 763 q 340 651 315 676 q 402 611 365 626 q 506 575 439 596 q 650 521 594 547 q 745 445 706 494 q 785 317 785 396 q 732 141 785 215 q 588 27 679 67 q 382 -12 496 -12 q 165 30 269 -12 q -12 144 61 72 l 81 303 q 235 196 147 235 q 401 157 322 157 q 532 190 485 157 q 579 281 579 222 q 554 342 579 318 q 491 383 529 367 q 388 418 453 399 q 242 470 299 444 q 147 544 186 496 q 107 672 107 593 q 157 838 107 765 q 297 949 207 910 q 500 988 386 988 m 631 1257 l 792 1257 l 604 1057 l 429 1057 l 318 1257 l 479 1257 l 539 1169 l 631 1257 z "},"Ṧ":{"ha":860,"x_min":-12,"x_max":842,"o":"m 500 988 q 685 960 596 988 q 842 883 774 932 l 751 722 q 606 792 682 768 q 469 817 529 817 q 358 790 400 817 q 315 714 315 763 q 340 651 315 676 q 402 611 365 626 q 506 575 439 596 q 650 521 594 547 q 745 445 706 494 q 785 317 785 396 q 732 141 785 215 q 588 27 679 67 q 382 -12 496 -12 q 165 30 269 -12 q -12 144 61 72 l 81 303 q 235 196 147 235 q 401 157 322 157 q 532 190 485 157 q 579 281 579 222 q 554 342 579 318 q 491 383 529 367 q 388 418 453 399 q 242 470 299 444 q 147 544 186 496 q 107 672 107 593 q 157 838 107 765 q 297 949 207 910 q 500 988 386 988 z "},"Ş":{"ha":860,"x_min":-12,"x_max":842,"o":"m 315 714 q 340 651 315 676 q 402 611 365 626 q 506 575 439 596 q 650 521 594 547 q 745 445 706 494 q 785 317 785 396 q 686 88 785 175 q 429 -11 588 1 l 394 -71 q 465 -106 443 -81 q 488 -167 488 -132 q 432 -274 488 -237 q 293 -311 376 -311 q 156 -282 221 -311 l 211 -178 q 286 -193 251 -193 q 331 -183 314 -193 q 349 -157 349 -172 q 331 -135 349 -144 q 285 -126 314 -126 l 244 -126 l 306 -7 q 131 45 214 6 q -12 144 47 85 l 81 303 q 235 196 147 235 q 401 157 322 157 q 532 190 485 157 q 579 281 579 222 q 554 342 579 318 q 491 383 529 367 q 388 418 453 399 q 242 470 299 444 q 147 544 186 496 q 107 672 107 593 q 157 838 107 765 q 297 949 207 910 q 500 988 386 988 q 685 960 596 988 q 842 883 774 932 l 751 722 q 606 792 682 768 q 469 817 529 817 q 358 790 400 817 q 315 714 315 763 z "},"Ŝ":{"ha":860,"x_min":-12,"x_max":842,"o":"m 500 988 q 685 960 596 988 q 842 883 774 932 l 751 722 q 606 792 682 768 q 469 817 529 817 q 358 790 400 817 q 315 714 315 763 q 340 651 315 676 q 402 611 365 626 q 506 575 439 596 q 650 521 594 547 q 745 445 706 494 q 785 317 785 396 q 732 141 785 215 q 588 27 679 67 q 382 -12 496 -12 q 165 30 269 -12 q -12 144 61 72 l 81 303 q 235 196 147 235 q 401 157 322 157 q 532 190 485 157 q 579 281 579 222 q 554 342 579 318 q 491 383 529 367 q 388 418 453 399 q 242 470 299 444 q 147 544 186 496 q 107 672 107 593 q 157 838 107 765 q 297 949 207 910 q 500 988 386 988 m 756 1057 l 594 1057 l 535 1144 l 443 1057 l 282 1057 l 469 1257 l 644 1257 l 756 1057 z "},"Ș":{"ha":860,"x_min":-12,"x_max":842,"o":"m 500 988 q 685 960 596 988 q 842 883 774 932 l 751 722 q 606 792 682 768 q 469 817 529 817 q 358 790 400 817 q 315 714 315 763 q 340 651 315 676 q 402 611 365 626 q 506 575 439 596 q 650 521 594 547 q 745 445 706 494 q 785 317 785 396 q 732 141 785 215 q 588 27 679 67 q 382 -12 496 -12 q 165 30 269 -12 q -12 144 61 72 l 81 303 q 235 196 147 235 q 401 157 322 157 q 532 190 485 157 q 579 281 579 222 q 554 342 579 318 q 491 383 529 367 q 388 418 453 399 q 242 470 299 444 q 147 544 186 496 q 107 672 107 593 q 157 838 107 765 q 297 949 207 910 q 500 988 386 988 m 276 -82 l 438 -82 l 313 -311 l 192 -311 l 276 -82 z "},"Ṡ":{"ha":860,"x_min":-12,"x_max":842,"o":"m 500 988 q 685 960 596 988 q 842 883 774 932 l 751 722 q 606 792 682 768 q 469 817 529 817 q 358 790 400 817 q 315 714 315 763 q 340 651 315 676 q 402 611 365 626 q 506 575 439 596 q 650 521 594 547 q 745 445 706 494 q 785 317 785 396 q 732 141 785 215 q 588 27 679 67 q 382 -12 496 -12 q 165 30 269 -12 q -12 144 61 72 l 81 303 q 235 196 147 235 q 401 157 322 157 q 532 190 485 157 q 579 281 579 222 q 554 342 579 318 q 491 383 529 367 q 388 418 453 399 q 242 470 299 444 q 147 544 186 496 q 107 672 107 593 q 157 838 107 765 q 297 949 207 910 q 500 988 386 988 m 557 1267 q 618 1242 594 1267 q 642 1178 642 1217 q 604 1088 642 1125 q 517 1051 567 1051 q 456 1076 479 1051 q 432 1140 432 1101 q 469 1230 432 1193 q 557 1267 507 1267 z "},"Ṣ":{"ha":860,"x_min":-12,"x_max":842,"o":"m 500 988 q 685 960 596 988 q 842 883 774 932 l 751 722 q 606 792 682 768 q 469 817 529 817 q 358 790 400 817 q 315 714 315 763 q 340 651 315 676 q 402 611 365 626 q 506 575 439 596 q 650 521 594 547 q 745 445 706 494 q 785 317 785 396 q 732 141 785 215 q 588 27 679 67 q 382 -12 496 -12 q 165 30 269 -12 q -12 144 61 72 l 81 303 q 235 196 147 235 q 401 157 322 157 q 532 190 485 157 q 579 281 579 222 q 554 342 579 318 q 491 383 529 367 q 388 418 453 399 q 242 470 299 444 q 147 544 186 496 q 107 672 107 593 q 157 838 107 765 q 297 949 207 910 q 500 988 386 988 m 353 -97 q 414 -122 390 -97 q 438 -186 438 -147 q 400 -276 438 -239 q 313 -312 363 -312 q 251 -287 275 -312 q 228 -224 228 -262 q 265 -134 228 -171 q 353 -97 303 -97 z "},"Ṩ":{"ha":860,"x_min":-12,"x_max":842,"o":"m 500 988 q 685 960 596 988 q 842 883 774 932 l 751 722 q 606 792 682 768 q 469 817 529 817 q 358 790 400 817 q 315 714 315 763 q 340 651 315 676 q 402 611 365 626 q 506 575 439 596 q 650 521 594 547 q 745 445 706 494 q 785 317 785 396 q 732 141 785 215 q 588 27 679 67 q 382 -12 496 -12 q 165 30 269 -12 q -12 144 61 72 l 81 303 q 235 196 147 235 q 401 157 322 157 q 532 190 485 157 q 579 281 579 222 q 554 342 579 318 q 491 383 529 367 q 388 418 453 399 q 242 470 299 444 q 147 544 186 496 q 107 672 107 593 q 157 838 107 765 q 297 949 207 910 q 500 988 386 988 m 353 -97 q 414 -122 390 -97 q 438 -186 438 -147 q 400 -276 438 -239 q 313 -312 363 -312 q 251 -287 275 -312 q 228 -224 228 -262 q 265 -134 228 -171 q 353 -97 303 -97 m 586 1267 q 647 1242 624 1267 q 671 1178 671 1217 q 633 1088 671 1125 q 546 1051 596 1051 q 485 1076 508 1051 q 461 1140 461 1101 q 499 1230 461 1193 q 586 1267 536 1267 z "},"ẞ":{"ha":976,"x_min":31,"x_max":942,"o":"m 914 726 l 733 556 q 860 477 817 532 q 904 340 904 422 q 852 162 904 239 q 708 42 800 85 q 499 0 615 0 l 386 0 l 415 160 l 519 160 q 658 205 606 160 q 711 321 711 250 q 676 398 711 371 q 572 425 640 425 l 517 425 l 543 569 l 767 782 q 614 818 708 818 q 428 755 503 818 q 331 578 353 692 l 217 0 l 31 0 l 143 571 q 310 874 179 765 q 636 983 440 983 q 814 954 738 983 q 942 878 890 925 l 914 726 z "},"Ə":{"ha":1058,"x_min":44,"x_max":1039,"o":"m 585 985 q 819 926 715 985 q 981 765 922 868 q 1039 533 1039 661 q 965 259 1039 385 q 766 60 890 133 q 496 -14 642 -14 q 270 38 365 -14 q 119 175 175 89 q 44 364 63 261 l 824 661 q 722 776 789 733 q 572 818 656 818 q 418 781 492 818 q 292 681 344 744 l 172 814 q 585 985 346 985 m 513 154 q 686 203 608 154 q 808 335 764 253 q 854 515 853 418 l 261 292 q 357 193 294 232 q 513 154 419 154 z "},"T":{"ha":918,"x_min":135,"x_max":976,"o":"m 888 721 q 635 801 775 785 l 474 0 l 288 0 l 449 801 q 164 721 297 785 l 135 878 q 348 956 235 929 q 574 982 461 982 q 791 955 688 982 q 976 876 894 928 l 888 721 z "},"Ŧ":{"ha":918,"x_min":135,"x_max":976,"o":"m 888 721 q 635 801 775 785 l 575 503 l 771 503 l 750 394 l 553 394 l 474 0 l 288 0 l 367 394 l 165 394 l 185 503 l 389 503 l 449 801 q 164 721 297 785 l 135 878 q 348 956 235 929 q 574 982 461 982 q 791 955 688 982 q 976 876 894 928 l 888 721 z "},"Ť":{"ha":918,"x_min":135,"x_max":976,"o":"m 888 721 q 635 801 775 785 l 474 0 l 288 0 l 449 801 q 164 721 297 785 l 135 878 q 348 956 235 929 q 574 982 461 982 q 791 955 688 982 q 976 876 894 928 l 888 721 m 707 1257 l 868 1257 l 681 1057 l 506 1057 l 394 1257 l 556 1257 l 615 1169 l 707 1257 z "},"Ţ":{"ha":918,"x_min":135,"x_max":976,"o":"m 444 0 l 404 -71 q 475 -106 453 -81 q 497 -167 497 -132 q 442 -274 497 -237 q 303 -311 386 -311 q 165 -282 231 -311 l 221 -178 q 296 -193 261 -193 q 341 -183 324 -193 q 358 -157 358 -172 q 341 -135 358 -144 q 294 -126 324 -126 l 254 -126 l 319 0 l 288 0 l 449 801 q 164 721 297 785 l 135 878 q 348 956 235 929 q 574 982 461 982 q 791 955 688 982 q 976 876 894 928 l 888 721 q 635 801 775 785 l 474 0 l 444 0 z "},"Ț":{"ha":918,"x_min":135,"x_max":976,"o":"m 888 721 q 635 801 775 785 l 474 0 l 288 0 l 449 801 q 164 721 297 785 l 135 878 q 348 956 235 929 q 574 982 461 982 q 791 955 688 982 q 976 876 894 928 l 888 721 m 286 -82 l 447 -82 l 322 -311 l 201 -311 l 286 -82 z "},"Ṭ":{"ha":918,"x_min":135,"x_max":976,"o":"m 888 721 q 635 801 775 785 l 474 0 l 288 0 l 449 801 q 164 721 297 785 l 135 878 q 348 956 235 929 q 574 982 461 982 q 791 955 688 982 q 976 876 894 928 l 888 721 m 363 -97 q 424 -122 400 -97 q 447 -186 447 -147 q 410 -276 447 -239 q 322 -312 372 -312 q 261 -287 285 -312 q 238 -224 238 -262 q 275 -134 238 -171 q 363 -97 313 -97 z "},"Ṯ":{"ha":918,"x_min":135,"x_max":976,"o":"m 888 721 q 635 801 775 785 l 474 0 l 288 0 l 449 801 q 164 721 297 785 l 135 878 q 348 956 235 929 q 574 982 461 982 q 791 955 688 982 q 976 876 894 928 l 888 721 m 178 -111 l 540 -111 l 518 -225 l 156 -225 l 178 -111 z "},"U":{"ha":1067,"x_min":88,"x_max":1068,"o":"m 363 -4 q 162 69 236 -4 q 88 267 88 143 q 96 351 88 306 l 221 972 l 408 972 l 293 397 q 288 343 288 371 q 335 220 288 265 q 464 175 382 175 q 599 209 535 175 q 709 301 664 243 q 772 431 754 360 l 881 972 l 1068 972 l 874 0 l 686 0 l 718 154 q 558 38 650 79 q 363 -4 467 -4 z "},"Ú":{"ha":1067,"x_min":88,"x_max":1068,"o":"m 363 -4 q 162 69 236 -4 q 88 267 88 143 q 96 351 88 306 l 221 972 l 408 972 l 293 397 q 288 343 288 371 q 335 220 288 265 q 464 175 382 175 q 599 209 535 175 q 709 301 664 243 q 772 431 754 360 l 881 972 l 1068 972 l 874 0 l 686 0 l 718 154 q 558 38 650 79 q 363 -4 467 -4 m 724 1264 l 897 1193 l 719 1050 l 579 1064 l 724 1264 z "},"Ŭ":{"ha":1067,"x_min":88,"x_max":1068,"o":"m 363 -4 q 162 69 236 -4 q 88 267 88 143 q 96 351 88 306 l 221 972 l 408 972 l 293 397 q 288 343 288 371 q 335 220 288 265 q 464 175 382 175 q 599 209 535 175 q 709 301 664 243 q 772 431 754 360 l 881 972 l 1068 972 l 874 0 l 686 0 l 718 154 q 558 38 650 79 q 363 -4 467 -4 m 625 1256 q 624 1238 624 1250 q 642 1186 624 1206 q 692 1167 661 1167 q 755 1192 726 1167 q 794 1256 783 1217 l 914 1256 q 826 1106 893 1163 q 671 1050 758 1050 q 548 1094 593 1050 q 503 1215 503 1139 q 506 1256 503 1242 l 625 1256 z "},"Û":{"ha":1067,"x_min":88,"x_max":1068,"o":"m 363 -4 q 162 69 236 -4 q 88 267 88 143 q 96 351 88 306 l 221 972 l 408 972 l 293 397 q 288 343 288 371 q 335 220 288 265 q 464 175 382 175 q 599 209 535 175 q 709 301 664 243 q 772 431 754 360 l 881 972 l 1068 972 l 874 0 l 686 0 l 718 154 q 558 38 650 79 q 363 -4 467 -4 m 908 1057 l 747 1057 l 688 1144 l 596 1057 l 435 1057 l 622 1257 l 797 1257 l 908 1057 z "},"Ȕ":{"ha":1067,"x_min":88,"x_max":1068,"o":"m 363 -4 q 162 69 236 -4 q 88 267 88 143 q 96 351 88 306 l 221 972 l 408 972 l 293 397 q 288 343 288 371 q 335 220 288 265 q 464 175 382 175 q 599 209 535 175 q 709 301 664 243 q 772 431 754 360 l 881 972 l 1068 972 l 874 0 l 686 0 l 718 154 q 558 38 650 79 q 363 -4 467 -4 m 561 1271 l 631 1061 l 497 1049 l 400 1207 l 561 1271 m 801 1271 l 871 1061 l 738 1049 l 640 1207 l 801 1271 z "},"Ü":{"ha":1067,"x_min":88,"x_max":1068,"o":"m 363 -4 q 162 69 236 -4 q 88 267 88 143 q 96 351 88 306 l 221 972 l 408 972 l 293 397 q 288 343 288 371 q 335 220 288 265 q 464 175 382 175 q 599 209 535 175 q 709 301 664 243 q 772 431 754 360 l 881 972 l 1068 972 l 874 0 l 686 0 l 718 154 q 558 38 650 79 q 363 -4 467 -4 m 579 1238 q 632 1216 613 1238 q 651 1161 651 1194 q 619 1084 651 1117 q 544 1051 588 1051 q 490 1074 511 1051 q 469 1129 469 1096 q 501 1206 469 1175 q 579 1238 533 1238 m 831 1238 q 884 1216 864 1238 q 904 1161 904 1194 q 872 1084 904 1117 q 796 1051 840 1051 q 742 1074 763 1051 q 722 1129 722 1096 q 754 1206 722 1175 q 831 1238 786 1238 z "},"Ụ":{"ha":1067,"x_min":88,"x_max":1068,"o":"m 363 -4 q 162 69 236 -4 q 88 267 88 143 q 96 351 88 306 l 221 972 l 408 972 l 293 397 q 288 343 288 371 q 335 220 288 265 q 464 175 382 175 q 599 209 535 175 q 709 301 664 243 q 772 431 754 360 l 881 972 l 1068 972 l 874 0 l 686 0 l 718 154 q 558 38 650 79 q 363 -4 467 -4 m 442 -97 q 503 -122 479 -97 q 526 -186 526 -147 q 489 -276 526 -239 q 401 -312 451 -312 q 340 -287 364 -312 q 317 -224 317 -262 q 354 -134 317 -171 q 442 -97 392 -97 z "},"Ù":{"ha":1067,"x_min":88,"x_max":1068,"o":"m 363 -4 q 162 69 236 -4 q 88 267 88 143 q 96 351 88 306 l 221 972 l 408 972 l 293 397 q 288 343 288 371 q 335 220 288 265 q 464 175 382 175 q 599 209 535 175 q 709 301 664 243 q 772 431 754 360 l 881 972 l 1068 972 l 874 0 l 686 0 l 718 154 q 558 38 650 79 q 363 -4 467 -4 m 638 1264 l 778 1064 l 636 1050 l 463 1193 l 638 1264 z "},"Ủ":{"ha":1067,"x_min":88,"x_max":1068,"o":"m 363 -4 q 162 69 236 -4 q 88 267 88 143 q 96 351 88 306 l 221 972 l 408 972 l 293 397 q 288 343 288 371 q 335 220 288 265 q 464 175 382 175 q 599 209 535 175 q 709 301 664 243 q 772 431 754 360 l 881 972 l 1068 972 l 874 0 l 686 0 l 718 154 q 558 38 650 79 q 363 -4 467 -4 m 726 1332 q 815 1306 781 1332 q 849 1233 849 1281 q 808 1132 849 1185 q 701 1031 767 1079 l 617 1071 q 676 1134 654 1101 q 699 1188 699 1167 q 690 1210 699 1201 q 665 1218 681 1218 q 613 1200 643 1218 l 575 1288 q 726 1332 649 1332 z "},"Ư":{"ha":1085,"x_min":88,"x_max":1249,"o":"m 1240 1168 q 1249 1093 1249 1129 q 1196 944 1249 1003 q 1047 869 1143 886 l 874 0 l 686 0 l 718 154 q 558 38 650 79 q 363 -4 467 -4 q 162 69 236 -4 q 88 267 88 143 q 96 351 88 306 l 221 972 l 408 972 l 293 397 q 288 343 288 371 q 335 220 288 265 q 464 175 382 175 q 599 209 535 175 q 709 301 664 243 q 772 431 754 360 l 881 972 l 999 972 l 999 974 q 1079 999 1053 974 q 1106 1067 1106 1025 q 1097 1118 1106 1092 l 1240 1168 z "},"Ứ":{"ha":1085,"x_min":88,"x_max":1249,"o":"m 1240 1168 q 1249 1093 1249 1129 q 1196 944 1249 1003 q 1047 869 1143 886 l 874 0 l 686 0 l 718 154 q 558 38 650 79 q 363 -4 467 -4 q 162 69 236 -4 q 88 267 88 143 q 96 351 88 306 l 221 972 l 408 972 l 293 397 q 288 343 288 371 q 335 220 288 265 q 464 175 382 175 q 599 209 535 175 q 709 301 664 243 q 772 431 754 360 l 881 972 l 999 972 l 999 974 q 1079 999 1053 974 q 1106 1067 1106 1025 q 1097 1118 1106 1092 l 1240 1168 m 724 1264 l 897 1193 l 719 1050 l 579 1064 l 724 1264 z "},"Ự":{"ha":1085,"x_min":88,"x_max":1249,"o":"m 1240 1168 q 1249 1093 1249 1129 q 1196 944 1249 1003 q 1047 869 1143 886 l 874 0 l 686 0 l 718 154 q 558 38 650 79 q 363 -4 467 -4 q 162 69 236 -4 q 88 267 88 143 q 96 351 88 306 l 221 972 l 408 972 l 293 397 q 288 343 288 371 q 335 220 288 265 q 464 175 382 175 q 599 209 535 175 q 709 301 664 243 q 772 431 754 360 l 881 972 l 999 972 l 999 974 q 1079 999 1053 974 q 1106 1067 1106 1025 q 1097 1118 1106 1092 l 1240 1168 m 442 -97 q 503 -122 479 -97 q 526 -186 526 -147 q 489 -276 526 -239 q 401 -312 451 -312 q 340 -287 364 -312 q 317 -224 317 -262 q 354 -134 317 -171 q 442 -97 392 -97 z "},"Ừ":{"ha":1085,"x_min":88,"x_max":1249,"o":"m 1240 1168 q 1249 1093 1249 1129 q 1196 944 1249 1003 q 1047 869 1143 886 l 874 0 l 686 0 l 718 154 q 558 38 650 79 q 363 -4 467 -4 q 162 69 236 -4 q 88 267 88 143 q 96 351 88 306 l 221 972 l 408 972 l 293 397 q 288 343 288 371 q 335 220 288 265 q 464 175 382 175 q 599 209 535 175 q 709 301 664 243 q 772 431 754 360 l 881 972 l 999 972 l 999 974 q 1079 999 1053 974 q 1106 1067 1106 1025 q 1097 1118 1106 1092 l 1240 1168 m 638 1264 l 778 1064 l 636 1050 l 463 1193 l 638 1264 z "},"Ử":{"ha":1085,"x_min":88,"x_max":1249,"o":"m 1240 1168 q 1249 1093 1249 1129 q 1196 944 1249 1003 q 1047 869 1143 886 l 874 0 l 686 0 l 718 154 q 558 38 650 79 q 363 -4 467 -4 q 162 69 236 -4 q 88 267 88 143 q 96 351 88 306 l 221 972 l 408 972 l 293 397 q 288 343 288 371 q 335 220 288 265 q 464 175 382 175 q 599 209 535 175 q 709 301 664 243 q 772 431 754 360 l 881 972 l 999 972 l 999 974 q 1079 999 1053 974 q 1106 1067 1106 1025 q 1097 1118 1106 1092 l 1240 1168 m 726 1332 q 815 1306 781 1332 q 849 1233 849 1281 q 808 1132 849 1185 q 701 1031 767 1079 l 617 1071 q 676 1134 654 1101 q 699 1188 699 1167 q 690 1210 699 1201 q 665 1218 681 1218 q 613 1200 643 1218 l 575 1288 q 726 1332 649 1332 z "},"Ữ":{"ha":1085,"x_min":88,"x_max":1249,"o":"m 1240 1168 q 1249 1093 1249 1129 q 1196 944 1249 1003 q 1047 869 1143 886 l 874 0 l 686 0 l 718 154 q 558 38 650 79 q 363 -4 467 -4 q 162 69 236 -4 q 88 267 88 143 q 96 351 88 306 l 221 972 l 408 972 l 293 397 q 288 343 288 371 q 335 220 288 265 q 464 175 382 175 q 599 209 535 175 q 709 301 664 243 q 772 431 754 360 l 881 972 l 999 972 l 999 974 q 1079 999 1053 974 q 1106 1067 1106 1025 q 1097 1118 1106 1092 l 1240 1168 m 938 1246 q 781 1051 903 1051 q 727 1061 750 1051 q 665 1093 704 1071 q 610 1118 628 1118 q 576 1102 588 1118 q 558 1056 565 1086 l 443 1056 q 601 1251 478 1251 q 658 1240 632 1251 q 715 1210 685 1229 q 774 1185 756 1185 q 822 1246 813 1185 l 938 1246 z "},"Ű":{"ha":1067,"x_min":88,"x_max":1068,"o":"m 363 -4 q 162 69 236 -4 q 88 267 88 143 q 96 351 88 306 l 221 972 l 408 972 l 293 397 q 288 343 288 371 q 335 220 288 265 q 464 175 382 175 q 599 209 535 175 q 709 301 664 243 q 772 431 754 360 l 881 972 l 1068 972 l 874 0 l 686 0 l 718 154 q 558 38 650 79 q 363 -4 467 -4 m 582 1272 l 718 1208 l 588 1050 l 460 1063 l 582 1272 m 822 1272 l 958 1208 l 828 1050 l 700 1063 l 822 1272 z "},"Ȗ":{"ha":1067,"x_min":88,"x_max":1068,"o":"m 363 -4 q 162 69 236 -4 q 88 267 88 143 q 96 351 88 306 l 221 972 l 408 972 l 293 397 q 288 343 288 371 q 335 220 288 265 q 464 175 382 175 q 599 209 535 175 q 709 301 664 243 q 772 431 754 360 l 881 972 l 1068 972 l 874 0 l 686 0 l 718 154 q 558 38 650 79 q 363 -4 467 -4 m 754 1057 q 756 1075 756 1063 q 737 1126 756 1107 q 688 1146 718 1146 q 624 1121 653 1146 q 585 1057 596 1096 l 465 1057 q 553 1206 486 1150 q 708 1263 621 1263 q 831 1218 786 1263 q 876 1097 876 1174 q 874 1057 876 1071 l 754 1057 z "},"Ū":{"ha":1067,"x_min":88,"x_max":1068,"o":"m 363 -4 q 162 69 236 -4 q 88 267 88 143 q 96 351 88 306 l 221 972 l 408 972 l 293 397 q 288 343 288 371 q 335 220 288 265 q 464 175 382 175 q 599 209 535 175 q 709 301 664 243 q 772 431 754 360 l 881 972 l 1068 972 l 874 0 l 686 0 l 718 154 q 558 38 650 79 q 363 -4 467 -4 m 481 1178 l 903 1178 l 882 1063 l 460 1063 l 481 1178 z "},"Ṻ":{"ha":1067,"x_min":88,"x_max":1068,"o":"m 363 -4 q 162 69 236 -4 q 88 267 88 143 q 96 351 88 306 l 221 972 l 408 972 l 293 397 q 288 343 288 371 q 335 220 288 265 q 464 175 382 175 q 599 209 535 175 q 709 301 664 243 q 772 431 754 360 l 881 972 l 1068 972 l 874 0 l 686 0 l 718 154 q 558 38 650 79 q 363 -4 467 -4 z "},"Ų":{"ha":1067,"x_min":88,"x_max":1068,"o":"m 1068 972 l 874 0 l 860 0 q 746 -85 779 -51 q 713 -153 713 -119 q 743 -182 713 -182 q 789 -171 768 -182 l 806 -282 q 676 -310 735 -310 q 585 -281 619 -310 q 551 -203 551 -253 q 583 -97 551 -150 q 688 8 615 -43 l 718 154 q 558 38 650 79 q 363 -4 467 -4 q 162 69 236 -4 q 88 267 88 143 q 96 351 88 306 l 221 972 l 408 972 l 293 397 q 288 343 288 371 q 335 220 288 265 q 464 175 382 175 q 599 209 535 175 q 709 301 664 243 q 772 431 754 360 l 881 972 l 1068 972 z "},"Ů":{"ha":1067,"x_min":88,"x_max":1068,"o":"m 363 -4 q 162 69 236 -4 q 88 267 88 143 q 96 351 88 306 l 221 972 l 408 972 l 293 397 q 288 343 288 371 q 335 220 288 265 q 464 175 382 175 q 599 209 535 175 q 709 301 664 243 q 772 431 754 360 l 881 972 l 1068 972 l 874 0 l 686 0 l 718 154 q 558 38 650 79 q 363 -4 467 -4 m 711 1343 q 811 1303 772 1343 q 850 1204 850 1264 q 826 1118 850 1158 q 761 1054 801 1078 q 675 1031 721 1031 q 576 1069 615 1031 q 536 1167 536 1108 q 560 1253 536 1213 q 626 1319 585 1294 q 711 1343 667 1343 m 701 1251 q 649 1230 671 1251 q 626 1178 626 1208 q 642 1138 626 1154 q 685 1121 658 1121 q 738 1143 714 1121 q 761 1194 761 1165 q 744 1235 761 1218 q 701 1251 728 1251 z "},"Ũ":{"ha":1067,"x_min":88,"x_max":1068,"o":"m 363 -4 q 162 69 236 -4 q 88 267 88 143 q 96 351 88 306 l 221 972 l 408 972 l 293 397 q 288 343 288 371 q 335 220 288 265 q 464 175 382 175 q 599 209 535 175 q 709 301 664 243 q 772 431 754 360 l 881 972 l 1068 972 l 874 0 l 686 0 l 718 154 q 558 38 650 79 q 363 -4 467 -4 m 936 1246 q 779 1051 901 1051 q 726 1061 749 1051 q 664 1093 703 1071 q 608 1118 626 1118 q 575 1102 586 1118 q 557 1056 564 1086 l 442 1056 q 600 1251 476 1251 q 657 1240 631 1251 q 714 1210 683 1229 q 772 1185 754 1185 q 821 1246 811 1185 l 936 1246 z "},"Ṹ":{"ha":1067,"x_min":88,"x_max":1068,"o":"m 363 -4 q 162 69 236 -4 q 88 267 88 143 q 96 351 88 306 l 221 972 l 408 972 l 293 397 q 288 343 288 371 q 335 220 288 265 q 464 175 382 175 q 599 209 535 175 q 709 301 664 243 q 772 431 754 360 l 881 972 l 1068 972 l 874 0 l 686 0 l 718 154 q 558 38 650 79 q 363 -4 467 -4 m 967 1222 q 915 1099 953 1143 q 815 1054 878 1054 q 756 1065 783 1054 q 694 1093 729 1075 q 661 1110 678 1103 q 632 1117 644 1117 q 595 1102 607 1117 q 578 1058 583 1088 l 482 1058 q 633 1228 513 1228 q 693 1217 665 1228 q 753 1189 721 1207 q 772 1179 757 1186 q 797 1169 786 1172 q 817 1165 807 1165 q 852 1180 840 1165 q 869 1222 864 1194 l 967 1222 m 815 1475 l 960 1382 l 761 1274 l 638 1310 l 815 1475 z "},"V":{"ha":974,"x_min":124,"x_max":1090,"o":"m 897 972 l 1090 972 l 540 0 l 347 0 l 124 972 l 324 972 l 481 201 l 897 972 z "},"W":{"ha":1624,"x_min":93,"x_max":1639,"o":"m 1521 363 q 1436 167 1500 253 q 1279 34 1372 82 q 1078 -14 1186 -14 q 883 38 965 -14 q 775 172 800 89 q 617 38 718 89 q 400 -14 515 -14 q 238 23 307 -14 q 131 126 168 60 q 93 279 93 192 q 101 363 93 319 l 221 972 l 408 972 l 288 363 q 282 314 282 329 q 330 198 282 242 q 460 154 378 154 q 628 212 556 154 q 719 363 701 269 l 838 972 l 1024 972 l 904 363 q 900 317 900 338 q 949 199 900 243 q 1082 154 999 154 q 1244 212 1175 154 q 1333 363 1314 269 l 1453 972 l 1639 972 l 1521 363 z "},"Ẃ":{"ha":1624,"x_min":93,"x_max":1639,"o":"m 1521 363 q 1436 167 1500 253 q 1279 34 1372 82 q 1078 -14 1186 -14 q 883 38 965 -14 q 775 172 800 89 q 617 38 718 89 q 400 -14 515 -14 q 238 23 307 -14 q 131 126 168 60 q 93 279 93 192 q 101 363 93 319 l 221 972 l 408 972 l 288 363 q 282 314 282 329 q 330 198 282 242 q 460 154 378 154 q 628 212 556 154 q 719 363 701 269 l 838 972 l 1024 972 l 904 363 q 900 317 900 338 q 949 199 900 243 q 1082 154 999 154 q 1244 212 1175 154 q 1333 363 1314 269 l 1453 972 l 1639 972 l 1521 363 m 997 1264 l 1171 1193 l 993 1050 l 853 1064 l 997 1264 z "},"Ŵ":{"ha":1624,"x_min":93,"x_max":1639,"o":"m 1521 363 q 1436 167 1500 253 q 1279 34 1372 82 q 1078 -14 1186 -14 q 883 38 965 -14 q 775 172 800 89 q 617 38 718 89 q 400 -14 515 -14 q 238 23 307 -14 q 131 126 168 60 q 93 279 93 192 q 101 363 93 319 l 221 972 l 408 972 l 288 363 q 282 314 282 329 q 330 198 282 242 q 460 154 378 154 q 628 212 556 154 q 719 363 701 269 l 838 972 l 1024 972 l 904 363 q 900 317 900 338 q 949 199 900 243 q 1082 154 999 154 q 1244 212 1175 154 q 1333 363 1314 269 l 1453 972 l 1639 972 l 1521 363 m 1182 1057 l 1021 1057 l 961 1144 l 869 1057 l 708 1057 l 896 1257 l 1071 1257 l 1182 1057 z "},"Ẅ":{"ha":1624,"x_min":93,"x_max":1639,"o":"m 1521 363 q 1436 167 1500 253 q 1279 34 1372 82 q 1078 -14 1186 -14 q 883 38 965 -14 q 775 172 800 89 q 617 38 718 89 q 400 -14 515 -14 q 238 23 307 -14 q 131 126 168 60 q 93 279 93 192 q 101 363 93 319 l 221 972 l 408 972 l 288 363 q 282 314 282 329 q 330 198 282 242 q 460 154 378 154 q 628 212 556 154 q 719 363 701 269 l 838 972 l 1024 972 l 904 363 q 900 317 900 338 q 949 199 900 243 q 1082 154 999 154 q 1244 212 1175 154 q 1333 363 1314 269 l 1453 972 l 1639 972 l 1521 363 m 853 1238 q 906 1216 886 1238 q 925 1161 925 1194 q 893 1084 925 1117 q 818 1051 861 1051 q 764 1074 785 1051 q 743 1129 743 1096 q 775 1206 743 1175 q 853 1238 807 1238 m 1104 1238 q 1158 1216 1138 1238 q 1178 1161 1178 1194 q 1146 1084 1178 1117 q 1069 1051 1114 1051 q 1016 1074 1036 1051 q 996 1129 996 1096 q 1028 1206 996 1175 q 1104 1238 1060 1238 z "},"Ẁ":{"ha":1624,"x_min":93,"x_max":1639,"o":"m 1521 363 q 1436 167 1500 253 q 1279 34 1372 82 q 1078 -14 1186 -14 q 883 38 965 -14 q 775 172 800 89 q 617 38 718 89 q 400 -14 515 -14 q 238 23 307 -14 q 131 126 168 60 q 93 279 93 192 q 101 363 93 319 l 221 972 l 408 972 l 288 363 q 282 314 282 329 q 330 198 282 242 q 460 154 378 154 q 628 212 556 154 q 719 363 701 269 l 838 972 l 1024 972 l 904 363 q 900 317 900 338 q 949 199 900 243 q 1082 154 999 154 q 1244 212 1175 154 q 1333 363 1314 269 l 1453 972 l 1639 972 l 1521 363 m 911 1264 l 1051 1064 l 910 1050 l 736 1193 l 911 1264 z "},"X":{"ha":989,"x_min":-46,"x_max":1022,"o":"m 1022 972 l 619 507 l 890 0 l 667 0 l 478 349 l 172 0 l -46 0 l 388 497 l 138 972 l 356 972 l 524 653 l 803 972 l 1022 972 z "},"Y":{"ha":1028,"x_min":42,"x_max":1049,"o":"m 1049 972 l 901 238 q 810 35 879 122 q 640 -99 742 -51 q 417 -147 538 -147 q 197 -103 300 -147 q 42 11 93 -58 l 142 133 q 256 51 183 82 q 403 19 329 19 q 548 50 481 19 q 661 135 615 81 q 719 256 707 189 l 740 358 q 603 253 681 290 q 438 215 525 217 q 278 251 346 215 q 173 353 210 288 q 136 503 136 418 q 146 590 136 538 l 221 972 l 407 972 l 332 593 q 326 540 326 569 q 370 428 326 469 q 490 388 414 388 q 677 455 593 388 q 794 629 761 522 l 863 972 l 1049 972 z "},"Ý":{"ha":1028,"x_min":42,"x_max":1049,"o":"m 1049 972 l 901 238 q 810 35 879 122 q 640 -99 742 -51 q 417 -147 538 -147 q 197 -103 300 -147 q 42 11 93 -58 l 142 133 q 256 51 183 82 q 403 19 329 19 q 548 50 481 19 q 661 135 615 81 q 719 256 707 189 l 740 358 q 603 253 681 290 q 438 215 525 217 q 278 251 346 215 q 173 353 210 288 q 136 503 136 418 q 146 590 136 538 l 221 972 l 407 972 l 332 593 q 326 540 326 569 q 370 428 326 469 q 490 388 414 388 q 677 455 593 388 q 794 629 761 522 l 863 972 l 1049 972 m 704 1264 l 878 1193 l 700 1050 l 560 1064 l 704 1264 z "},"Ŷ":{"ha":1028,"x_min":42,"x_max":1049,"o":"m 1049 972 l 901 238 q 810 35 879 122 q 640 -99 742 -51 q 417 -147 538 -147 q 197 -103 300 -147 q 42 11 93 -58 l 142 133 q 256 51 183 82 q 403 19 329 19 q 548 50 481 19 q 661 135 615 81 q 719 256 707 189 l 740 358 q 603 253 681 290 q 438 215 525 217 q 278 251 346 215 q 173 353 210 288 q 136 503 136 418 q 146 590 136 538 l 221 972 l 407 972 l 332 593 q 326 540 326 569 q 370 428 326 469 q 490 388 414 388 q 677 455 593 388 q 794 629 761 522 l 863 972 l 1049 972 m 889 1057 l 728 1057 l 668 1144 l 576 1057 l 415 1057 l 603 1257 l 778 1257 l 889 1057 z "},"Ÿ":{"ha":1028,"x_min":42,"x_max":1049,"o":"m 1049 972 l 901 238 q 810 35 879 122 q 640 -99 742 -51 q 417 -147 538 -147 q 197 -103 300 -147 q 42 11 93 -58 l 142 133 q 256 51 183 82 q 403 19 329 19 q 548 50 481 19 q 661 135 615 81 q 719 256 707 189 l 740 358 q 603 253 681 290 q 438 215 525 217 q 278 251 346 215 q 173 353 210 288 q 136 503 136 418 q 146 590 136 538 l 221 972 l 407 972 l 332 593 q 326 540 326 569 q 370 428 326 469 q 490 388 414 388 q 677 455 593 388 q 794 629 761 522 l 863 972 l 1049 972 m 560 1238 q 613 1216 593 1238 q 632 1161 632 1194 q 600 1084 632 1117 q 525 1051 568 1051 q 471 1074 492 1051 q 450 1129 450 1096 q 482 1206 450 1175 q 560 1238 514 1238 m 811 1238 q 865 1216 844 1238 q 885 1161 885 1194 q 853 1084 885 1117 q 776 1051 821 1051 q 723 1074 743 1051 q 703 1129 703 1096 q 735 1206 703 1175 q 811 1238 767 1238 z "},"Ẏ":{"ha":1028,"x_min":42,"x_max":1049,"o":"m 1049 972 l 901 238 q 810 35 879 122 q 640 -99 742 -51 q 417 -147 538 -147 q 197 -103 300 -147 q 42 11 93 -58 l 142 133 q 256 51 183 82 q 403 19 329 19 q 548 50 481 19 q 661 135 615 81 q 719 256 707 189 l 740 358 q 603 253 681 290 q 438 215 525 217 q 278 251 346 215 q 173 353 210 288 q 136 503 136 418 q 146 590 136 538 l 221 972 l 407 972 l 332 593 q 326 540 326 569 q 370 428 326 469 q 490 388 414 388 q 677 455 593 388 q 794 629 761 522 l 863 972 l 1049 972 m 690 1267 q 751 1242 728 1267 q 775 1178 775 1217 q 738 1088 775 1125 q 650 1051 700 1051 q 589 1076 613 1051 q 565 1140 565 1101 q 603 1230 565 1193 q 690 1267 640 1267 z "},"Ỵ":{"ha":1028,"x_min":42,"x_max":1049,"o":"m 1049 972 l 901 238 q 810 35 879 122 q 640 -99 742 -51 q 417 -147 538 -147 q 197 -103 300 -147 q 42 11 93 -58 l 142 133 q 256 51 183 82 q 403 19 329 19 q 548 50 481 19 q 661 135 615 81 q 719 256 707 189 l 740 358 q 603 253 681 290 q 438 215 525 217 q 278 251 346 215 q 173 353 210 288 q 136 503 136 418 q 146 590 136 538 l 221 972 l 407 972 l 332 593 q 326 540 326 569 q 370 428 326 469 q 490 388 414 388 q 677 455 593 388 q 794 629 761 522 l 863 972 l 1049 972 m 394 -228 q 456 -253 432 -228 q 479 -317 479 -278 q 442 -406 479 -369 q 354 -443 404 -443 q 293 -418 317 -443 q 269 -354 269 -393 q 307 -265 269 -301 q 394 -228 344 -228 z "},"Ỳ":{"ha":1028,"x_min":42,"x_max":1049,"o":"m 1049 972 l 901 238 q 810 35 879 122 q 640 -99 742 -51 q 417 -147 538 -147 q 197 -103 300 -147 q 42 11 93 -58 l 142 133 q 256 51 183 82 q 403 19 329 19 q 548 50 481 19 q 661 135 615 81 q 719 256 707 189 l 740 358 q 603 253 681 290 q 438 215 525 217 q 278 251 346 215 q 173 353 210 288 q 136 503 136 418 q 146 590 136 538 l 221 972 l 407 972 l 332 593 q 326 540 326 569 q 370 428 326 469 q 490 388 414 388 q 677 455 593 388 q 794 629 761 522 l 863 972 l 1049 972 m 618 1264 l 758 1064 l 617 1050 l 443 1193 l 618 1264 z "},"Ỷ":{"ha":1028,"x_min":42,"x_max":1049,"o":"m 1049 972 l 901 238 q 810 35 879 122 q 640 -99 742 -51 q 417 -147 538 -147 q 197 -103 300 -147 q 42 11 93 -58 l 142 133 q 256 51 183 82 q 403 19 329 19 q 548 50 481 19 q 661 135 615 81 q 719 256 707 189 l 740 358 q 603 253 681 290 q 438 215 525 217 q 278 251 346 215 q 173 353 210 288 q 136 503 136 418 q 146 590 136 538 l 221 972 l 407 972 l 332 593 q 326 540 326 569 q 370 428 326 469 q 490 388 414 388 q 677 455 593 388 q 794 629 761 522 l 863 972 l 1049 972 m 707 1332 q 795 1306 761 1332 q 829 1233 829 1281 q 788 1132 829 1185 q 682 1031 747 1079 l 597 1071 q 657 1134 635 1101 q 679 1188 679 1167 q 670 1210 679 1201 q 646 1218 661 1218 q 593 1200 624 1218 l 556 1288 q 707 1332 629 1332 z "},"Ȳ":{"ha":1028,"x_min":42,"x_max":1049,"o":"m 1049 972 l 901 238 q 810 35 879 122 q 640 -99 742 -51 q 417 -147 538 -147 q 197 -103 300 -147 q 42 11 93 -58 l 142 133 q 256 51 183 82 q 403 19 329 19 q 548 50 481 19 q 661 135 615 81 q 719 256 707 189 l 740 358 q 603 253 681 290 q 438 215 525 217 q 278 251 346 215 q 173 353 210 288 q 136 503 136 418 q 146 590 136 538 l 221 972 l 407 972 l 332 593 q 326 540 326 569 q 370 428 326 469 q 490 388 414 388 q 677 455 593 388 q 794 629 761 522 l 863 972 l 1049 972 m 461 1178 l 883 1178 l 863 1063 l 440 1063 l 461 1178 z "},"Ỹ":{"ha":1028,"x_min":42,"x_max":1049,"o":"m 1049 972 l 901 238 q 810 35 879 122 q 640 -99 742 -51 q 417 -147 538 -147 q 197 -103 300 -147 q 42 11 93 -58 l 142 133 q 256 51 183 82 q 403 19 329 19 q 548 50 481 19 q 661 135 615 81 q 719 256 707 189 l 740 358 q 603 253 681 290 q 438 215 525 217 q 278 251 346 215 q 173 353 210 288 q 136 503 136 418 q 146 590 136 538 l 221 972 l 407 972 l 332 593 q 326 540 326 569 q 370 428 326 469 q 490 388 414 388 q 677 455 593 388 q 794 629 761 522 l 863 972 l 1049 972 m 917 1246 q 760 1051 882 1051 q 706 1061 729 1051 q 644 1093 683 1071 q 589 1118 607 1118 q 556 1102 567 1118 q 538 1056 544 1086 l 422 1056 q 581 1251 457 1251 q 638 1240 611 1251 q 694 1210 664 1229 q 753 1185 735 1185 q 801 1246 792 1185 l 917 1246 z "},"Z":{"ha":944,"x_min":-10,"x_max":975,"o":"m 975 972 l 954 842 l 661 550 l 807 550 l 781 408 l 518 408 l 272 164 l 847 164 l 822 0 l -10 0 l 11 131 l 303 419 l 153 419 l 179 561 l 444 561 l 694 808 l 143 808 l 168 972 l 975 972 z "},"Ź":{"ha":944,"x_min":-10,"x_max":975,"o":"m 975 972 l 954 842 l 661 550 l 807 550 l 781 408 l 518 408 l 272 164 l 847 164 l 822 0 l -10 0 l 11 131 l 303 419 l 153 419 l 179 561 l 444 561 l 694 808 l 143 808 l 168 972 l 975 972 m 649 1264 l 822 1193 l 644 1050 l 504 1064 l 649 1264 z "},"Ž":{"ha":944,"x_min":-10,"x_max":975,"o":"m 975 972 l 954 842 l 661 550 l 807 550 l 781 408 l 518 408 l 272 164 l 847 164 l 822 0 l -10 0 l 11 131 l 303 419 l 153 419 l 179 561 l 444 561 l 694 808 l 143 808 l 168 972 l 975 972 m 708 1257 l 869 1257 l 682 1057 l 507 1057 l 396 1257 l 557 1257 l 617 1169 l 708 1257 z "},"Ż":{"ha":944,"x_min":-10,"x_max":975,"o":"m 975 972 l 954 842 l 661 550 l 807 550 l 781 408 l 518 408 l 272 164 l 847 164 l 822 0 l -10 0 l 11 131 l 303 419 l 153 419 l 179 561 l 444 561 l 694 808 l 143 808 l 168 972 l 975 972 m 635 1267 q 696 1242 672 1267 q 719 1178 719 1217 q 682 1088 719 1125 q 594 1051 644 1051 q 533 1076 557 1051 q 510 1140 510 1101 q 547 1230 510 1193 q 635 1267 585 1267 z "},"Ẓ":{"ha":944,"x_min":-10,"x_max":975,"o":"m 975 972 l 954 842 l 661 550 l 807 550 l 781 408 l 518 408 l 272 164 l 847 164 l 822 0 l -10 0 l 11 131 l 303 419 l 153 419 l 179 561 l 444 561 l 694 808 l 143 808 l 168 972 l 975 972 m 421 -97 q 482 -122 458 -97 q 506 -186 506 -147 q 468 -276 506 -239 q 381 -312 431 -312 q 319 -287 343 -312 q 296 -224 296 -262 q 333 -134 296 -171 q 421 -97 371 -97 z "},"a":{"ha":985,"x_min":44,"x_max":926,"o":"m 347 -8 q 190 33 258 -8 q 83 151 121 75 q 44 324 44 226 q 97 540 44 443 q 242 694 150 638 q 446 750 333 750 q 603 710 539 750 q 697 596 668 671 l 728 743 l 910 743 l 807 238 q 803 208 803 221 q 847 163 803 163 q 926 182 876 163 l 897 15 q 793 -3 847 -3 q 693 28 732 -3 q 640 118 654 58 l 635 143 q 504 31 578 69 q 347 -8 431 -8 m 413 140 q 535 175 479 140 q 622 269 590 210 q 654 397 654 328 q 604 538 654 485 q 471 592 554 592 q 349 557 404 592 q 260 463 293 522 q 228 333 228 403 q 278 193 228 246 q 413 140 329 140 z "},"á":{"ha":985,"x_min":44,"x_max":926,"o":"m 347 -8 q 190 33 258 -8 q 83 151 121 75 q 44 324 44 226 q 97 540 44 443 q 242 694 150 638 q 446 750 333 750 q 603 710 539 750 q 697 596 668 671 l 728 743 l 910 743 l 807 238 q 803 208 803 221 q 847 163 803 163 q 926 182 876 163 l 897 15 q 793 -3 847 -3 q 693 28 732 -3 q 640 118 654 58 l 635 143 q 504 31 578 69 q 347 -8 431 -8 m 413 140 q 535 175 479 140 q 622 269 590 210 q 654 397 654 328 q 604 538 654 485 q 471 592 554 592 q 349 557 404 592 q 260 463 293 522 q 228 333 228 403 q 278 193 228 246 q 413 140 329 140 m 581 1056 l 754 985 l 576 842 l 436 856 l 581 1056 z "},"ă":{"ha":985,"x_min":44,"x_max":926,"o":"m 347 -8 q 190 33 258 -8 q 83 151 121 75 q 44 324 44 226 q 97 540 44 443 q 242 694 150 638 q 446 750 333 750 q 603 710 539 750 q 697 596 668 671 l 728 743 l 910 743 l 807 238 q 803 208 803 221 q 847 163 803 163 q 926 182 876 163 l 897 15 q 793 -3 847 -3 q 693 28 732 -3 q 640 118 654 58 l 635 143 q 504 31 578 69 q 347 -8 431 -8 m 413 140 q 535 175 479 140 q 622 269 590 210 q 654 397 654 328 q 604 538 654 485 q 471 592 554 592 q 349 557 404 592 q 260 463 293 522 q 228 333 228 403 q 278 193 228 246 q 413 140 329 140 m 479 1046 q 478 1028 478 1040 q 497 976 478 996 q 546 957 515 957 q 609 982 581 957 q 649 1046 638 1007 l 768 1046 q 680 897 747 953 q 525 840 613 840 q 402 885 447 840 q 357 1006 357 929 q 360 1046 357 1032 l 479 1046 z "},"ắ":{"ha":985,"x_min":44,"x_max":926,"o":"m 347 -8 q 190 33 258 -8 q 83 151 121 75 q 44 324 44 226 q 97 540 44 443 q 242 694 150 638 q 446 750 333 750 q 603 710 539 750 q 697 596 668 671 l 728 743 l 910 743 l 807 238 q 803 208 803 221 q 847 163 803 163 q 926 182 876 163 l 897 15 q 793 -3 847 -3 q 693 28 732 -3 q 640 118 654 58 l 635 143 q 504 31 578 69 q 347 -8 431 -8 m 413 140 q 535 175 479 140 q 622 269 590 210 q 654 397 654 328 q 604 538 654 485 q 471 592 554 592 q 349 557 404 592 q 260 463 293 522 q 228 333 228 403 q 278 193 228 246 q 413 140 329 140 m 472 1015 q 489 967 469 985 q 544 949 508 949 q 608 967 581 949 q 644 1015 636 985 l 765 1015 q 680 885 747 935 q 524 836 613 836 q 396 877 443 836 q 349 986 349 918 q 351 1015 349 996 l 472 1015 m 626 1231 l 771 1138 l 572 1029 l 449 1065 l 626 1231 z "},"ặ":{"ha":985,"x_min":44,"x_max":926,"o":"m 347 -8 q 190 33 258 -8 q 83 151 121 75 q 44 324 44 226 q 97 540 44 443 q 242 694 150 638 q 446 750 333 750 q 603 710 539 750 q 697 596 668 671 l 728 743 l 910 743 l 807 238 q 803 208 803 221 q 847 163 803 163 q 926 182 876 163 l 897 15 q 793 -3 847 -3 q 693 28 732 -3 q 640 118 654 58 l 635 143 q 504 31 578 69 q 347 -8 431 -8 m 413 140 q 535 175 479 140 q 622 269 590 210 q 654 397 654 328 q 604 538 654 485 q 471 592 554 592 q 349 557 404 592 q 260 463 293 522 q 228 333 228 403 q 278 193 228 246 q 413 140 329 140 m 381 -97 q 442 -122 418 -97 q 465 -186 465 -147 q 428 -276 465 -239 q 340 -312 390 -312 q 279 -287 303 -312 q 256 -224 256 -262 q 293 -134 256 -171 q 381 -97 331 -97 m 476 1046 q 475 1028 475 1040 q 494 976 475 996 q 543 957 513 957 q 606 982 578 957 q 646 1046 635 1007 l 765 1046 q 677 897 744 953 q 522 840 610 840 q 399 885 444 840 q 354 1006 354 929 q 357 1046 354 1032 l 476 1046 z "},"ằ":{"ha":985,"x_min":44,"x_max":926,"o":"m 347 -8 q 190 33 258 -8 q 83 151 121 75 q 44 324 44 226 q 97 540 44 443 q 242 694 150 638 q 446 750 333 750 q 603 710 539 750 q 697 596 668 671 l 728 743 l 910 743 l 807 238 q 803 208 803 221 q 847 163 803 163 q 926 182 876 163 l 897 15 q 793 -3 847 -3 q 693 28 732 -3 q 640 118 654 58 l 635 143 q 504 31 578 69 q 347 -8 431 -8 m 413 140 q 535 175 479 140 q 622 269 590 210 q 654 397 654 328 q 604 538 654 485 q 471 592 554 592 q 349 557 404 592 q 260 463 293 522 q 228 333 228 403 q 278 193 228 246 q 413 140 329 140 m 471 1015 q 488 967 468 985 q 543 949 507 949 q 607 967 579 949 q 643 1015 635 985 l 764 1015 q 678 885 746 935 q 522 836 611 836 q 394 877 442 836 q 347 986 347 918 q 350 1015 347 996 l 471 1015 m 482 1231 l 661 1065 l 538 1029 l 338 1138 l 482 1231 z "},"ẳ":{"ha":985,"x_min":44,"x_max":926,"o":"m 347 -8 q 190 33 258 -8 q 83 151 121 75 q 44 324 44 226 q 97 540 44 443 q 242 694 150 638 q 446 750 333 750 q 603 710 539 750 q 697 596 668 671 l 728 743 l 910 743 l 807 238 q 803 208 803 221 q 847 163 803 163 q 926 182 876 163 l 897 15 q 793 -3 847 -3 q 693 28 732 -3 q 640 118 654 58 l 635 143 q 504 31 578 69 q 347 -8 431 -8 m 413 140 q 535 175 479 140 q 622 269 590 210 q 654 397 654 328 q 604 538 654 485 q 471 592 554 592 q 349 557 404 592 q 260 463 293 522 q 228 333 228 403 q 278 193 228 246 q 413 140 329 140 m 472 1015 q 489 967 469 985 q 544 949 508 949 q 608 967 581 949 q 644 1015 636 985 l 765 1015 q 680 885 747 935 q 524 836 613 836 q 396 877 443 836 q 349 986 349 918 q 351 1015 349 996 l 472 1015 m 594 1260 q 674 1237 644 1260 q 703 1179 703 1214 q 578 1026 703 1107 l 500 1061 q 548 1101 531 1081 q 565 1136 565 1121 q 538 1157 565 1157 q 493 1144 513 1157 l 457 1218 q 594 1260 525 1260 z "},"ẵ":{"ha":985,"x_min":44,"x_max":926,"o":"m 347 -8 q 190 33 258 -8 q 83 151 121 75 q 44 324 44 226 q 97 540 44 443 q 242 694 150 638 q 446 750 333 750 q 603 710 539 750 q 697 596 668 671 l 728 743 l 910 743 l 807 238 q 803 208 803 221 q 847 163 803 163 q 926 182 876 163 l 897 15 q 793 -3 847 -3 q 693 28 732 -3 q 640 118 654 58 l 635 143 q 504 31 578 69 q 347 -8 431 -8 m 413 140 q 535 175 479 140 q 622 269 590 210 q 654 397 654 328 q 604 538 654 485 q 471 592 554 592 q 349 557 404 592 q 260 463 293 522 q 228 333 228 403 q 278 193 228 246 q 413 140 329 140 m 472 1015 q 489 967 469 985 q 544 949 508 949 q 608 967 581 949 q 644 1015 636 985 l 765 1015 q 680 885 747 935 q 524 836 613 836 q 396 877 443 836 q 349 986 349 918 q 351 1015 349 996 l 472 1015 m 825 1242 q 774 1118 811 1163 q 674 1074 736 1074 q 615 1084 642 1074 q 553 1113 588 1094 q 519 1129 536 1122 q 490 1136 503 1136 q 453 1122 465 1136 q 436 1078 442 1107 l 340 1078 q 492 1247 371 1247 q 551 1237 524 1247 q 611 1208 579 1226 q 630 1199 615 1206 q 655 1188 644 1192 q 675 1185 665 1185 q 710 1199 699 1185 q 728 1242 722 1214 l 825 1242 z "},"â":{"ha":985,"x_min":44,"x_max":926,"o":"m 347 -8 q 190 33 258 -8 q 83 151 121 75 q 44 324 44 226 q 97 540 44 443 q 242 694 150 638 q 446 750 333 750 q 603 710 539 750 q 697 596 668 671 l 728 743 l 910 743 l 807 238 q 803 208 803 221 q 847 163 803 163 q 926 182 876 163 l 897 15 q 793 -3 847 -3 q 693 28 732 -3 q 640 118 654 58 l 635 143 q 504 31 578 69 q 347 -8 431 -8 m 413 140 q 535 175 479 140 q 622 269 590 210 q 654 397 654 328 q 604 538 654 485 q 471 592 554 592 q 349 557 404 592 q 260 463 293 522 q 228 333 228 403 q 278 193 228 246 q 413 140 329 140 m 764 851 l 603 851 l 543 939 l 451 851 l 290 851 l 478 1051 l 653 1051 l 764 851 z "},"ấ":{"ha":985,"x_min":44,"x_max":926,"o":"m 347 -8 q 190 33 258 -8 q 83 151 121 75 q 44 324 44 226 q 97 540 44 443 q 242 694 150 638 q 446 750 333 750 q 603 710 539 750 q 697 596 668 671 l 728 743 l 910 743 l 807 238 q 803 208 803 221 q 847 163 803 163 q 926 182 876 163 l 897 15 q 793 -3 847 -3 q 693 28 732 -3 q 640 118 654 58 l 635 143 q 504 31 578 69 q 347 -8 431 -8 m 413 140 q 535 175 479 140 q 622 269 590 210 q 654 397 654 328 q 604 538 654 485 q 471 592 554 592 q 349 557 404 592 q 260 463 293 522 q 228 333 228 403 q 278 193 228 246 q 413 140 329 140 m 788 836 l 611 836 l 539 910 l 439 836 l 260 836 l 439 986 l 661 986 l 788 836 m 625 1228 l 769 1135 l 571 1026 l 447 1063 l 625 1228 z "},"ậ":{"ha":985,"x_min":44,"x_max":926,"o":"m 347 -8 q 190 33 258 -8 q 83 151 121 75 q 44 324 44 226 q 97 540 44 443 q 242 694 150 638 q 446 750 333 750 q 603 710 539 750 q 697 596 668 671 l 728 743 l 910 743 l 807 238 q 803 208 803 221 q 847 163 803 163 q 926 182 876 163 l 897 15 q 793 -3 847 -3 q 693 28 732 -3 q 640 118 654 58 l 635 143 q 504 31 578 69 q 347 -8 431 -8 m 413 140 q 535 175 479 140 q 622 269 590 210 q 654 397 654 328 q 604 538 654 485 q 471 592 554 592 q 349 557 404 592 q 260 463 293 522 q 228 333 228 403 q 278 193 228 246 q 413 140 329 140 m 381 -97 q 442 -122 418 -97 q 465 -186 465 -147 q 428 -276 465 -239 q 340 -312 390 -312 q 279 -287 303 -312 q 256 -224 256 -262 q 293 -134 256 -171 q 381 -97 331 -97 m 761 851 l 600 851 l 540 939 l 449 851 l 288 851 l 475 1051 l 650 1051 l 761 851 z "},"ầ":{"ha":985,"x_min":44,"x_max":926,"o":"m 347 -8 q 190 33 258 -8 q 83 151 121 75 q 44 324 44 226 q 97 540 44 443 q 242 694 150 638 q 446 750 333 750 q 603 710 539 750 q 697 596 668 671 l 728 743 l 910 743 l 807 238 q 803 208 803 221 q 847 163 803 163 q 926 182 876 163 l 897 15 q 793 -3 847 -3 q 693 28 732 -3 q 640 118 654 58 l 635 143 q 504 31 578 69 q 347 -8 431 -8 m 413 140 q 535 175 479 140 q 622 269 590 210 q 654 397 654 328 q 604 538 654 485 q 471 592 554 592 q 349 557 404 592 q 260 463 293 522 q 228 333 228 403 q 278 193 228 246 q 413 140 329 140 m 789 836 l 613 836 l 540 910 l 440 836 l 261 836 l 440 986 l 663 986 l 789 836 m 483 1228 l 663 1063 l 539 1026 l 339 1135 l 483 1228 z "},"ẩ":{"ha":985,"x_min":44,"x_max":926,"o":"m 347 -8 q 190 33 258 -8 q 83 151 121 75 q 44 324 44 226 q 97 540 44 443 q 242 694 150 638 q 446 750 333 750 q 603 710 539 750 q 697 596 668 671 l 728 743 l 910 743 l 807 238 q 803 208 803 221 q 847 163 803 163 q 926 182 876 163 l 897 15 q 793 -3 847 -3 q 693 28 732 -3 q 640 118 654 58 l 635 143 q 504 31 578 69 q 347 -8 431 -8 m 413 140 q 535 175 479 140 q 622 269 590 210 q 654 397 654 328 q 604 538 654 485 q 471 592 554 592 q 349 557 404 592 q 260 463 293 522 q 228 333 228 403 q 278 193 228 246 q 413 140 329 140 m 789 836 l 613 836 l 540 910 l 440 836 l 261 836 l 440 986 l 663 986 l 789 836 m 594 1257 q 674 1234 644 1257 q 703 1176 703 1211 q 578 1024 703 1104 l 500 1058 q 548 1098 531 1078 q 565 1133 565 1118 q 538 1154 565 1154 q 493 1142 513 1154 l 457 1215 q 594 1257 525 1257 z "},"ẫ":{"ha":985,"x_min":44,"x_max":926,"o":"m 347 -8 q 190 33 258 -8 q 83 151 121 75 q 44 324 44 226 q 97 540 44 443 q 242 694 150 638 q 446 750 333 750 q 603 710 539 750 q 697 596 668 671 l 728 743 l 910 743 l 807 238 q 803 208 803 221 q 847 163 803 163 q 926 182 876 163 l 897 15 q 793 -3 847 -3 q 693 28 732 -3 q 640 118 654 58 l 635 143 q 504 31 578 69 q 347 -8 431 -8 m 413 140 q 535 175 479 140 q 622 269 590 210 q 654 397 654 328 q 604 538 654 485 q 471 592 554 592 q 349 557 404 592 q 260 463 293 522 q 228 333 228 403 q 278 193 228 246 q 413 140 329 140 m 789 836 l 613 836 l 540 910 l 440 836 l 261 836 l 440 986 l 663 986 l 789 836 m 817 1206 q 765 1082 803 1126 q 665 1038 728 1038 q 606 1048 633 1038 q 544 1076 579 1058 q 511 1093 528 1086 q 482 1100 494 1100 q 445 1085 457 1100 q 428 1042 433 1071 l 332 1042 q 483 1211 363 1211 q 543 1201 515 1211 q 603 1172 571 1190 q 622 1163 607 1169 q 647 1152 636 1156 q 667 1149 657 1149 q 702 1163 690 1149 q 719 1206 714 1178 l 817 1206 z "},"ȁ":{"ha":985,"x_min":44,"x_max":926,"o":"m 347 -8 q 190 33 258 -8 q 83 151 121 75 q 44 324 44 226 q 97 540 44 443 q 242 694 150 638 q 446 750 333 750 q 603 710 539 750 q 697 596 668 671 l 728 743 l 910 743 l 807 238 q 803 208 803 221 q 847 163 803 163 q 926 182 876 163 l 897 15 q 793 -3 847 -3 q 693 28 732 -3 q 640 118 654 58 l 635 143 q 504 31 578 69 q 347 -8 431 -8 m 413 140 q 535 175 479 140 q 622 269 590 210 q 654 397 654 328 q 604 538 654 485 q 471 592 554 592 q 349 557 404 592 q 260 463 293 522 q 228 333 228 403 q 278 193 228 246 q 413 140 329 140 m 417 1064 l 486 854 l 353 842 l 256 1000 l 417 1064 m 657 1064 l 726 854 l 593 842 l 496 1000 l 657 1064 z "},"ä":{"ha":985,"x_min":44,"x_max":926,"o":"m 347 -8 q 190 33 258 -8 q 83 151 121 75 q 44 324 44 226 q 97 540 44 443 q 242 694 150 638 q 446 750 333 750 q 603 710 539 750 q 697 596 668 671 l 728 743 l 910 743 l 807 238 q 803 208 803 221 q 847 163 803 163 q 926 182 876 163 l 897 15 q 793 -3 847 -3 q 693 28 732 -3 q 640 118 654 58 l 635 143 q 504 31 578 69 q 347 -8 431 -8 m 413 140 q 535 175 479 140 q 622 269 590 210 q 654 397 654 328 q 604 538 654 485 q 471 592 554 592 q 349 557 404 592 q 260 463 293 522 q 228 333 228 403 q 278 193 228 246 q 413 140 329 140 m 439 1043 q 492 1022 472 1043 q 511 967 511 1000 q 479 890 511 922 q 404 857 447 857 q 350 879 371 857 q 329 935 329 901 q 361 1012 329 981 q 439 1043 393 1043 m 690 1043 q 744 1022 724 1043 q 764 967 764 1000 q 732 890 764 922 q 656 857 700 857 q 602 879 622 857 q 582 935 582 901 q 614 1012 582 981 q 690 1043 646 1043 z "},"ạ":{"ha":985,"x_min":44,"x_max":926,"o":"m 347 -8 q 190 33 258 -8 q 83 151 121 75 q 44 324 44 226 q 97 540 44 443 q 242 694 150 638 q 446 750 333 750 q 603 710 539 750 q 697 596 668 671 l 728 743 l 910 743 l 807 238 q 803 208 803 221 q 847 163 803 163 q 926 182 876 163 l 897 15 q 793 -3 847 -3 q 693 28 732 -3 q 640 118 654 58 l 635 143 q 504 31 578 69 q 347 -8 431 -8 m 413 140 q 535 175 479 140 q 622 269 590 210 q 654 397 654 328 q 604 538 654 485 q 471 592 554 592 q 349 557 404 592 q 260 463 293 522 q 228 333 228 403 q 278 193 228 246 q 413 140 329 140 m 381 -97 q 442 -122 418 -97 q 465 -186 465 -147 q 428 -276 465 -239 q 340 -312 390 -312 q 279 -287 303 -312 q 256 -224 256 -262 q 293 -134 256 -171 q 381 -97 331 -97 z "},"à":{"ha":985,"x_min":44,"x_max":926,"o":"m 347 -8 q 190 33 258 -8 q 83 151 121 75 q 44 324 44 226 q 97 540 44 443 q 242 694 150 638 q 446 750 333 750 q 603 710 539 750 q 697 596 668 671 l 728 743 l 910 743 l 807 238 q 803 208 803 221 q 847 163 803 163 q 926 182 876 163 l 897 15 q 793 -3 847 -3 q 693 28 732 -3 q 640 118 654 58 l 635 143 q 504 31 578 69 q 347 -8 431 -8 m 413 140 q 535 175 479 140 q 622 269 590 210 q 654 397 654 328 q 604 538 654 485 q 471 592 554 592 q 349 557 404 592 q 260 463 293 522 q 228 333 228 403 q 278 193 228 246 q 413 140 329 140 m 493 1056 l 633 856 l 492 842 l 318 985 l 493 1056 z "},"ả":{"ha":985,"x_min":44,"x_max":926,"o":"m 347 -8 q 190 33 258 -8 q 83 151 121 75 q 44 324 44 226 q 97 540 44 443 q 242 694 150 638 q 446 750 333 750 q 603 710 539 750 q 697 596 668 671 l 728 743 l 910 743 l 807 238 q 803 208 803 221 q 847 163 803 163 q 926 182 876 163 l 897 15 q 793 -3 847 -3 q 693 28 732 -3 q 640 118 654 58 l 635 143 q 504 31 578 69 q 347 -8 431 -8 m 413 140 q 535 175 479 140 q 622 269 590 210 q 654 397 654 328 q 604 538 654 485 q 471 592 554 592 q 349 557 404 592 q 260 463 293 522 q 228 333 228 403 q 278 193 228 246 q 413 140 329 140 m 579 1106 q 667 1080 633 1106 q 701 1007 701 1054 q 660 906 701 958 q 554 803 619 853 l 469 844 q 529 906 507 874 q 551 960 551 939 q 542 982 551 974 q 518 990 533 990 q 465 974 493 990 l 428 1060 q 579 1106 500 1106 z "},"ȃ":{"ha":985,"x_min":44,"x_max":926,"o":"m 347 -8 q 190 33 258 -8 q 83 151 121 75 q 44 324 44 226 q 97 540 44 443 q 242 694 150 638 q 446 750 333 750 q 603 710 539 750 q 697 596 668 671 l 728 743 l 910 743 l 807 238 q 803 208 803 221 q 847 163 803 163 q 926 182 876 163 l 897 15 q 793 -3 847 -3 q 693 28 732 -3 q 640 118 654 58 l 635 143 q 504 31 578 69 q 347 -8 431 -8 m 413 140 q 535 175 479 140 q 622 269 590 210 q 654 397 654 328 q 604 538 654 485 q 471 592 554 592 q 349 557 404 592 q 260 463 293 522 q 228 333 228 403 q 278 193 228 246 q 413 140 329 140 m 610 840 q 611 858 611 846 q 592 910 611 890 q 543 929 574 929 q 480 904 508 929 q 440 840 451 879 l 321 840 q 409 990 342 933 q 564 1046 476 1046 q 687 1001 642 1046 q 732 881 732 957 q 729 840 732 854 l 610 840 z "},"ā":{"ha":985,"x_min":44,"x_max":926,"o":"m 347 -8 q 190 33 258 -8 q 83 151 121 75 q 44 324 44 226 q 97 540 44 443 q 242 694 150 638 q 446 750 333 750 q 603 710 539 750 q 697 596 668 671 l 728 743 l 910 743 l 807 238 q 803 208 803 221 q 847 163 803 163 q 926 182 876 163 l 897 15 q 793 -3 847 -3 q 693 28 732 -3 q 640 118 654 58 l 635 143 q 504 31 578 69 q 347 -8 431 -8 m 413 140 q 535 175 479 140 q 622 269 590 210 q 654 397 654 328 q 604 538 654 485 q 471 592 554 592 q 349 557 404 592 q 260 463 293 522 q 228 333 228 403 q 278 193 228 246 q 413 140 329 140 m 349 1008 l 764 1008 l 742 893 l 328 893 l 349 1008 z "},"ą":{"ha":985,"x_min":44,"x_max":926,"o":"m 800 -39 q 736 -92 756 -71 q 717 -137 717 -112 q 747 -162 717 -162 q 793 -153 772 -162 l 811 -262 q 683 -289 744 -289 q 590 -261 624 -289 q 556 -185 556 -233 q 592 -83 556 -135 q 707 18 628 -31 q 640 118 657 47 l 635 143 q 504 31 578 69 q 347 -8 431 -8 q 190 33 258 -8 q 83 151 121 75 q 44 324 44 226 q 97 540 44 443 q 242 694 150 638 q 446 750 333 750 q 603 710 539 750 q 697 596 668 671 l 728 743 l 910 743 l 807 238 q 803 208 803 221 q 847 163 803 163 q 926 182 876 163 l 897 15 q 800 -39 839 -11 m 413 140 q 535 175 479 140 q 622 269 590 210 q 654 397 654 328 q 604 538 654 485 q 471 592 554 592 q 349 557 404 592 q 260 463 293 522 q 228 333 228 403 q 278 193 228 246 q 413 140 329 140 z "},"å":{"ha":985,"x_min":44,"x_max":926,"o":"m 347 -8 q 190 33 258 -8 q 83 151 121 75 q 44 324 44 226 q 97 540 44 443 q 242 694 150 638 q 446 750 333 750 q 603 710 539 750 q 697 596 668 671 l 728 743 l 910 743 l 807 238 q 803 208 803 221 q 847 163 803 163 q 926 182 876 163 l 897 15 q 793 -3 847 -3 q 693 28 732 -3 q 640 118 654 58 l 635 143 q 504 31 578 69 q 347 -8 431 -8 m 413 140 q 535 175 479 140 q 622 269 590 210 q 654 397 654 328 q 604 538 654 485 q 471 592 554 592 q 349 557 404 592 q 260 463 293 522 q 228 333 228 403 q 278 193 228 246 q 413 140 329 140 m 563 1114 q 663 1074 624 1114 q 701 975 701 1035 q 677 889 701 929 q 613 825 653 849 q 526 801 572 801 q 427 840 467 801 q 388 938 388 879 q 412 1024 388 983 q 477 1090 436 1065 q 563 1114 518 1114 m 553 1022 q 500 1001 522 1022 q 478 949 478 979 q 494 908 478 925 q 536 892 510 892 q 589 914 565 892 q 613 965 613 936 q 596 1006 613 989 q 553 1022 579 1022 z "},"ǻ":{"ha":985,"x_min":44,"x_max":926,"o":"m 347 -8 q 190 33 258 -8 q 83 151 121 75 q 44 324 44 226 q 97 540 44 443 q 242 694 150 638 q 446 750 333 750 q 603 710 539 750 q 697 596 668 671 l 728 743 l 910 743 l 807 238 q 803 208 803 221 q 847 163 803 163 q 926 182 876 163 l 897 15 q 793 -3 847 -3 q 693 28 732 -3 q 640 118 654 58 l 635 143 q 504 31 578 69 q 347 -8 431 -8 m 413 140 q 535 175 479 140 q 622 269 590 210 q 654 397 654 328 q 604 538 654 485 q 471 592 554 592 q 349 557 404 592 q 260 463 293 522 q 228 333 228 403 q 278 193 228 246 q 413 140 329 140 m 556 1115 q 656 1076 617 1115 q 694 976 694 1036 q 670 890 694 931 q 606 826 646 850 q 519 803 565 803 q 420 842 460 803 q 381 939 381 881 q 405 1026 381 985 q 470 1091 429 1067 q 556 1115 511 1115 m 546 1024 q 493 1002 515 1024 q 471 950 471 981 q 487 910 471 926 q 529 893 503 893 q 582 915 558 893 q 606 967 606 938 q 589 1007 606 990 q 546 1024 572 1024 m 642 1347 l 786 1254 l 588 1146 l 464 1182 l 642 1347 z "},"ã":{"ha":985,"x_min":44,"x_max":926,"o":"m 347 -8 q 190 33 258 -8 q 83 151 121 75 q 44 324 44 226 q 97 540 44 443 q 242 694 150 638 q 446 750 333 750 q 603 710 539 750 q 697 596 668 671 l 728 743 l 910 743 l 807 238 q 803 208 803 221 q 847 163 803 163 q 926 182 876 163 l 897 15 q 793 -3 847 -3 q 693 28 732 -3 q 640 118 654 58 l 635 143 q 504 31 578 69 q 347 -8 431 -8 m 413 140 q 535 175 479 140 q 622 269 590 210 q 654 397 654 328 q 604 538 654 485 q 471 592 554 592 q 349 557 404 592 q 260 463 293 522 q 228 333 228 403 q 278 193 228 246 q 413 140 329 140 m 792 1031 q 635 836 757 836 q 581 846 604 836 q 519 878 558 856 q 464 903 482 903 q 431 887 442 903 q 413 840 419 871 l 297 840 q 456 1036 332 1036 q 513 1025 486 1036 q 569 994 539 1014 q 628 969 610 969 q 676 1031 667 969 l 792 1031 z "},"æ":{"ha":1333,"x_min":19,"x_max":1289,"o":"m 961 749 q 1201 658 1114 749 q 1285 411 1289 567 l 740 264 q 808 172 761 206 q 924 138 856 138 q 1039 165 982 138 q 1144 243 1096 192 l 1244 142 q 910 -7 1110 -7 q 721 36 803 -7 q 596 156 639 79 q 269 -8 492 -8 q 88 51 157 -8 q 19 210 19 111 q 99 382 19 319 q 318 446 179 444 l 539 446 l 542 471 q 507 569 546 536 q 389 603 468 603 q 161 532 285 603 l 101 660 q 270 731 197 711 q 433 750 343 750 q 583 724 519 750 q 681 650 647 697 q 961 749 789 749 m 1118 496 q 958 607 1085 607 q 802 548 863 607 q 729 386 742 489 l 1118 496 m 531 325 l 344 325 q 235 301 272 325 q 192 226 197 276 q 219 156 188 182 q 311 131 251 131 q 447 167 386 131 q 524 257 507 203 l 531 325 z "},"ǽ":{"ha":1333,"x_min":19,"x_max":1285,"o":"m 961 749 q 1201 658 1114 749 q 1285 411 1289 567 l 740 264 q 808 172 761 206 q 924 138 856 138 q 1039 165 982 138 q 1144 243 1096 192 l 1244 142 q 910 -7 1110 -7 q 721 36 803 -7 q 596 156 639 79 q 269 -8 492 -8 q 88 51 157 -8 q 19 210 19 111 q 99 382 19 319 q 318 446 179 444 l 539 446 l 542 471 q 507 569 546 536 q 389 603 468 603 q 161 532 285 603 l 101 660 q 270 731 197 711 q 433 750 343 750 q 583 724 519 750 q 681 650 647 697 q 961 749 789 749 m 1118 496 q 958 607 1085 607 q 802 548 863 607 q 729 386 742 489 l 1118 496 m 531 325 l 344 325 q 235 301 272 325 q 192 226 197 276 q 219 156 188 182 q 311 131 251 131 q 447 167 386 131 q 524 257 507 203 l 531 325 m 769 1056 l 943 985 l 765 842 l 625 856 l 769 1056 z "},"b":{"ha":954,"x_min":46,"x_max":910,"o":"m 606 749 q 764 707 694 749 q 872 590 833 665 q 910 417 910 514 q 857 200 910 297 q 713 47 804 103 q 508 -10 621 -10 q 350 30 414 -10 q 256 144 286 69 l 226 0 l 46 0 l 251 1031 l 431 1031 l 353 639 q 467 720 403 692 q 606 749 532 749 m 542 600 q 419 565 475 600 q 332 472 364 531 q 300 343 300 413 q 350 202 300 256 q 483 149 400 149 q 605 183 549 149 q 694 278 661 218 q 726 407 726 338 q 675 547 726 494 q 542 600 624 600 z "},"c":{"ha":810,"x_min":46,"x_max":763,"o":"m 386 -7 q 208 35 285 -7 q 88 155 131 78 q 46 332 46 232 q 100 548 46 453 q 249 696 154 643 q 463 749 344 749 q 640 713 564 749 q 763 613 717 678 l 642 508 q 456 590 575 590 q 340 559 392 590 q 258 472 288 528 q 228 344 228 417 q 278 203 228 257 q 410 149 328 149 q 618 236 543 149 l 722 143 q 580 32 665 71 q 386 -7 494 -7 z "},"ć":{"ha":810,"x_min":46,"x_max":763,"o":"m 386 -7 q 208 35 285 -7 q 88 155 131 78 q 46 332 46 232 q 100 548 46 453 q 249 696 154 643 q 463 749 344 749 q 640 713 564 749 q 763 613 717 678 l 642 508 q 456 590 575 590 q 340 559 392 590 q 258 472 288 528 q 228 344 228 417 q 278 203 228 257 q 410 149 328 149 q 618 236 543 149 l 722 143 q 580 32 665 71 q 386 -7 494 -7 m 554 1056 l 728 985 l 550 842 l 410 856 l 554 1056 z "},"č":{"ha":810,"x_min":46,"x_max":775,"o":"m 386 -7 q 208 35 285 -7 q 88 155 131 78 q 46 332 46 232 q 100 548 46 453 q 249 696 154 643 q 463 749 344 749 q 640 713 564 749 q 763 613 717 678 l 642 508 q 456 590 575 590 q 340 559 392 590 q 258 472 288 528 q 228 344 228 417 q 278 203 228 257 q 410 149 328 149 q 618 236 543 149 l 722 143 q 580 32 665 71 q 386 -7 494 -7 m 614 1051 l 775 1051 l 588 851 l 413 851 l 301 1051 l 463 1051 l 522 964 l 614 1051 z "},"ç":{"ha":810,"x_min":46,"x_max":763,"o":"m 410 149 q 618 236 543 149 l 722 143 q 588 36 668 75 q 408 -7 508 -3 l 372 -71 q 443 -106 421 -81 q 465 -167 465 -132 q 410 -274 465 -237 q 271 -311 354 -311 q 133 -282 199 -311 l 189 -178 q 264 -193 229 -193 q 309 -183 292 -193 q 326 -157 326 -172 q 309 -135 326 -144 q 263 -126 292 -126 l 222 -126 l 289 4 q 111 119 176 32 q 46 332 46 206 q 100 548 46 453 q 249 696 154 643 q 463 749 344 749 q 640 713 564 749 q 763 613 717 678 l 642 508 q 456 590 575 590 q 340 559 392 590 q 258 472 288 528 q 228 344 228 417 q 278 203 228 257 q 410 149 328 149 z "},"ḉ":{"ha":810,"x_min":46,"x_max":763,"o":"m 724 985 l 546 842 l 406 856 l 550 1056 l 724 985 m 410 149 q 618 236 543 149 l 722 143 q 588 36 668 75 q 408 -7 508 -3 l 372 -71 q 443 -106 421 -81 q 465 -167 465 -132 q 410 -274 465 -237 q 271 -311 354 -311 q 133 -282 199 -311 l 189 -178 q 264 -193 229 -193 q 309 -183 292 -193 q 326 -157 326 -172 q 309 -135 326 -144 q 263 -126 292 -126 l 222 -126 l 289 4 q 111 119 176 32 q 46 332 46 206 q 100 548 46 453 q 249 696 154 643 q 463 749 344 749 q 640 713 564 749 q 763 613 717 678 l 642 508 q 456 590 575 590 q 340 559 392 590 q 258 472 288 528 q 228 344 228 417 q 278 203 228 257 q 410 149 328 149 z "},"ĉ":{"ha":810,"x_min":46,"x_max":763,"o":"m 386 -7 q 208 35 285 -7 q 88 155 131 78 q 46 332 46 232 q 100 548 46 453 q 249 696 154 643 q 463 749 344 749 q 640 713 564 749 q 763 613 717 678 l 642 508 q 456 590 575 590 q 340 559 392 590 q 258 472 288 528 q 228 344 228 417 q 278 203 228 257 q 410 149 328 149 q 618 236 543 149 l 722 143 q 580 32 665 71 q 386 -7 494 -7 m 738 851 l 576 851 l 517 939 l 425 851 l 264 851 l 451 1051 l 626 1051 l 738 851 z "},"ċ":{"ha":810,"x_min":46,"x_max":763,"o":"m 386 -7 q 208 35 285 -7 q 88 155 131 78 q 46 332 46 232 q 100 548 46 453 q 249 696 154 643 q 463 749 344 749 q 640 713 564 749 q 763 613 717 678 l 642 508 q 456 590 575 590 q 340 559 392 590 q 258 472 288 528 q 228 344 228 417 q 278 203 228 257 q 410 149 328 149 q 618 236 543 149 l 722 143 q 580 32 665 71 q 386 -7 494 -7 m 540 1063 q 601 1038 578 1063 q 625 974 625 1013 q 588 884 625 921 q 500 847 550 847 q 439 872 463 847 q 415 936 415 897 q 453 1026 415 989 q 540 1063 490 1063 z "},"d":{"ha":986,"x_min":44,"x_max":965,"o":"m 806 233 q 801 203 801 217 q 846 157 801 157 q 925 176 875 157 l 894 10 q 790 -8 839 -8 q 692 22 731 -8 q 639 107 653 51 l 635 128 q 497 26 571 60 q 347 -8 422 -8 q 194 32 264 -8 q 85 148 125 72 q 44 324 44 224 q 97 540 44 443 q 242 694 150 638 q 446 750 333 750 q 603 710 539 750 q 697 596 668 671 l 785 1031 l 965 1031 l 806 233 m 654 397 q 604 538 654 485 q 471 592 554 592 q 349 557 404 592 q 260 463 293 522 q 228 333 228 403 q 278 193 228 246 q 413 140 329 140 q 535 175 479 140 q 622 269 590 210 q 654 397 654 328 z "},"ð":{"ha":829,"x_min":35,"x_max":803,"o":"m 624 846 q 744 650 703 756 q 786 433 786 544 q 733 203 786 303 q 585 49 681 104 q 365 -7 490 -7 q 124 71 214 -7 q 35 281 35 149 q 77 456 35 379 q 197 576 119 533 q 374 618 274 618 q 522 588 454 618 q 619 508 589 557 q 571 648 608 578 q 475 783 533 718 l 217 674 l 183 757 l 406 851 q 244 964 336 915 l 371 1040 q 556 915 468 992 l 768 1006 l 803 922 l 624 846 m 375 153 q 526 207 468 153 q 585 344 585 261 q 540 448 585 410 q 415 486 494 486 q 267 431 326 486 q 208 293 208 376 q 253 190 208 228 q 375 153 299 153 z "},"ď":{"ha":1021,"x_min":44,"x_max":1214,"o":"m 806 233 q 801 203 801 217 q 846 157 801 157 q 925 176 875 157 l 894 10 q 790 -8 839 -8 q 692 22 731 -8 q 639 107 653 51 l 635 128 q 497 26 571 60 q 347 -8 422 -8 q 194 32 264 -8 q 85 148 125 72 q 44 324 44 224 q 97 540 44 443 q 242 694 150 638 q 446 750 333 750 q 603 710 539 750 q 697 596 668 671 l 785 1031 l 965 1031 l 806 233 m 654 397 q 604 538 654 485 q 471 592 554 592 q 349 557 404 592 q 260 463 293 522 q 228 333 228 403 q 278 193 228 246 q 413 140 329 140 q 535 175 479 140 q 622 269 590 210 q 654 397 654 328 m 1054 1031 l 1214 1031 l 1117 743 l 999 743 l 1054 1031 z "},"đ":{"ha":981,"x_min":44,"x_max":1039,"o":"m 806 228 q 803 200 803 206 q 813 167 803 178 q 847 157 824 157 q 925 176 867 157 l 894 10 q 793 -8 839 -8 q 694 21 733 -8 q 642 103 654 50 l 636 124 q 498 25 572 58 q 350 -8 424 -8 q 197 31 267 -8 q 85 142 126 69 q 44 311 44 215 q 97 517 44 424 q 240 663 149 610 q 442 715 331 715 q 601 679 536 715 q 696 572 665 643 l 743 813 l 471 813 l 490 914 l 763 914 l 786 1031 l 967 1031 l 943 914 l 1039 914 l 1019 813 l 922 813 l 806 228 m 414 140 q 535 172 481 140 q 621 258 589 204 q 653 378 653 313 q 603 508 653 458 q 469 557 553 557 q 348 525 403 557 q 260 438 293 493 q 228 319 228 383 q 279 190 228 239 q 414 140 331 140 z "},"ḍ":{"ha":986,"x_min":44,"x_max":965,"o":"m 806 233 q 801 203 801 217 q 846 157 801 157 q 925 176 875 157 l 894 10 q 790 -8 839 -8 q 692 22 731 -8 q 639 107 653 51 l 635 128 q 497 26 571 60 q 347 -8 422 -8 q 194 32 264 -8 q 85 148 125 72 q 44 324 44 224 q 97 540 44 443 q 242 694 150 638 q 446 750 333 750 q 603 710 539 750 q 697 596 668 671 l 785 1031 l 965 1031 l 806 233 m 654 397 q 604 538 654 485 q 471 592 554 592 q 349 557 404 592 q 260 463 293 522 q 228 333 228 403 q 278 193 228 246 q 413 140 329 140 q 535 175 479 140 q 622 269 590 210 q 654 397 654 328 m 435 -97 q 496 -122 472 -97 q 519 -186 519 -147 q 482 -276 519 -239 q 394 -312 444 -312 q 333 -287 357 -312 q 310 -224 310 -262 q 347 -134 310 -171 q 435 -97 385 -97 z "},"ḏ":{"ha":986,"x_min":44,"x_max":965,"o":"m 806 233 q 801 203 801 217 q 846 157 801 157 q 925 176 875 157 l 894 10 q 790 -8 839 -8 q 692 22 731 -8 q 639 107 653 51 l 635 128 q 497 26 571 60 q 347 -8 422 -8 q 194 32 264 -8 q 85 148 125 72 q 44 324 44 224 q 97 540 44 443 q 242 694 150 638 q 446 750 333 750 q 603 710 539 750 q 697 596 668 671 l 785 1031 l 965 1031 l 806 233 m 654 397 q 604 538 654 485 q 471 592 554 592 q 349 557 404 592 q 260 463 293 522 q 228 333 228 403 q 278 193 228 246 q 413 140 329 140 q 535 175 479 140 q 622 269 590 210 q 654 397 654 328 m 250 -111 l 613 -111 l 590 -225 l 228 -225 l 250 -111 z "},"ǆ":{"ha":1706,"x_min":44,"x_max":1719,"o":"m 1513 851 l 1338 851 l 1226 1051 l 1388 1051 l 1447 964 l 1539 1051 l 1700 1051 l 1513 851 m 965 1031 l 760 0 l 581 0 l 601 101 q 486 20 551 49 q 347 -8 421 -8 q 190 33 258 -8 q 83 151 121 75 q 44 324 44 226 q 97 540 44 443 q 242 694 150 638 q 446 750 333 750 q 603 710 539 750 q 697 596 668 671 l 786 1031 l 965 1031 m 1719 742 l 1699 621 l 1497 432 l 1601 432 l 1576 306 l 1363 306 l 1193 147 l 1611 147 l 1583 -1 l 939 0 l 961 119 l 1168 315 l 1051 315 l 1076 443 l 1304 443 l 1464 594 l 1072 596 l 1100 743 l 1719 742 m 413 140 q 535 175 479 140 q 622 269 590 210 q 654 397 654 328 q 604 538 654 485 q 471 592 554 592 q 349 557 404 592 q 260 463 293 522 q 228 333 228 403 q 278 193 228 246 q 413 140 329 140 z "},"e":{"ha":822,"x_min":47,"x_max":794,"o":"m 469 749 q 708 659 622 749 q 788 417 794 569 l 243 267 q 312 172 264 206 q 428 138 360 138 q 647 242 547 138 l 743 144 q 403 -7 601 -7 q 215 35 296 -7 q 91 155 135 78 q 47 333 47 232 q 100 547 47 453 q 249 695 153 642 q 469 749 344 749 m 618 494 q 458 607 586 607 q 302 549 363 607 q 232 388 242 492 l 618 494 z "},"é":{"ha":822,"x_min":47,"x_max":788,"o":"m 469 749 q 708 659 622 749 q 788 417 794 569 l 243 267 q 312 172 264 206 q 428 138 360 138 q 647 242 547 138 l 743 144 q 403 -7 601 -7 q 215 35 296 -7 q 91 155 135 78 q 47 333 47 232 q 100 547 47 453 q 249 695 153 642 q 469 749 344 749 m 618 494 q 458 607 586 607 q 302 549 363 607 q 232 388 242 492 l 618 494 m 540 1056 l 714 985 l 536 842 l 396 856 l 540 1056 z "},"ĕ":{"ha":822,"x_min":47,"x_max":788,"o":"m 469 749 q 708 659 622 749 q 788 417 794 569 l 243 267 q 312 172 264 206 q 428 138 360 138 q 647 242 547 138 l 743 144 q 403 -7 601 -7 q 215 35 296 -7 q 91 155 135 78 q 47 333 47 232 q 100 547 47 453 q 249 695 153 642 q 469 749 344 749 m 618 494 q 458 607 586 607 q 302 549 363 607 q 232 388 242 492 l 618 494 m 439 1046 q 438 1028 438 1040 q 456 976 438 996 q 506 957 475 957 q 569 982 540 957 q 608 1046 597 1007 l 728 1046 q 640 897 707 953 q 485 840 572 840 q 362 885 407 840 q 317 1006 317 929 q 319 1046 317 1032 l 439 1046 z "},"ě":{"ha":822,"x_min":47,"x_max":788,"o":"m 469 749 q 708 659 622 749 q 788 417 794 569 l 243 267 q 312 172 264 206 q 428 138 360 138 q 647 242 547 138 l 743 144 q 403 -7 601 -7 q 215 35 296 -7 q 91 155 135 78 q 47 333 47 232 q 100 547 47 453 q 249 695 153 642 q 469 749 344 749 m 618 494 q 458 607 586 607 q 302 549 363 607 q 232 388 242 492 l 618 494 m 600 1051 l 761 1051 l 574 851 l 399 851 l 288 1051 l 449 1051 l 508 964 l 600 1051 z "},"ḝ":{"ha":822,"x_min":47,"x_max":794,"o":"m 538 840 q 415 885 460 840 q 369 1006 369 929 q 372 1046 369 1032 l 492 1046 q 490 1028 490 1040 q 509 976 490 996 q 558 957 528 957 q 622 982 593 957 q 661 1046 650 1007 l 781 1046 q 692 897 760 953 q 538 840 625 840 m 469 749 q 708 659 622 749 q 788 417 794 569 l 243 267 q 312 172 264 206 q 428 138 360 138 q 647 242 547 138 l 743 144 q 451 -4 622 13 l 414 -71 q 485 -106 463 -81 q 507 -167 507 -132 q 451 -274 507 -237 q 313 -311 396 -311 q 175 -282 240 -311 l 231 -178 q 306 -193 271 -193 q 351 -183 333 -193 q 368 -157 368 -172 q 351 -135 368 -144 q 304 -126 333 -126 l 264 -126 l 328 -1 q 122 109 197 19 q 47 333 47 199 q 100 547 47 453 q 249 695 153 642 q 469 749 344 749 m 618 494 q 458 607 586 607 q 302 549 363 607 q 232 388 242 492 l 618 494 z "},"ê":{"ha":822,"x_min":47,"x_max":788,"o":"m 469 749 q 708 659 622 749 q 788 417 794 569 l 243 267 q 312 172 264 206 q 428 138 360 138 q 647 242 547 138 l 743 144 q 403 -7 601 -7 q 215 35 296 -7 q 91 155 135 78 q 47 333 47 232 q 100 547 47 453 q 249 695 153 642 q 469 749 344 749 m 618 494 q 458 607 586 607 q 302 549 363 607 q 232 388 242 492 l 618 494 m 724 851 l 563 851 l 503 939 l 411 851 l 250 851 l 438 1051 l 613 1051 l 724 851 z "},"ế":{"ha":822,"x_min":47,"x_max":788,"o":"m 469 749 q 708 659 622 749 q 788 417 794 569 l 243 267 q 312 172 264 206 q 428 138 360 138 q 647 242 547 138 l 743 144 q 403 -7 601 -7 q 215 35 296 -7 q 91 155 135 78 q 47 333 47 232 q 100 547 47 453 q 249 695 153 642 q 469 749 344 749 m 618 494 q 458 607 586 607 q 302 549 363 607 q 232 388 242 492 l 618 494 m 747 836 l 571 836 l 499 910 l 399 836 l 219 836 l 399 986 l 621 986 l 747 836 m 585 1228 l 729 1135 l 531 1026 l 407 1063 l 585 1228 z "},"ệ":{"ha":822,"x_min":47,"x_max":788,"o":"m 469 749 q 708 659 622 749 q 788 417 794 569 l 243 267 q 312 172 264 206 q 428 138 360 138 q 647 242 547 138 l 743 144 q 403 -7 601 -7 q 215 35 296 -7 q 91 155 135 78 q 47 333 47 232 q 100 547 47 453 q 249 695 153 642 q 469 749 344 749 m 618 494 q 458 607 586 607 q 302 549 363 607 q 232 388 242 492 l 618 494 m 371 -97 q 432 -122 408 -97 q 456 -186 456 -147 q 418 -276 456 -239 q 331 -312 381 -312 q 269 -287 293 -312 q 246 -224 246 -262 q 283 -134 246 -171 q 371 -97 321 -97 m 751 851 l 590 851 l 531 939 l 439 851 l 278 851 l 465 1051 l 640 1051 l 751 851 z "},"ề":{"ha":822,"x_min":47,"x_max":788,"o":"m 469 749 q 708 659 622 749 q 788 417 794 569 l 243 267 q 312 172 264 206 q 428 138 360 138 q 647 242 547 138 l 743 144 q 403 -7 601 -7 q 215 35 296 -7 q 91 155 135 78 q 47 333 47 232 q 100 547 47 453 q 249 695 153 642 q 469 749 344 749 m 618 494 q 458 607 586 607 q 302 549 363 607 q 232 388 242 492 l 618 494 m 749 836 l 572 836 l 500 910 l 400 836 l 221 836 l 400 986 l 622 986 l 749 836 m 443 1228 l 622 1063 l 499 1026 l 299 1135 l 443 1228 z "},"ể":{"ha":822,"x_min":47,"x_max":788,"o":"m 469 749 q 708 659 622 749 q 788 417 794 569 l 243 267 q 312 172 264 206 q 428 138 360 138 q 647 242 547 138 l 743 144 q 403 -7 601 -7 q 215 35 296 -7 q 91 155 135 78 q 47 333 47 232 q 100 547 47 453 q 249 695 153 642 q 469 749 344 749 m 618 494 q 458 607 586 607 q 302 549 363 607 q 232 388 242 492 l 618 494 m 749 836 l 572 836 l 500 910 l 400 836 l 221 836 l 400 986 l 622 986 l 749 836 m 554 1257 q 633 1234 604 1257 q 663 1176 663 1211 q 538 1024 663 1104 l 460 1058 q 508 1098 490 1078 q 525 1133 525 1118 q 497 1154 525 1154 q 453 1142 472 1154 l 417 1215 q 554 1257 485 1257 z "},"ễ":{"ha":822,"x_min":47,"x_max":788,"o":"m 469 749 q 708 659 622 749 q 788 417 794 569 l 243 267 q 312 172 264 206 q 428 138 360 138 q 647 242 547 138 l 743 144 q 403 -7 601 -7 q 215 35 296 -7 q 91 155 135 78 q 47 333 47 232 q 100 547 47 453 q 249 695 153 642 q 469 749 344 749 m 618 494 q 458 607 586 607 q 302 549 363 607 q 232 388 242 492 l 618 494 m 749 836 l 572 836 l 500 910 l 400 836 l 221 836 l 400 986 l 622 986 l 749 836 m 776 1206 q 725 1082 763 1126 q 625 1038 688 1038 q 566 1048 593 1038 q 504 1076 539 1058 q 471 1093 488 1086 q 442 1100 454 1100 q 405 1085 417 1100 q 388 1042 393 1071 l 292 1042 q 443 1211 322 1211 q 503 1201 475 1211 q 563 1172 531 1190 q 581 1163 567 1169 q 606 1152 596 1156 q 626 1149 617 1149 q 662 1163 650 1149 q 679 1206 674 1178 l 776 1206 z "},"ȅ":{"ha":822,"x_min":47,"x_max":788,"o":"m 469 749 q 708 659 622 749 q 788 417 794 569 l 243 267 q 312 172 264 206 q 428 138 360 138 q 647 242 547 138 l 743 144 q 403 -7 601 -7 q 215 35 296 -7 q 91 155 135 78 q 47 333 47 232 q 100 547 47 453 q 249 695 153 642 q 469 749 344 749 m 618 494 q 458 607 586 607 q 302 549 363 607 q 232 388 242 492 l 618 494 m 376 1064 l 446 854 l 313 842 l 215 1000 l 376 1064 m 617 1064 l 686 854 l 553 842 l 456 1000 l 617 1064 z "},"ë":{"ha":822,"x_min":47,"x_max":788,"o":"m 469 749 q 708 659 622 749 q 788 417 794 569 l 243 267 q 312 172 264 206 q 428 138 360 138 q 647 242 547 138 l 743 144 q 403 -7 601 -7 q 215 35 296 -7 q 91 155 135 78 q 47 333 47 232 q 100 547 47 453 q 249 695 153 642 q 469 749 344 749 m 618 494 q 458 607 586 607 q 302 549 363 607 q 232 388 242 492 l 618 494 m 399 1043 q 451 1022 432 1043 q 471 967 471 1000 q 439 890 471 922 q 364 857 407 857 q 310 879 331 857 q 289 935 289 901 q 321 1012 289 981 q 399 1043 353 1043 m 650 1043 q 703 1022 683 1043 q 724 967 724 1000 q 692 890 724 922 q 615 857 660 857 q 562 879 582 857 q 542 935 542 901 q 574 1012 542 981 q 650 1043 606 1043 z "},"ė":{"ha":822,"x_min":47,"x_max":788,"o":"m 469 749 q 708 659 622 749 q 788 417 794 569 l 243 267 q 312 172 264 206 q 428 138 360 138 q 647 242 547 138 l 743 144 q 403 -7 601 -7 q 215 35 296 -7 q 91 155 135 78 q 47 333 47 232 q 100 547 47 453 q 249 695 153 642 q 469 749 344 749 m 618 494 q 458 607 586 607 q 302 549 363 607 q 232 388 242 492 l 618 494 m 526 1063 q 588 1038 564 1063 q 611 974 611 1013 q 574 884 611 921 q 486 847 536 847 q 425 872 449 847 q 401 936 401 897 q 439 1026 401 989 q 526 1063 476 1063 z "},"ẹ":{"ha":822,"x_min":47,"x_max":788,"o":"m 469 749 q 708 659 622 749 q 788 417 794 569 l 243 267 q 312 172 264 206 q 428 138 360 138 q 647 242 547 138 l 743 144 q 403 -7 601 -7 q 215 35 296 -7 q 91 155 135 78 q 47 333 47 232 q 100 547 47 453 q 249 695 153 642 q 469 749 344 749 m 618 494 q 458 607 586 607 q 302 549 363 607 q 232 388 242 492 l 618 494 m 371 -97 q 432 -122 408 -97 q 456 -186 456 -147 q 418 -276 456 -239 q 331 -312 381 -312 q 269 -287 293 -312 q 246 -224 246 -262 q 283 -134 246 -171 q 371 -97 321 -97 z "},"è":{"ha":822,"x_min":47,"x_max":788,"o":"m 469 749 q 708 659 622 749 q 788 417 794 569 l 243 267 q 312 172 264 206 q 428 138 360 138 q 647 242 547 138 l 743 144 q 403 -7 601 -7 q 215 35 296 -7 q 91 155 135 78 q 47 333 47 232 q 100 547 47 453 q 249 695 153 642 q 469 749 344 749 m 618 494 q 458 607 586 607 q 302 549 363 607 q 232 388 242 492 l 618 494 m 453 1056 l 593 856 l 451 842 l 278 985 l 453 1056 z "},"ẻ":{"ha":822,"x_min":47,"x_max":788,"o":"m 469 749 q 708 659 622 749 q 788 417 794 569 l 243 267 q 312 172 264 206 q 428 138 360 138 q 647 242 547 138 l 743 144 q 403 -7 601 -7 q 215 35 296 -7 q 91 155 135 78 q 47 333 47 232 q 100 547 47 453 q 249 695 153 642 q 469 749 344 749 m 618 494 q 458 607 586 607 q 302 549 363 607 q 232 388 242 492 l 618 494 m 539 1106 q 627 1080 593 1106 q 661 1007 661 1054 q 620 906 661 958 q 514 803 579 853 l 429 844 q 489 906 467 874 q 511 960 511 939 q 502 982 511 974 q 478 990 493 990 q 425 974 453 990 l 388 1060 q 539 1106 460 1106 z "},"ȇ":{"ha":822,"x_min":47,"x_max":788,"o":"m 469 749 q 708 659 622 749 q 788 417 794 569 l 243 267 q 312 172 264 206 q 428 138 360 138 q 647 242 547 138 l 743 144 q 403 -7 601 -7 q 215 35 296 -7 q 91 155 135 78 q 47 333 47 232 q 100 547 47 453 q 249 695 153 642 q 469 749 344 749 m 618 494 q 458 607 586 607 q 302 549 363 607 q 232 388 242 492 l 618 494 m 569 840 q 571 858 571 846 q 552 910 571 890 q 503 929 533 929 q 440 904 468 929 q 400 840 411 879 l 281 840 q 369 990 301 933 q 524 1046 436 1046 q 647 1001 601 1046 q 692 881 692 957 q 689 840 692 854 l 569 840 z "},"ē":{"ha":822,"x_min":47,"x_max":788,"o":"m 469 749 q 708 659 622 749 q 788 417 794 569 l 243 267 q 312 172 264 206 q 428 138 360 138 q 647 242 547 138 l 743 144 q 403 -7 601 -7 q 215 35 296 -7 q 91 155 135 78 q 47 333 47 232 q 100 547 47 453 q 249 695 153 642 q 469 749 344 749 m 618 494 q 458 607 586 607 q 302 549 363 607 q 232 388 242 492 l 618 494 m 308 1008 l 724 1008 l 701 893 l 288 893 l 308 1008 z "},"ḗ":{"ha":822,"x_min":47,"x_max":788,"o":"m 469 749 q 708 659 622 749 q 788 417 794 569 l 243 267 q 312 172 264 206 q 428 138 360 138 q 647 242 547 138 l 743 144 q 403 -7 601 -7 q 215 35 296 -7 q 91 155 135 78 q 47 333 47 232 q 100 547 47 453 q 249 695 153 642 q 469 749 344 749 m 618 494 q 458 607 586 607 q 302 549 363 607 q 232 388 242 492 l 618 494 m 319 947 l 686 947 l 665 835 l 299 835 l 319 947 m 581 1206 l 725 1113 l 526 1004 l 403 1040 l 581 1206 z "},"ḕ":{"ha":822,"x_min":47,"x_max":788,"o":"m 469 749 q 708 659 622 749 q 788 417 794 569 l 243 267 q 312 172 264 206 q 428 138 360 138 q 647 242 547 138 l 743 144 q 403 -7 601 -7 q 215 35 296 -7 q 91 155 135 78 q 47 333 47 232 q 100 547 47 453 q 249 695 153 642 q 469 749 344 749 m 618 494 q 458 607 586 607 q 302 549 363 607 q 232 388 242 492 l 618 494 m 331 947 l 697 947 l 676 835 l 310 835 l 331 947 m 449 1206 l 628 1040 l 504 1004 l 304 1113 l 449 1206 z "},"ę":{"ha":822,"x_min":47,"x_max":794,"o":"m 469 749 q 708 659 622 749 q 788 417 794 569 l 243 267 q 312 172 264 206 q 428 138 360 138 q 647 242 547 138 l 743 144 q 640 58 700 97 q 538 -51 579 7 q 497 -150 497 -110 q 526 -182 497 -182 q 571 -171 551 -182 l 588 -282 q 460 -310 515 -310 q 368 -280 401 -310 q 335 -194 335 -250 q 358 -101 335 -147 q 431 -6 381 -54 q 403 -7 422 -7 q 215 35 296 -7 q 91 155 135 78 q 47 333 47 232 q 100 547 47 453 q 249 695 153 642 q 469 749 344 749 m 618 494 q 458 607 586 607 q 302 549 363 607 q 232 388 242 492 l 618 494 z "},"ẽ":{"ha":822,"x_min":47,"x_max":788,"o":"m 469 749 q 708 659 622 749 q 788 417 794 569 l 243 267 q 312 172 264 206 q 428 138 360 138 q 647 242 547 138 l 743 144 q 403 -7 601 -7 q 215 35 296 -7 q 91 155 135 78 q 47 333 47 232 q 100 547 47 453 q 249 695 153 642 q 469 749 344 749 m 618 494 q 458 607 586 607 q 302 549 363 607 q 232 388 242 492 l 618 494 m 751 1031 q 594 836 717 836 q 541 846 564 836 q 479 878 518 856 q 424 903 442 903 q 390 887 401 903 q 372 840 379 871 l 257 840 q 415 1036 292 1036 q 472 1025 446 1036 q 529 994 499 1014 q 588 969 569 969 q 636 1031 626 969 l 751 1031 z "},"ə":{"ha":833,"x_min":39,"x_max":786,"o":"m 431 749 q 618 706 538 749 q 742 587 699 664 q 786 410 786 510 q 733 195 786 290 q 585 47 681 100 q 368 -7 490 -7 q 125 83 211 -7 q 46 326 39 172 l 589 476 q 522 570 569 536 q 404 604 474 604 q 186 501 286 604 l 89 599 q 431 749 231 749 m 374 135 q 531 192 471 135 q 601 354 592 250 l 215 249 q 374 135 247 135 z "},"f":{"ha":458,"x_min":24,"x_max":624,"o":"m 488 883 q 406 856 442 883 q 360 781 369 828 l 346 713 l 532 713 l 507 581 l 319 581 l 203 0 l 24 0 l 182 792 q 291 976 206 913 q 482 1039 376 1039 q 624 1006 561 1039 l 572 863 q 530 877 554 871 q 488 883 506 883 z "},"g":{"ha":896,"x_min":-12,"x_max":871,"o":"m 297 -276 q -12 -174 133 -276 l 68 -50 q 293 -125 164 -125 q 463 -82 399 -125 q 546 43 526 -39 l 569 136 q 461 63 521 88 q 333 38 401 38 q 185 76 250 38 q 85 186 121 115 q 49 347 49 257 q 99 552 49 460 q 235 697 149 644 q 426 750 321 750 q 574 714 514 750 q 661 610 635 678 l 690 743 l 871 743 l 724 28 q 584 -198 693 -119 q 297 -276 475 -276 m 400 186 q 510 217 460 186 q 591 301 561 249 q 621 417 621 354 q 575 544 621 496 q 453 592 529 592 q 342 560 393 592 q 262 474 292 528 q 232 357 232 421 q 278 233 232 279 q 400 186 324 186 z "},"ğ":{"ha":896,"x_min":-12,"x_max":871,"o":"m 297 -276 q -12 -174 133 -276 l 68 -50 q 293 -125 164 -125 q 463 -82 399 -125 q 546 43 526 -39 l 569 136 q 461 63 521 88 q 333 38 401 38 q 185 76 250 38 q 85 186 121 115 q 49 347 49 257 q 99 552 49 460 q 235 697 149 644 q 426 750 321 750 q 574 714 514 750 q 661 610 635 678 l 690 743 l 871 743 l 724 28 q 584 -198 693 -119 q 297 -276 475 -276 m 400 186 q 510 217 460 186 q 591 301 561 249 q 621 417 621 354 q 575 544 621 496 q 453 592 529 592 q 342 560 393 592 q 262 474 292 528 q 232 357 232 421 q 278 233 232 279 q 400 186 324 186 m 472 1046 q 471 1028 471 1040 q 490 976 471 996 q 539 957 508 957 q 602 982 574 957 q 642 1046 631 1007 l 761 1046 q 673 897 740 953 q 518 840 606 840 q 395 885 440 840 q 350 1006 350 929 q 353 1046 350 1032 l 472 1046 z "},"ǧ":{"ha":896,"x_min":-12,"x_max":871,"o":"m 297 -276 q -12 -174 133 -276 l 68 -50 q 293 -125 164 -125 q 463 -82 399 -125 q 546 43 526 -39 l 569 136 q 461 63 521 88 q 333 38 401 38 q 185 76 250 38 q 85 186 121 115 q 49 347 49 257 q 99 552 49 460 q 235 697 149 644 q 426 750 321 750 q 574 714 514 750 q 661 610 635 678 l 690 743 l 871 743 l 724 28 q 584 -198 693 -119 q 297 -276 475 -276 m 400 186 q 510 217 460 186 q 591 301 561 249 q 621 417 621 354 q 575 544 621 496 q 453 592 529 592 q 342 560 393 592 q 262 474 292 528 q 232 357 232 421 q 278 233 232 279 q 400 186 324 186 m 633 1051 l 794 1051 l 607 851 l 432 851 l 321 1051 l 482 1051 l 542 964 l 633 1051 z "},"ĝ":{"ha":896,"x_min":-12,"x_max":871,"o":"m 297 -276 q -12 -174 133 -276 l 68 -50 q 293 -125 164 -125 q 463 -82 399 -125 q 546 43 526 -39 l 569 136 q 461 63 521 88 q 333 38 401 38 q 185 76 250 38 q 85 186 121 115 q 49 347 49 257 q 99 552 49 460 q 235 697 149 644 q 426 750 321 750 q 574 714 514 750 q 661 610 635 678 l 690 743 l 871 743 l 724 28 q 584 -198 693 -119 q 297 -276 475 -276 m 400 186 q 510 217 460 186 q 591 301 561 249 q 621 417 621 354 q 575 544 621 496 q 453 592 529 592 q 342 560 393 592 q 262 474 292 528 q 232 357 232 421 q 278 233 232 279 q 400 186 324 186 m 757 851 l 596 851 l 536 939 l 444 851 l 283 851 l 471 1051 l 646 1051 l 757 851 z "},"ģ":{"ha":896,"x_min":-12,"x_max":871,"o":"m 297 -276 q -12 -174 133 -276 l 68 -50 q 293 -125 164 -125 q 463 -82 399 -125 q 546 43 526 -39 l 569 136 q 461 63 521 88 q 333 38 401 38 q 185 76 250 38 q 85 186 121 115 q 49 347 49 257 q 99 552 49 460 q 235 697 149 644 q 426 750 321 750 q 574 714 514 750 q 661 610 635 678 l 690 743 l 871 743 l 724 28 q 584 -198 693 -119 q 297 -276 475 -276 m 400 186 q 510 217 460 186 q 591 301 561 249 q 621 417 621 354 q 575 544 621 496 q 453 592 529 592 q 342 560 393 592 q 262 474 292 528 q 232 357 232 421 q 278 233 232 279 q 400 186 324 186 m 597 850 l 436 850 l 561 1079 l 682 1079 l 597 850 z "},"ġ":{"ha":896,"x_min":-12,"x_max":871,"o":"m 297 -276 q -12 -174 133 -276 l 68 -50 q 293 -125 164 -125 q 463 -82 399 -125 q 546 43 526 -39 l 569 136 q 461 63 521 88 q 333 38 401 38 q 185 76 250 38 q 85 186 121 115 q 49 347 49 257 q 99 552 49 460 q 235 697 149 644 q 426 750 321 750 q 574 714 514 750 q 661 610 635 678 l 690 743 l 871 743 l 724 28 q 584 -198 693 -119 q 297 -276 475 -276 m 400 186 q 510 217 460 186 q 591 301 561 249 q 621 417 621 354 q 575 544 621 496 q 453 592 529 592 q 342 560 393 592 q 262 474 292 528 q 232 357 232 421 q 278 233 232 279 q 400 186 324 186 m 560 1063 q 621 1038 597 1063 q 644 974 644 1013 q 607 884 644 921 q 519 847 569 847 q 458 872 482 847 q 435 936 435 897 q 472 1026 435 989 q 560 1063 510 1063 z "},"ḡ":{"ha":896,"x_min":-12,"x_max":871,"o":"m 297 -276 q -12 -174 133 -276 l 68 -50 q 293 -125 164 -125 q 463 -82 399 -125 q 546 43 526 -39 l 569 136 q 461 63 521 88 q 333 38 401 38 q 185 76 250 38 q 85 186 121 115 q 49 347 49 257 q 99 552 49 460 q 235 697 149 644 q 426 750 321 750 q 574 714 514 750 q 661 610 635 678 l 690 743 l 871 743 l 724 28 q 584 -198 693 -119 q 297 -276 475 -276 m 400 186 q 510 217 460 186 q 591 301 561 249 q 621 417 621 354 q 575 544 621 496 q 453 592 529 592 q 342 560 393 592 q 262 474 292 528 q 232 357 232 421 q 278 233 232 279 q 400 186 324 186 m 342 1008 l 757 1008 l 735 893 l 321 893 l 342 1008 z "},"h":{"ha":936,"x_min":47,"x_max":867,"o":"m 599 753 q 795 688 724 753 q 867 514 867 624 q 858 438 867 478 l 771 0 l 589 0 l 671 411 q 675 456 675 435 q 636 554 675 518 q 528 590 597 590 q 388 536 449 590 q 308 393 326 482 l 229 0 l 47 0 l 251 1031 l 433 1031 l 357 638 q 599 753 444 753 z "},"ħ":{"ha":932,"x_min":47,"x_max":863,"o":"m 592 717 q 790 653 718 717 q 863 485 863 590 q 856 417 863 456 l 771 0 l 589 0 l 668 392 q 672 429 672 411 q 633 521 672 488 q 522 554 593 554 q 383 504 442 554 q 306 372 324 454 l 229 0 l 47 0 l 208 813 l 111 813 l 131 914 l 228 914 l 251 1031 l 433 1031 l 410 914 l 681 914 l 661 813 l 390 813 l 350 610 q 592 717 438 717 z "},"ḫ":{"ha":936,"x_min":47,"x_max":867,"o":"m 599 753 q 795 688 724 753 q 867 514 867 624 q 858 438 867 478 l 771 0 l 589 0 l 671 411 q 675 456 675 435 q 636 554 675 518 q 528 590 597 590 q 388 536 449 590 q 308 393 326 482 l 229 0 l 47 0 l 251 1031 l 433 1031 l 357 638 q 599 753 444 753 m 296 -74 q 294 -92 294 -79 q 313 -143 294 -124 q 363 -162 332 -162 q 426 -137 397 -162 q 465 -74 454 -112 l 585 -74 q 497 -223 564 -167 q 342 -279 429 -279 q 219 -235 264 -279 q 174 -114 174 -190 q 176 -74 174 -87 l 296 -74 z "},"ĥ":{"ha":936,"x_min":47,"x_max":867,"o":"m 599 753 q 795 688 724 753 q 867 514 867 624 q 858 438 867 478 l 771 0 l 589 0 l 671 411 q 675 456 675 435 q 636 554 675 518 q 528 590 597 590 q 388 536 449 590 q 308 393 326 482 l 229 0 l 47 0 l 251 1031 l 433 1031 l 357 638 q 599 753 444 753 m 594 1115 l 433 1115 l 374 1203 l 282 1115 l 121 1115 l 308 1315 l 483 1315 l 594 1115 z "},"ḥ":{"ha":936,"x_min":47,"x_max":867,"o":"m 599 753 q 795 688 724 753 q 867 514 867 624 q 858 438 867 478 l 771 0 l 589 0 l 671 411 q 675 456 675 435 q 636 554 675 518 q 528 590 597 590 q 388 536 449 590 q 308 393 326 482 l 229 0 l 47 0 l 251 1031 l 433 1031 l 357 638 q 599 753 444 753 m 376 -97 q 438 -122 414 -97 q 461 -186 461 -147 q 424 -276 461 -239 q 336 -312 386 -312 q 275 -287 299 -312 q 251 -224 251 -262 q 289 -134 251 -171 q 376 -97 326 -97 z "},"i":{"ha":404,"x_min":39,"x_max":422,"o":"m 367 743 l 218 0 l 39 0 l 186 743 l 367 743 m 338 1063 q 399 1038 375 1063 q 422 974 422 1013 q 385 884 422 921 q 297 847 347 847 q 236 872 260 847 q 213 936 213 897 q 250 1026 213 989 q 338 1063 288 1063 z "},"ı":{"ha":404,"x_min":39,"x_max":367,"o":"m 367 743 l 218 0 l 39 0 l 186 743 l 367 743 z "},"í":{"ha":404,"x_min":39,"x_max":525,"o":"m 367 743 l 218 0 l 39 0 l 186 743 l 367 743 m 351 1056 l 525 985 l 347 842 l 207 856 l 351 1056 z "},"ĭ":{"ha":404,"x_min":39,"x_max":539,"o":"m 367 743 l 218 0 l 39 0 l 186 743 l 367 743 m 250 1046 q 249 1028 249 1040 q 267 976 249 996 q 317 957 286 957 q 380 982 351 957 q 419 1046 408 1007 l 539 1046 q 451 897 518 953 q 296 840 383 840 q 173 885 218 840 q 128 1006 128 929 q 131 1046 128 1032 l 250 1046 z "},"î":{"ha":404,"x_min":39,"x_max":535,"o":"m 367 743 l 218 0 l 39 0 l 186 743 l 367 743 m 535 851 l 374 851 l 314 939 l 222 851 l 61 851 l 249 1051 l 424 1051 l 535 851 z "},"ȉ":{"ha":404,"x_min":26,"x_max":497,"o":"m 367 743 l 218 0 l 39 0 l 186 743 l 367 743 m 188 1064 l 257 854 l 124 842 l 26 1000 l 188 1064 m 428 1064 l 497 854 l 364 842 l 267 1000 l 428 1064 z "},"ï":{"ha":404,"x_min":39,"x_max":522,"o":"m 367 743 l 218 0 l 39 0 l 186 743 l 367 743 m 222 1043 q 275 1022 256 1043 q 294 967 294 1000 q 263 890 294 922 q 186 857 231 857 q 133 879 153 857 q 113 935 113 901 q 144 1012 113 981 q 222 1043 176 1043 m 450 1043 q 503 1022 483 1043 q 522 967 522 1000 q 490 890 522 922 q 414 857 458 857 q 360 879 381 857 q 340 935 340 901 q 372 1012 340 981 q 450 1043 404 1043 z "},"ḯ":{"ha":404,"x_min":39,"x_max":543,"o":"m 367 743 l 218 0 l 39 0 l 186 743 l 367 743 m 207 1014 q 260 994 240 1014 q 279 940 279 974 q 248 865 279 897 q 175 833 217 833 q 122 854 142 833 q 101 908 101 875 q 133 983 101 953 q 207 1014 164 1014 m 453 1014 q 504 993 485 1014 q 524 940 524 972 q 492 865 524 897 q 419 833 461 833 q 366 855 386 833 q 346 908 346 876 q 378 983 346 953 q 453 1014 410 1014 m 399 1238 l 543 1144 l 344 1036 l 221 1072 l 399 1238 z "},"ị":{"ha":404,"x_min":-14,"x_max":422,"o":"m 367 743 l 218 0 l 39 0 l 186 743 l 367 743 m 338 1063 q 399 1038 375 1063 q 422 974 422 1013 q 385 884 422 921 q 297 847 347 847 q 236 872 260 847 q 213 936 213 897 q 250 1026 213 989 q 338 1063 288 1063 m 111 -97 q 172 -122 149 -97 q 196 -186 196 -147 q 158 -276 196 -239 q 71 -312 121 -312 q 10 -287 33 -312 q -14 -224 -14 -262 q 24 -134 -14 -171 q 111 -97 61 -97 z "},"ì":{"ha":404,"x_min":39,"x_max":404,"o":"m 367 743 l 218 0 l 39 0 l 186 743 l 367 743 m 264 1056 l 404 856 l 263 842 l 89 985 l 264 1056 z "},"ỉ":{"ha":404,"x_min":39,"x_max":472,"o":"m 367 743 l 218 0 l 39 0 l 186 743 l 367 743 m 350 1106 q 438 1080 404 1106 q 472 1007 472 1054 q 431 906 472 958 q 325 803 390 853 l 240 844 q 300 906 278 874 q 322 960 322 939 q 313 982 322 974 q 289 990 304 990 q 236 974 264 990 l 199 1060 q 350 1106 271 1106 z "},"ȋ":{"ha":404,"x_min":39,"x_max":494,"o":"m 367 743 l 218 0 l 39 0 l 186 743 l 367 743 m 363 840 q 364 860 364 847 q 351 909 364 890 q 315 928 338 928 q 263 903 286 928 q 229 840 239 878 l 103 840 q 189 989 126 933 q 336 1044 251 1044 q 452 1001 410 1044 q 494 883 494 957 q 490 840 494 864 l 363 840 z "},"ĳ":{"ha":807,"x_min":39,"x_max":817,"o":"m 367 743 l 218 0 l 39 0 l 186 743 l 367 743 m 338 1063 q 399 1038 375 1063 q 422 974 422 1013 q 385 884 422 921 q 297 847 347 847 q 236 872 260 847 q 213 936 213 897 q 250 1026 213 989 q 338 1063 288 1063 m 257 -117 q 307 -125 272 -122 q 392 -92 357 -126 q 439 4 426 -57 l 586 743 l 768 743 l 613 -39 q 519 -215 590 -154 q 343 -276 449 -276 q 204 -249 271 -276 l 257 -117 m 732 1063 q 793 1038 769 1063 q 817 974 817 1013 q 779 884 817 921 q 692 847 742 847 q 631 872 654 847 q 607 936 607 897 q 644 1026 607 989 q 732 1063 682 1063 z "},"ī":{"ha":404,"x_min":39,"x_max":508,"o":"m 367 743 l 218 0 l 39 0 l 186 743 l 367 743 m 146 1008 l 508 1008 l 488 893 l 124 893 l 146 1008 z "},"į":{"ha":404,"x_min":-101,"x_max":422,"o":"m 338 1063 q 399 1038 375 1063 q 422 974 422 1013 q 385 884 422 921 q 297 847 347 847 q 236 872 260 847 q 213 936 213 897 q 250 1026 213 989 q 338 1063 288 1063 m 186 743 l 367 743 l 218 0 l 207 0 q 93 -85 126 -51 q 60 -153 60 -119 q 90 -182 60 -182 q 136 -171 115 -182 l 153 -282 q 24 -310 82 -310 q -67 -281 -33 -310 q -101 -203 -101 -253 q 42 13 -101 -86 l 186 743 z "},"ĩ":{"ha":404,"x_min":39,"x_max":547,"o":"m 367 743 l 218 0 l 39 0 l 186 743 l 367 743 m 547 1028 q 396 835 508 835 q 345 845 367 835 q 296 874 324 856 q 249 896 264 896 q 204 838 215 896 l 88 838 q 243 1033 131 1033 q 292 1024 271 1033 q 342 996 313 1014 q 389 974 374 974 q 433 1028 422 974 l 547 1028 z "},"j":{"ha":403,"x_min":-200,"x_max":413,"o":"m -147 -117 q -97 -125 -132 -122 q -12 -92 -47 -126 q 35 4 22 -57 l 182 743 l 364 743 l 208 -39 q 115 -215 186 -154 q -61 -276 44 -276 q -200 -249 -133 -276 l -147 -117 m 328 1063 q 389 1038 365 1063 q 413 974 413 1013 q 375 884 413 921 q 288 847 338 847 q 226 872 250 847 q 203 936 203 897 q 240 1026 203 989 q 328 1063 278 1063 z "},"ȷ":{"ha":403,"x_min":-200,"x_max":364,"o":"m -147 -117 q -97 -125 -132 -122 q -12 -92 -47 -126 q 35 4 22 -57 l 182 743 l 364 743 l 208 -39 q 115 -215 186 -154 q -61 -276 44 -276 q -200 -249 -133 -276 l -147 -117 z "},"ĵ":{"ha":403,"x_min":-200,"x_max":525,"o":"m -147 -117 q -97 -125 -132 -122 q -12 -92 -47 -126 q 35 4 22 -57 l 182 743 l 364 743 l 208 -39 q 115 -215 186 -154 q -61 -276 44 -276 q -200 -249 -133 -276 l -147 -117 m 525 851 l 364 851 l 304 939 l 213 851 l 51 851 l 239 1051 l 414 1051 l 525 851 z "},"k":{"ha":865,"x_min":46,"x_max":911,"o":"m 911 743 l 561 442 l 768 0 l 551 0 l 417 317 l 263 183 l 226 0 l 46 0 l 251 1031 l 432 1031 l 314 438 l 678 743 l 911 743 z "},"ķ":{"ha":865,"x_min":46,"x_max":911,"o":"m 911 743 l 561 442 l 768 0 l 551 0 l 417 317 l 263 183 l 226 0 l 46 0 l 251 1031 l 432 1031 l 314 438 l 678 743 l 911 743 m 276 -82 l 438 -82 l 313 -311 l 192 -311 l 276 -82 z "},"ĸ":{"ha":858,"x_min":39,"x_max":904,"o":"m 904 743 l 554 442 l 761 0 l 544 0 l 410 317 l 256 183 l 219 0 l 39 0 l 186 743 l 368 743 l 307 438 l 671 743 l 904 743 z "},"l":{"ha":447,"x_min":64,"x_max":411,"o":"m 411 1031 l 250 233 q 247 204 247 211 q 292 157 247 157 q 331 163 311 157 q 375 183 350 169 l 378 25 q 238 -8 306 -8 q 112 38 160 -8 q 64 169 64 85 q 71 233 64 196 l 231 1031 l 411 1031 z "},"ĺ":{"ha":447,"x_min":64,"x_max":564,"o":"m 411 1031 l 250 233 q 247 204 247 211 q 292 157 247 157 q 331 163 311 157 q 375 183 350 169 l 378 25 q 238 -8 306 -8 q 112 38 160 -8 q 64 169 64 85 q 71 233 64 196 l 231 1031 l 411 1031 m 390 1322 l 564 1251 l 386 1108 l 246 1122 l 390 1322 z "},"ľ":{"ha":467,"x_min":64,"x_max":660,"o":"m 411 1031 l 250 233 q 247 204 247 211 q 292 157 247 157 q 331 163 311 157 q 375 183 350 169 l 378 25 q 238 -8 306 -8 q 112 38 160 -8 q 64 169 64 85 q 71 233 64 196 l 231 1031 l 411 1031 m 500 1031 l 660 1031 l 563 743 l 444 743 l 500 1031 z "},"ļ":{"ha":447,"x_min":-24,"x_max":411,"o":"m 411 1031 l 250 233 q 247 204 247 211 q 292 157 247 157 q 331 163 311 157 q 375 183 350 169 l 378 25 q 238 -8 306 -8 q 112 38 160 -8 q 64 169 64 85 q 71 233 64 196 l 231 1031 l 411 1031 m 61 -82 l 222 -82 l 97 -311 l -24 -311 l 61 -82 z "},"ŀ":{"ha":578,"x_min":64,"x_max":575,"o":"m 411 1031 l 250 233 q 247 204 247 211 q 292 157 247 157 q 331 163 311 157 q 375 183 350 169 l 378 25 q 238 -8 306 -8 q 112 38 160 -8 q 64 169 64 85 q 71 233 64 196 l 231 1031 l 411 1031 m 497 642 q 553 619 532 642 q 575 561 575 597 q 541 479 575 513 q 461 446 507 446 q 405 468 426 446 q 383 526 383 490 q 417 608 383 575 q 497 642 451 642 z "},"ḷ":{"ha":447,"x_min":13,"x_max":411,"o":"m 411 1031 l 250 233 q 247 204 247 211 q 292 157 247 157 q 331 163 311 157 q 375 183 350 169 l 378 25 q 238 -8 306 -8 q 112 38 160 -8 q 64 169 64 85 q 71 233 64 196 l 231 1031 l 411 1031 m 138 -97 q 199 -122 175 -97 q 222 -186 222 -147 q 185 -276 222 -239 q 97 -312 147 -312 q 36 -287 60 -312 q 13 -224 13 -262 q 50 -134 13 -171 q 138 -97 88 -97 z "},"ǉ":{"ha":850,"x_min":64,"x_max":860,"o":"m 411 1031 l 250 233 q 247 204 247 211 q 292 157 247 157 q 331 163 311 157 q 375 183 350 169 l 378 25 q 238 -8 306 -8 q 112 38 160 -8 q 64 169 64 85 q 71 233 64 196 l 231 1031 l 411 1031 m 300 -117 q 350 -125 315 -122 q 435 -92 400 -126 q 482 4 469 -57 l 629 743 l 811 743 l 656 -39 q 563 -215 633 -154 q 386 -276 492 -276 q 247 -249 314 -276 l 300 -117 m 775 1063 q 836 1038 813 1063 q 860 974 860 1013 q 822 884 860 921 q 735 847 785 847 q 674 872 697 847 q 650 936 650 897 q 688 1026 650 989 q 775 1063 725 1063 z "},"ḻ":{"ha":447,"x_min":-69,"x_max":411,"o":"m 411 1031 l 250 233 q 247 204 247 211 q 292 157 247 157 q 331 163 311 157 q 375 183 350 169 l 378 25 q 238 -8 306 -8 q 112 38 160 -8 q 64 169 64 85 q 71 233 64 196 l 231 1031 l 411 1031 m -47 -111 l 315 -111 l 293 -225 l -69 -225 l -47 -111 z "},"ł":{"ha":544,"x_min":33,"x_max":576,"o":"m 319 233 q 317 204 317 211 q 361 157 317 157 q 400 163 381 157 q 444 183 419 169 l 447 25 q 307 -8 375 -8 q 181 38 229 -8 q 133 169 133 85 q 140 233 133 196 l 175 408 l 33 339 l 56 457 l 200 528 l 300 1031 l 481 1031 l 399 628 l 576 715 l 554 596 l 375 507 l 319 233 z "},"m":{"ha":1506,"x_min":60,"x_max":1436,"o":"m 1167 753 q 1364 688 1292 753 q 1436 513 1436 624 q 1428 438 1436 478 l 1340 0 l 1158 0 l 1240 411 q 1244 456 1244 435 q 1206 554 1244 518 q 1097 590 1167 590 q 957 536 1017 590 q 878 393 897 482 l 799 0 l 617 0 l 699 411 q 703 456 703 435 q 664 554 703 518 q 556 590 625 590 q 416 536 476 590 q 338 393 356 482 l 257 0 l 76 0 l 179 510 q 183 540 183 526 q 139 585 183 585 q 60 567 106 585 l 90 732 q 193 751 151 751 q 294 721 254 751 q 346 631 335 690 l 353 592 q 626 753 451 753 q 795 709 728 753 q 885 588 863 665 q 1167 753 989 753 z "},"ṃ":{"ha":1469,"x_min":40,"x_max":1400,"o":"m 1131 753 q 1328 688 1256 753 q 1400 513 1400 624 q 1392 438 1400 478 l 1304 0 l 1122 0 l 1204 411 q 1208 456 1208 435 q 1169 554 1208 518 q 1061 590 1131 590 q 921 536 981 590 q 842 393 861 482 l 763 0 l 581 0 l 663 411 q 667 456 667 435 q 628 554 667 518 q 519 590 589 590 q 380 536 440 590 q 301 393 319 482 l 221 0 l 40 0 l 186 743 l 369 743 l 349 638 q 590 753 436 753 q 759 709 692 753 q 849 588 826 665 q 1131 753 953 753 m 654 -97 q 715 -122 692 -97 q 739 -186 739 -147 q 701 -276 739 -239 q 614 -312 664 -312 q 553 -287 576 -312 q 529 -224 529 -262 q 567 -134 529 -171 q 654 -97 604 -97 z "},"n":{"ha":964,"x_min":60,"x_max":894,"o":"m 179 510 q 183 540 183 526 q 139 585 183 585 q 60 567 106 585 l 90 732 q 193 751 151 751 q 294 721 254 751 q 346 631 335 690 l 353 592 q 626 753 451 753 q 823 688 751 753 q 894 514 894 624 q 886 438 894 478 l 799 0 l 617 0 l 699 411 q 703 456 703 435 q 664 554 703 518 q 556 590 625 590 q 416 536 476 590 q 338 393 356 482 l 257 0 l 76 0 l 179 510 z "},"ń":{"ha":964,"x_min":60,"x_max":894,"o":"m 179 510 q 183 540 183 526 q 139 585 183 585 q 60 567 106 585 l 90 732 q 193 751 151 751 q 294 721 254 751 q 346 631 335 690 l 353 592 q 626 753 451 753 q 823 688 751 753 q 894 514 894 624 q 886 438 894 478 l 799 0 l 617 0 l 699 411 q 703 456 703 435 q 664 554 703 518 q 556 590 625 590 q 416 536 476 590 q 338 393 356 482 l 257 0 l 76 0 l 179 510 m 675 1056 l 849 985 l 671 842 l 531 856 l 675 1056 z "},"ŉ":{"ha":1176,"x_min":89,"x_max":1107,"o":"m 160 972 l 293 972 l 199 610 l 89 610 l 160 972 m 392 510 q 396 540 396 526 q 351 585 396 585 q 272 567 318 585 l 303 732 q 406 751 364 751 q 507 721 467 751 q 558 631 547 690 l 565 592 q 839 753 664 753 q 1035 688 964 753 q 1107 514 1107 624 q 1099 438 1107 478 l 1011 0 l 829 0 l 911 411 q 915 456 915 435 q 876 554 915 518 q 768 590 838 590 q 628 536 689 590 q 550 393 568 482 l 469 0 l 289 0 l 392 510 z "},"ň":{"ha":964,"x_min":60,"x_max":897,"o":"m 179 510 q 183 540 183 526 q 139 585 183 585 q 60 567 106 585 l 90 732 q 193 751 151 751 q 294 721 254 751 q 346 631 335 690 l 353 592 q 626 753 451 753 q 823 688 751 753 q 894 514 894 624 q 886 438 894 478 l 799 0 l 617 0 l 699 411 q 703 456 703 435 q 664 554 703 518 q 556 590 625 590 q 416 536 476 590 q 338 393 356 482 l 257 0 l 76 0 l 179 510 m 736 1051 l 897 1051 l 710 851 l 535 851 l 424 1051 l 585 1051 l 644 964 l 736 1051 z "},"ņ":{"ha":964,"x_min":60,"x_max":894,"o":"m 179 510 q 183 540 183 526 q 139 585 183 585 q 60 567 106 585 l 90 732 q 193 751 151 751 q 294 721 254 751 q 346 631 335 690 l 353 592 q 626 753 451 753 q 823 688 751 753 q 894 514 894 624 q 886 438 894 478 l 799 0 l 617 0 l 699 411 q 703 456 703 435 q 664 554 703 518 q 556 590 625 590 q 416 536 476 590 q 338 393 356 482 l 257 0 l 76 0 l 179 510 m 363 -82 l 524 -82 l 399 -311 l 278 -311 l 363 -82 z "},"ṅ":{"ha":928,"x_min":40,"x_max":858,"o":"m 621 1063 q 682 1038 658 1063 q 706 974 706 1013 q 668 884 706 921 q 581 847 631 847 q 519 872 543 847 q 496 936 496 897 q 533 1026 496 989 q 621 1063 571 1063 m 590 753 q 787 688 715 753 q 858 514 858 624 q 850 438 858 478 l 763 0 l 581 0 l 663 411 q 667 456 667 435 q 628 554 667 518 q 519 590 589 590 q 380 536 440 590 q 301 393 319 482 l 221 0 l 40 0 l 186 743 l 369 743 l 349 638 q 590 753 436 753 z "},"ṇ":{"ha":928,"x_min":40,"x_max":858,"o":"m 590 753 q 787 688 715 753 q 858 514 858 624 q 850 438 858 478 l 763 0 l 581 0 l 663 411 q 667 456 667 435 q 628 554 667 518 q 519 590 589 590 q 380 536 440 590 q 301 393 319 482 l 221 0 l 40 0 l 186 743 l 369 743 l 349 638 q 590 753 436 753 m 394 -97 q 456 -122 432 -97 q 479 -186 479 -147 q 442 -276 479 -239 q 354 -312 404 -312 q 293 -287 317 -312 q 269 -224 269 -262 q 307 -134 269 -171 q 394 -97 344 -97 z "},"ŋ":{"ha":986,"x_min":60,"x_max":894,"o":"m 521 -276 q 338 -224 415 -276 l 397 -99 q 489 -125 438 -125 q 570 -90 536 -125 q 617 4 604 -56 l 699 411 q 703 456 703 435 q 664 554 703 518 q 556 590 625 590 q 416 536 476 590 q 338 393 356 482 l 257 0 l 76 0 l 179 510 q 183 540 183 526 q 139 585 183 585 q 60 567 106 585 l 90 732 q 193 751 151 751 q 294 721 254 751 q 346 631 335 690 l 353 592 q 626 753 451 753 q 823 688 751 753 q 894 514 894 624 q 886 438 894 478 l 790 -39 q 697 -215 768 -154 q 521 -276 626 -276 z "},"ǌ":{"ha":1367,"x_min":60,"x_max":1376,"o":"m 179 510 q 183 540 183 526 q 139 585 183 585 q 60 567 106 585 l 90 732 q 193 751 151 751 q 294 721 254 751 q 346 631 335 690 l 353 592 q 626 753 451 753 q 823 688 751 753 q 894 514 894 624 q 886 438 894 478 l 799 0 l 617 0 l 699 411 q 703 456 703 435 q 664 554 703 518 q 556 590 625 590 q 416 536 476 590 q 338 393 356 482 l 257 0 l 76 0 l 179 510 m 817 -117 q 867 -125 832 -122 q 951 -92 917 -126 q 999 4 986 -57 l 1146 743 l 1328 743 l 1172 -39 q 1079 -215 1150 -154 q 903 -276 1008 -276 q 764 -249 831 -276 l 817 -117 m 1292 1063 q 1353 1038 1329 1063 q 1376 974 1376 1013 q 1339 884 1376 921 q 1251 847 1301 847 q 1190 872 1214 847 q 1167 936 1167 897 q 1204 1026 1167 989 q 1292 1063 1242 1063 z "},"ṉ":{"ha":928,"x_min":40,"x_max":858,"o":"m 590 753 q 787 688 715 753 q 858 514 858 624 q 850 438 858 478 l 763 0 l 581 0 l 663 411 q 667 456 667 435 q 628 554 667 518 q 519 590 589 590 q 380 536 440 590 q 301 393 319 482 l 221 0 l 40 0 l 186 743 l 369 743 l 349 638 q 590 753 436 753 m 211 -111 l 574 -111 l 551 -225 l 189 -225 l 211 -111 z "},"ñ":{"ha":964,"x_min":60,"x_max":894,"o":"m 179 510 q 183 540 183 526 q 139 585 183 585 q 60 567 106 585 l 90 732 q 193 751 151 751 q 294 721 254 751 q 346 631 335 690 l 353 592 q 626 753 451 753 q 823 688 751 753 q 894 514 894 624 q 886 438 894 478 l 799 0 l 617 0 l 699 411 q 703 456 703 435 q 664 554 703 518 q 556 590 625 590 q 416 536 476 590 q 338 393 356 482 l 257 0 l 76 0 l 179 510 m 886 1031 q 729 836 851 836 q 676 846 699 836 q 614 878 653 856 q 558 903 576 903 q 525 887 536 903 q 507 840 514 871 l 392 840 q 550 1036 426 1036 q 607 1025 581 1036 q 664 994 633 1014 q 722 969 704 969 q 771 1031 761 969 l 886 1031 z "},"o":{"ha":881,"x_min":46,"x_max":835,"o":"m 478 749 q 666 706 585 749 q 791 586 747 664 q 835 408 835 508 q 778 193 835 288 q 624 46 722 99 q 403 -7 526 -7 q 215 36 296 -7 q 90 156 133 79 q 46 335 46 233 q 101 549 46 456 q 256 696 157 643 q 478 749 354 749 m 464 594 q 344 563 397 594 q 260 474 290 531 q 229 344 229 417 q 281 199 229 254 q 417 144 332 144 q 536 176 483 144 q 619 265 589 208 q 650 394 650 322 q 599 539 650 483 q 464 594 549 594 z "},"ó":{"ha":881,"x_min":46,"x_max":835,"o":"m 478 749 q 666 706 585 749 q 791 586 747 664 q 835 408 835 508 q 778 193 835 288 q 624 46 722 99 q 403 -7 526 -7 q 215 36 296 -7 q 90 156 133 79 q 46 335 46 233 q 101 549 46 456 q 256 696 157 643 q 478 749 354 749 m 464 594 q 344 563 397 594 q 260 474 290 531 q 229 344 229 417 q 281 199 229 254 q 417 144 332 144 q 536 176 483 144 q 619 265 589 208 q 650 394 650 322 q 599 539 650 483 q 464 594 549 594 m 553 1056 l 726 985 l 549 842 l 408 856 l 553 1056 z "},"ŏ":{"ha":881,"x_min":46,"x_max":835,"o":"m 478 749 q 666 706 585 749 q 791 586 747 664 q 835 408 835 508 q 778 193 835 288 q 624 46 722 99 q 403 -7 526 -7 q 215 36 296 -7 q 90 156 133 79 q 46 335 46 233 q 101 549 46 456 q 256 696 157 643 q 478 749 354 749 m 464 594 q 344 563 397 594 q 260 474 290 531 q 229 344 229 417 q 281 199 229 254 q 417 144 332 144 q 536 176 483 144 q 619 265 589 208 q 650 394 650 322 q 599 539 650 483 q 464 594 549 594 m 451 1046 q 450 1028 450 1040 q 469 976 450 996 q 518 957 488 957 q 581 982 553 957 q 621 1046 610 1007 l 740 1046 q 652 897 719 953 q 497 840 585 840 q 374 885 419 840 q 329 1006 329 929 q 332 1046 329 1032 l 451 1046 z "},"ô":{"ha":881,"x_min":46,"x_max":835,"o":"m 478 749 q 666 706 585 749 q 791 586 747 664 q 835 408 835 508 q 778 193 835 288 q 624 46 722 99 q 403 -7 526 -7 q 215 36 296 -7 q 90 156 133 79 q 46 335 46 233 q 101 549 46 456 q 256 696 157 643 q 478 749 354 749 m 464 594 q 344 563 397 594 q 260 474 290 531 q 229 344 229 417 q 281 199 229 254 q 417 144 332 144 q 536 176 483 144 q 619 265 589 208 q 650 394 650 322 q 599 539 650 483 q 464 594 549 594 m 736 851 l 575 851 l 515 939 l 424 851 l 263 851 l 450 1051 l 625 1051 l 736 851 z "},"ố":{"ha":881,"x_min":46,"x_max":835,"o":"m 478 749 q 666 706 585 749 q 791 586 747 664 q 835 408 835 508 q 778 193 835 288 q 624 46 722 99 q 403 -7 526 -7 q 215 36 296 -7 q 90 156 133 79 q 46 335 46 233 q 101 549 46 456 q 256 696 157 643 q 478 749 354 749 m 464 594 q 344 563 397 594 q 260 474 290 531 q 229 344 229 417 q 281 199 229 254 q 417 144 332 144 q 536 176 483 144 q 619 265 589 208 q 650 394 650 322 q 599 539 650 483 q 464 594 549 594 m 760 836 l 583 836 l 511 910 l 411 836 l 232 836 l 411 986 l 633 986 l 760 836 m 597 1228 l 742 1135 l 543 1026 l 419 1063 l 597 1228 z "},"ộ":{"ha":881,"x_min":46,"x_max":835,"o":"m 478 749 q 666 706 585 749 q 791 586 747 664 q 835 408 835 508 q 778 193 835 288 q 624 46 722 99 q 403 -7 526 -7 q 215 36 296 -7 q 90 156 133 79 q 46 335 46 233 q 101 549 46 456 q 256 696 157 643 q 478 749 354 749 m 464 594 q 344 563 397 594 q 260 474 290 531 q 229 344 229 417 q 281 199 229 254 q 417 144 332 144 q 536 176 483 144 q 619 265 589 208 q 650 394 650 322 q 599 539 650 483 q 464 594 549 594 m 390 -97 q 451 -122 428 -97 q 475 -186 475 -147 q 438 -276 475 -239 q 350 -312 400 -312 q 289 -287 313 -312 q 265 -224 265 -262 q 303 -134 265 -171 q 390 -97 340 -97 m 771 851 l 610 851 l 550 939 l 458 851 l 297 851 l 485 1051 l 660 1051 l 771 851 z "},"ồ":{"ha":881,"x_min":46,"x_max":835,"o":"m 478 749 q 666 706 585 749 q 791 586 747 664 q 835 408 835 508 q 778 193 835 288 q 624 46 722 99 q 403 -7 526 -7 q 215 36 296 -7 q 90 156 133 79 q 46 335 46 233 q 101 549 46 456 q 256 696 157 643 q 478 749 354 749 m 464 594 q 344 563 397 594 q 260 474 290 531 q 229 344 229 417 q 281 199 229 254 q 417 144 332 144 q 536 176 483 144 q 619 265 589 208 q 650 394 650 322 q 599 539 650 483 q 464 594 549 594 m 761 836 l 585 836 l 513 910 l 413 836 l 233 836 l 413 986 l 635 986 l 761 836 m 456 1228 l 635 1063 l 511 1026 l 311 1135 l 456 1228 z "},"ổ":{"ha":881,"x_min":46,"x_max":835,"o":"m 478 749 q 666 706 585 749 q 791 586 747 664 q 835 408 835 508 q 778 193 835 288 q 624 46 722 99 q 403 -7 526 -7 q 215 36 296 -7 q 90 156 133 79 q 46 335 46 233 q 101 549 46 456 q 256 696 157 643 q 478 749 354 749 m 464 594 q 344 563 397 594 q 260 474 290 531 q 229 344 229 417 q 281 199 229 254 q 417 144 332 144 q 536 176 483 144 q 619 265 589 208 q 650 394 650 322 q 599 539 650 483 q 464 594 549 594 m 761 836 l 585 836 l 513 910 l 413 836 l 233 836 l 413 986 l 635 986 l 761 836 m 567 1257 q 646 1234 617 1257 q 675 1176 675 1211 q 550 1024 675 1104 l 472 1058 q 520 1098 503 1078 q 538 1133 538 1118 q 510 1154 538 1154 q 465 1142 485 1154 l 429 1215 q 567 1257 497 1257 z "},"ỗ":{"ha":881,"x_min":46,"x_max":835,"o":"m 478 749 q 666 706 585 749 q 791 586 747 664 q 835 408 835 508 q 778 193 835 288 q 624 46 722 99 q 403 -7 526 -7 q 215 36 296 -7 q 90 156 133 79 q 46 335 46 233 q 101 549 46 456 q 256 696 157 643 q 478 749 354 749 m 464 594 q 344 563 397 594 q 260 474 290 531 q 229 344 229 417 q 281 199 229 254 q 417 144 332 144 q 536 176 483 144 q 619 265 589 208 q 650 394 650 322 q 599 539 650 483 q 464 594 549 594 m 761 836 l 585 836 l 513 910 l 413 836 l 233 836 l 413 986 l 635 986 l 761 836 m 789 1206 q 738 1082 775 1126 q 638 1038 700 1038 q 578 1048 606 1038 q 517 1076 551 1058 q 483 1093 500 1086 q 454 1100 467 1100 q 417 1085 429 1100 q 400 1042 406 1071 l 304 1042 q 456 1211 335 1211 q 515 1201 488 1211 q 575 1172 543 1190 q 594 1163 579 1169 q 619 1152 608 1156 q 639 1149 629 1149 q 674 1163 663 1149 q 692 1206 686 1178 l 789 1206 z "},"ȍ":{"ha":881,"x_min":46,"x_max":835,"o":"m 478 749 q 666 706 585 749 q 791 586 747 664 q 835 408 835 508 q 778 193 835 288 q 624 46 722 99 q 403 -7 526 -7 q 215 36 296 -7 q 90 156 133 79 q 46 335 46 233 q 101 549 46 456 q 256 696 157 643 q 478 749 354 749 m 464 594 q 344 563 397 594 q 260 474 290 531 q 229 344 229 417 q 281 199 229 254 q 417 144 332 144 q 536 176 483 144 q 619 265 589 208 q 650 394 650 322 q 599 539 650 483 q 464 594 549 594 m 389 1064 l 458 854 l 325 842 l 228 1000 l 389 1064 m 629 1064 l 699 854 l 565 842 l 468 1000 l 629 1064 z "},"ö":{"ha":881,"x_min":46,"x_max":835,"o":"m 478 749 q 666 706 585 749 q 791 586 747 664 q 835 408 835 508 q 778 193 835 288 q 624 46 722 99 q 403 -7 526 -7 q 215 36 296 -7 q 90 156 133 79 q 46 335 46 233 q 101 549 46 456 q 256 696 157 643 q 478 749 354 749 m 464 594 q 344 563 397 594 q 260 474 290 531 q 229 344 229 417 q 281 199 229 254 q 417 144 332 144 q 536 176 483 144 q 619 265 589 208 q 650 394 650 322 q 599 539 650 483 q 464 594 549 594 m 411 1043 q 464 1022 444 1043 q 483 967 483 1000 q 451 890 483 922 q 376 857 419 857 q 322 879 343 857 q 301 935 301 901 q 333 1012 301 981 q 411 1043 365 1043 m 663 1043 q 716 1022 696 1043 q 736 967 736 1000 q 704 890 736 922 q 628 857 672 857 q 574 879 594 857 q 554 935 554 901 q 586 1012 554 981 q 663 1043 618 1043 z "},"ȫ":{"ha":881,"x_min":46,"x_max":835,"o":"m 478 749 q 666 706 585 749 q 791 586 747 664 q 835 408 835 508 q 778 193 835 288 q 624 46 722 99 q 403 -7 526 -7 q 215 36 296 -7 q 90 156 133 79 q 46 335 46 233 q 101 549 46 456 q 256 696 157 643 q 478 749 354 749 m 464 594 q 344 563 397 594 q 260 474 290 531 q 229 344 229 417 q 281 199 229 254 q 417 144 332 144 q 536 176 483 144 q 619 265 589 208 q 650 394 650 322 q 599 539 650 483 q 464 594 549 594 m 408 1014 q 461 994 442 1014 q 481 940 481 974 q 449 865 481 897 q 376 833 418 833 q 323 854 343 833 q 303 908 303 875 q 334 983 303 953 q 408 1014 365 1014 m 654 1014 q 706 993 686 1014 q 725 940 725 972 q 694 865 725 897 q 621 833 663 833 q 567 855 588 833 q 547 908 547 876 q 579 983 547 953 q 654 1014 611 1014 m 376 1178 l 743 1178 l 722 1065 l 356 1065 l 376 1178 z "},"ȱ":{"ha":881,"x_min":46,"x_max":835,"o":"m 478 749 q 666 706 585 749 q 791 586 747 664 q 835 408 835 508 q 778 193 835 288 q 624 46 722 99 q 403 -7 526 -7 q 215 36 296 -7 q 90 156 133 79 q 46 335 46 233 q 101 549 46 456 q 256 696 157 643 q 478 749 354 749 m 464 594 q 344 563 397 594 q 260 474 290 531 q 229 344 229 417 q 281 199 229 254 q 417 144 332 144 q 536 176 483 144 q 619 265 589 208 q 650 394 650 322 q 599 539 650 483 q 464 594 549 594 m 543 1029 q 600 1007 578 1029 q 622 950 622 985 q 588 869 622 903 q 507 836 553 836 q 451 858 472 836 q 431 915 431 881 q 464 996 431 963 q 543 1029 497 1029 m 390 1178 l 757 1178 l 736 1065 l 369 1065 l 390 1178 z "}}}
